<svg width="158" height="36" viewBox="0 0 158 36" fill="none" xmlns="http://www.w3.org/2000/svg">
<path d="M33.0337 0H33.4485C33.5994 2.3318 35.3368 4.07557 37.7039 4.23176C37.7345 4.23332 37.7497 4.24946 37.7497 4.28017V4.47384C37.7497 4.5082 37.7323 4.52668 37.6976 4.52928C35.3724 4.69249 33.5979 6.39957 33.4683 8.71028C33.4662 8.74724 33.4464 8.76573 33.409 8.76573H33.0701C33.0369 8.76573 33.0193 8.74933 33.0172 8.71653C32.8836 6.41518 31.1194 4.67297 28.795 4.52928C28.7602 4.5272 28.7428 4.50872 28.7428 4.47384V4.29111C28.7428 4.25727 28.7599 4.23879 28.7942 4.23566C31.1976 4.02013 32.8583 2.37007 33.0337 0ZM12.8432 3.03228L22.1859 27.0226C22.1884 27.0288 22.1893 27.0355 22.1885 27.0421C22.1877 27.0488 22.1853 27.0551 22.1815 27.0605C22.1777 27.066 22.1726 27.0705 22.1666 27.0735C22.1606 27.0766 22.154 27.0782 22.1472 27.0781H19.2587C19.2503 27.0781 19.242 27.0756 19.2351 27.0708C19.2282 27.0661 19.2229 27.0594 19.22 27.0515L17.0638 21.3649C17.0609 21.3571 17.0556 21.3504 17.0487 21.3456C17.0418 21.3409 17.0336 21.3384 17.0251 21.3384H5.30902C5.30059 21.3384 5.29236 21.3409 5.28543 21.3456C5.27851 21.3504 5.27323 21.3571 5.27031 21.3649L3.11339 27.0515C3.11047 27.0594 3.10519 27.0661 3.09827 27.0708C3.09134 27.0756 3.0831 27.0781 3.07468 27.0781H0.0415557C0.0348245 27.0782 0.0281775 27.0766 0.0221991 27.0735C0.0162208 27.0705 0.0110944 27.066 0.00727085 27.0605C0.00344725 27.0551 0.0010436 27.0488 0.00027129 27.0421C-0.000501016 27.0355 0.00038169 27.0288 0.00284177 27.0226L9.41744 3.03306C9.42049 3.02539 9.42582 3.01882 9.43274 3.01421C9.43965 3.00961 9.44782 3.00719 9.45616 3.00729L12.8045 3.00651C12.8129 3.00641 12.821 3.00883 12.8279 3.01343C12.8349 3.01803 12.8402 3.02461 12.8432 3.03228ZM11.0466 6.52295C11.0447 6.51801 11.0413 6.51378 11.0368 6.51082C11.0324 6.50786 11.0272 6.50631 11.0218 6.5064C11.0165 6.50648 11.0113 6.50819 11.0069 6.51129C11.0026 6.51439 10.9994 6.51874 10.9976 6.52373L6.60238 18.3561C6.601 18.36 6.60057 18.3641 6.60114 18.3682C6.60171 18.3723 6.60325 18.3762 6.60565 18.3795C6.60805 18.3829 6.61123 18.3856 6.61492 18.3875C6.61861 18.3894 6.62271 18.3904 6.62688 18.3905H15.7792C15.7834 18.3905 15.7876 18.3895 15.7914 18.3875C15.7952 18.3856 15.7984 18.3828 15.8008 18.3793C15.8033 18.3758 15.8048 18.3718 15.8053 18.3677C15.8058 18.3635 15.8052 18.3592 15.8037 18.3553L11.0466 6.52295Z" fill="white"/>
<path d="M27.1816 3.00885H24.1999C24.178 3.00885 24.1603 3.02633 24.1603 3.0479V27.039C24.1603 27.0606 24.178 27.0781 24.1999 27.0781H27.1816C27.2034 27.0781 27.2211 27.0606 27.2211 27.039V3.0479C27.2211 3.02633 27.2034 3.00885 27.1816 3.00885Z" fill="white"/>
<path d="M54.5982 24.0294V26.9617C54.5982 26.9719 54.5941 26.9816 54.5869 26.9888C54.5796 26.996 54.5698 27 54.5595 27H39.4476C39.4373 27 39.4275 26.996 39.4202 26.9888C39.413 26.9816 39.4089 26.9719 39.4089 26.9617V3.04399C39.4089 3.03384 39.413 3.02411 39.4202 3.01693C39.4275 3.00976 39.4373 3.00573 39.4476 3.00573L53.7497 3.00729C53.7599 3.00729 53.7698 3.01132 53.777 3.0185C53.7843 3.02567 53.7884 3.0354 53.7884 3.04555V5.99427C53.7884 6.00442 53.7843 6.01415 53.777 6.02133C53.7698 6.02851 53.7599 6.03254 53.7497 6.03254H42.4302C42.4199 6.03254 42.4101 6.03657 42.4028 6.04375C42.3955 6.05092 42.3915 6.06065 42.3915 6.0708V13.3934C42.3915 13.4036 42.3955 13.4133 42.4028 13.4205C42.4101 13.4276 42.4199 13.4317 42.4302 13.4317H52.5835C52.5886 13.4317 52.5936 13.4327 52.5983 13.4346C52.603 13.4365 52.6073 13.4393 52.6109 13.4429C52.6145 13.4464 52.6173 13.4506 52.6193 13.4553C52.6212 13.4599 52.6222 13.4649 52.6222 13.4699L52.6246 16.3999C52.6246 16.4049 52.6236 16.4099 52.6216 16.4146C52.6197 16.4192 52.6168 16.4234 52.6132 16.427C52.6096 16.4305 52.6054 16.4333 52.6007 16.4353C52.596 16.4372 52.591 16.4382 52.5859 16.4382H42.4302C42.4199 16.4382 42.4101 16.4422 42.4028 16.4494C42.3955 16.4566 42.3915 16.4663 42.3915 16.4764V23.956C42.3915 23.9662 42.3955 23.9759 42.4028 23.9831C42.4101 23.9902 42.4199 23.9943 42.4302 23.9943L54.5595 23.9911C54.5698 23.9911 54.5796 23.9952 54.5869 24.0024C54.5941 24.0095 54.5982 24.0193 54.5982 24.0294ZM154.662 7.86143V9.66612C154.662 9.67482 154.658 9.68316 154.652 9.68931C154.646 9.69546 154.638 9.69891 154.629 9.69891L154.261 9.69813C154.252 9.69813 154.243 9.69468 154.237 9.68853C154.231 9.68238 154.227 9.67404 154.227 9.66534V7.86143C154.227 7.85273 154.224 7.84439 154.218 7.83824C154.211 7.83209 154.203 7.82863 154.194 7.82863H153.609C153.6 7.82863 153.591 7.82518 153.585 7.81903C153.579 7.81288 153.576 7.80453 153.576 7.79584V7.51002C153.576 7.50132 153.579 7.49298 153.585 7.48683C153.591 7.48068 153.6 7.47722 153.609 7.47722H155.281C155.289 7.47722 155.298 7.48068 155.304 7.48683C155.31 7.49298 155.314 7.50132 155.314 7.51002V7.79584C155.314 7.80453 155.31 7.81288 155.304 7.81903C155.298 7.82518 155.289 7.82863 155.281 7.82863H154.695C154.686 7.82863 154.678 7.83209 154.672 7.83824C154.665 7.84439 154.662 7.85273 154.662 7.86143ZM158 7.48191V9.68798L157.534 9.69501C157.501 9.69553 157.485 9.67965 157.485 9.64738L157.49 8.06135C157.49 8.05713 157.489 8.05294 157.486 8.04958C157.483 8.04623 157.48 8.04395 157.475 8.04317C157.471 8.0424 157.467 8.04319 157.463 8.04539C157.46 8.04759 157.457 8.05105 157.456 8.0551L156.855 9.65362C156.848 9.67156 156.836 9.68702 156.82 9.69795C156.805 9.70887 156.786 9.71472 156.766 9.71472C156.747 9.71472 156.728 9.70887 156.712 9.69795C156.696 9.68702 156.684 9.67156 156.677 9.65362L156.077 8.06291C156.055 8.00564 156.045 8.00746 156.045 8.06837V9.6177C156.045 9.63656 156.037 9.65469 156.024 9.66824C156.011 9.6818 155.993 9.68972 155.973 9.69032L155.727 9.69735C155.688 9.69839 155.669 9.68017 155.669 9.64269V7.50924C155.669 7.49578 155.675 7.48287 155.684 7.47335C155.694 7.46383 155.707 7.45848 155.721 7.45848L156.22 7.4577C156.243 7.4577 156.258 7.46811 156.267 7.48894L156.815 8.91957C156.817 8.92444 156.82 8.92865 156.824 8.93163C156.828 8.9346 156.833 8.9362 156.838 8.9362C156.844 8.9362 156.849 8.9346 156.853 8.93163C156.858 8.92865 156.861 8.92444 156.863 8.91957L157.4 7.51236C157.411 7.48477 157.431 7.46915 157.46 7.46551C157.645 7.4426 157.825 7.44807 158 7.48191ZM135.348 22.8932C135.872 20.8394 133.771 19.8929 132.133 19.4681C129.499 18.7856 125.939 18.1593 125.386 14.8974C125.096 13.1826 125.758 11.5512 127.146 10.5157C129.599 8.68529 134.29 8.69701 136.603 10.7774C137.08 11.2069 137.549 11.6447 138.009 12.0908C138.032 12.1132 138.031 12.1346 138.005 12.1549L135.89 13.8299C135.883 13.8355 135.875 13.8396 135.866 13.842C135.857 13.8445 135.848 13.8451 135.839 13.844C135.83 13.843 135.822 13.8401 135.814 13.8357C135.806 13.8312 135.799 13.8253 135.794 13.8182C134.651 12.3064 133.138 11.9042 131.296 11.9315C130.557 11.942 129.884 12.1281 129.277 12.4899C128.571 12.9092 128.087 13.8065 128.407 14.6358C128.77 15.5753 130.009 16.0337 130.9 16.282C132.631 16.7638 135.057 17.0395 136.639 18.2233C138.62 19.7039 139.002 22.5761 137.992 24.6971C136.766 27.2725 133.24 27.8653 130.694 27.5966C128.695 27.3866 126.876 26.5338 125.428 25.1516C125.239 24.9704 124.975 24.8705 124.782 24.6549C124.762 24.6325 124.764 24.6115 124.786 24.5917L126.888 22.7214C126.908 22.7042 126.926 22.7055 126.944 22.7253C127.696 23.589 128.585 24.4417 129.687 24.7354C131.475 25.2109 134.746 25.25 135.348 22.8932ZM150.549 21.418C150.06 20.3357 148.666 19.7977 147.597 19.5134C144.591 18.7145 140.463 17.9789 140.66 13.9002C140.753 11.9893 141.914 10.5649 143.658 9.83323C146.031 8.83835 149.774 8.90707 151.799 10.6696C152.316 11.1204 152.821 11.5934 153.312 12.0885C153.318 12.0941 153.322 12.1008 153.325 12.1082C153.328 12.1156 153.329 12.1234 153.329 12.1313C153.328 12.1392 153.326 12.1469 153.323 12.1539C153.319 12.1609 153.314 12.1671 153.308 12.1721L151.201 13.8385C151.195 13.8427 151.189 13.8458 151.183 13.8476C151.177 13.8494 151.17 13.85 151.163 13.8492C151.157 13.8484 151.15 13.8462 151.144 13.8429C151.139 13.8396 151.133 13.8352 151.129 13.8299C150.337 12.8012 149.32 12.1947 148.079 12.0104C146.712 11.8074 144.411 11.8769 143.776 13.4278C142.953 15.4394 145.734 16.2117 147.077 16.4983C148.54 16.8115 150.591 17.2339 151.901 18.1796C153.568 19.3838 154.133 21.5157 153.722 23.4734C153.188 26.0184 150.997 27.2999 148.544 27.5771C145.586 27.9113 142.882 27.1874 140.733 25.1375C140.554 24.9673 140.288 24.8666 140.106 24.6557C140.086 24.6323 140.088 24.6104 140.11 24.5901L142.212 22.7175C142.232 22.6993 142.251 22.7006 142.269 22.7214C142.989 23.5609 143.843 24.3722 144.853 24.6815C146.181 25.0875 147.836 25.1617 149.194 24.5823C150.43 24.0536 151.116 22.6745 150.549 21.418ZM77.9625 36H75.0139C75.0018 30.3774 74.997 24.7551 74.9997 19.1331C74.9997 18.4631 75.0221 17.9433 75.0668 17.5736C75.5859 13.2614 78.8647 9.54508 83.4211 9.28191C84.8022 9.20173 86.1646 9.3777 87.5082 9.80981C91.8118 11.1944 93.9553 15.0489 93.5294 19.4244C92.9416 25.4639 87.0318 29.2764 81.216 27.0906C79.9132 26.6017 78.7051 25.7584 78.0193 24.5597C78.0062 24.5373 77.9978 24.5388 77.9941 24.5643C77.9467 24.8853 77.983 25.257 77.9838 25.4975C77.9954 28.9986 77.9883 32.4994 77.9625 36ZM78.4089 20.652C79.4494 23.8928 82.8057 25.3023 86.0142 24.5932C88.3378 24.0794 89.7766 22.5504 90.2688 20.2693C90.5635 18.9043 90.5564 17.3011 90.0665 15.9759C89.0607 13.2528 86.3745 12.3212 83.6518 12.418C79.7488 12.5563 78.1181 15.644 78.1766 19.1151C78.1861 19.6868 78.2635 20.199 78.4089 20.652ZM111.626 27.1335C107.18 25.4772 105.299 20.5294 106.256 16.1859C107.455 10.75 112.71 8.05119 118.006 9.76686C122.509 11.2248 123.449 15.8861 123.193 19.9952C123.192 20.0187 123.18 20.0304 123.156 20.0304H109.312C109.307 20.0303 109.302 20.0314 109.298 20.0334C109.293 20.0354 109.289 20.0383 109.285 20.042C109.282 20.0457 109.28 20.05 109.278 20.0548C109.276 20.0595 109.276 20.0645 109.277 20.0694C109.441 22.0076 110.519 23.521 112.262 24.3457C114.836 25.5631 117.99 25.0454 120.005 22.9744C120.057 22.9213 120.109 22.9216 120.161 22.9752L122.03 24.8939C122.036 24.8999 122.039 24.9079 122.038 24.9161C122.038 24.9242 122.034 24.932 122.028 24.9376C119.18 27.6122 115.366 28.5275 111.626 27.1335ZM114.757 12.215C111.763 12.1158 109.502 14.4008 109.28 17.273C109.279 17.276 109.28 17.2791 109.281 17.282C109.282 17.285 109.283 17.2877 109.285 17.2899C109.288 17.2922 109.29 17.2941 109.293 17.2953C109.296 17.2965 109.299 17.2972 109.303 17.2972L120.052 17.298C120.076 17.298 120.088 17.286 120.087 17.262C120.006 14.2134 117.726 12.3142 114.757 12.215ZM99.1034 11.5302C99.1033 11.5329 99.104 11.5357 99.1055 11.5381C99.107 11.5405 99.1092 11.5423 99.1119 11.5433C99.1145 11.5444 99.1174 11.5446 99.1201 11.5439C99.1229 11.5432 99.1253 11.5417 99.1272 11.5395C100.682 9.87774 102.938 9.31002 105.159 9.34829C105.188 9.34881 105.203 9.36312 105.203 9.39124V12.4188C105.203 12.4521 105.186 12.468 105.152 12.4665C102.341 12.3181 100.315 14.0587 99.1833 16.4421C99.1285 16.5571 99.1011 16.6813 99.1011 16.8146C99.099 20.2501 99.0987 23.6837 99.1003 27.1156C99.1003 27.1302 99.0929 27.1374 99.0782 27.1374L96.1762 27.1359C96.1499 27.1359 96.1367 27.1231 96.1367 27.0976V9.7403C96.1367 9.72953 96.141 9.7192 96.1487 9.71159C96.1564 9.70397 96.1669 9.6997 96.1778 9.6997L99.0592 9.70282C99.085 9.70282 99.0979 9.71558 99.0979 9.74109L99.1034 11.5302ZM64.7373 20.7082L59.8246 27.0672C59.822 27.0706 59.8187 27.0733 59.8148 27.0752C59.811 27.0771 59.8068 27.0781 59.8025 27.0781H56.3877C56.3825 27.0782 56.3773 27.0768 56.3728 27.0741C56.3683 27.0714 56.3646 27.0675 56.3623 27.0628C56.36 27.0581 56.359 27.0529 56.3596 27.0477C56.3602 27.0425 56.3623 27.0376 56.3656 27.0336L63.0758 18.5435C63.0797 18.5387 63.0819 18.5326 63.0819 18.5263C63.0819 18.5201 63.0797 18.514 63.0758 18.5092L56.0148 9.74577C56.0115 9.74172 56.0094 9.73681 56.0088 9.73163C56.0082 9.72645 56.0092 9.72121 56.0115 9.71653C56.0138 9.71185 56.0175 9.70793 56.022 9.70522C56.0265 9.70252 56.0317 9.70114 56.0369 9.70126L59.8862 9.7036C59.8905 9.7036 59.8947 9.70459 59.8986 9.70649C59.9024 9.70838 59.9058 9.71114 59.9083 9.71453L64.7373 16.2703C64.7398 16.2737 64.7431 16.2765 64.7469 16.2785C64.7507 16.2805 64.7549 16.2815 64.7592 16.2816C64.7635 16.2817 64.7678 16.2808 64.7717 16.2789C64.7755 16.2771 64.7789 16.2744 64.7815 16.2711L69.6832 9.71375C69.6858 9.71036 69.6891 9.7076 69.693 9.70571C69.6968 9.70381 69.701 9.70282 69.7053 9.70282L73.4859 9.70204C73.491 9.70204 73.496 9.70345 73.5004 9.70612C73.5048 9.70879 73.5083 9.71261 73.5106 9.71715C73.5129 9.72169 73.5139 9.72677 73.5134 9.73182C73.5129 9.73688 73.5111 9.74171 73.508 9.74577L66.8049 18.5107C66.8014 18.5154 66.7994 18.5212 66.7994 18.5271C66.7994 18.533 66.8014 18.5388 66.8049 18.5435L73.1556 27.0344C73.1587 27.0384 73.1606 27.0432 73.161 27.0483C73.1615 27.0534 73.1605 27.0584 73.1582 27.063C73.1559 27.0675 73.1524 27.0713 73.148 27.074C73.1437 27.0767 73.1386 27.0781 73.1335 27.0781H69.7164C69.7121 27.0781 69.7079 27.0771 69.704 27.0752C69.7002 27.0733 69.6969 27.0706 69.6943 27.0672L64.7815 20.7082C64.779 20.7048 64.7756 20.7021 64.7718 20.7002C64.768 20.6983 64.7637 20.6973 64.7594 20.6973C64.7551 20.6973 64.7509 20.6983 64.7471 20.7002C64.7432 20.7021 64.7399 20.7048 64.7373 20.7082Z" fill="white"/>
<path d="M34.8012 10.0542H31.8304C31.8056 10.0542 31.7854 10.0742 31.7854 10.0987V27.0336C31.7854 27.0582 31.8056 27.0781 31.8304 27.0781H34.8012C34.826 27.0781 34.8462 27.0582 34.8462 27.0336V10.0987C34.8462 10.0742 34.826 10.0542 34.8012 10.0542Z" fill="white"/>
</svg>
