<svg width="320" height="342" viewBox="0 0 320 342" fill="none" xmlns="http://www.w3.org/2000/svg">
<path d="M1.0148 105.363C0.687429 105.363 0.367095 105.204 0.170654 104.91C-0.137993 104.452 -0.016399 103.826 0.441902 103.513L83.5023 46.7616L159.473 0.153357C159.938 -0.145533 160.562 0.0086121 160.862 0.475599C161.159 0.942633 161.023 1.56373 160.558 1.86731L1.56897 105.199C1.3983 105.311 1.20655 105.363 1.0148 105.363ZM94.2329 42.5538L84.6059 48.4615L74.0811 55.6536L94.2329 42.5538Z" fill="white"/>
<path d="M47.9334 286.687C47.5687 286.687 47.2179 286.49 47.0379 286.15L13.9269 223.999C13.8661 223.887 13.8287 223.765 13.8146 223.639L0.00672666 104.466C-0.0540928 103.938 0.303687 103.453 0.829847 103.355C1.33728 103.224 1.8634 103.583 1.99667 104.097L48.9155 285.421C49.0442 285.916 48.7799 286.43 48.3006 286.617C48.1813 286.663 48.0574 286.687 47.9334 286.687ZM15.8092 223.214L44.8117 277.654L3.71297 118.832L15.8092 223.214Z" fill="white"/>
<path d="M305.18 119.49C304.953 119.49 304.729 119.415 304.542 119.266L159.365 1.80665C158.963 1.47973 158.87 0.905303 159.15 0.470979C159.429 0.0366552 159.997 -0.12678 160.453 0.111376L272.499 55.4201C272.691 55.5135 272.845 55.6629 272.946 55.8497L306.075 118C306.302 118.425 306.197 118.953 305.825 119.257C305.638 119.411 305.409 119.49 305.18 119.49ZM167.72 5.95842L301.937 114.549L271.309 57.092L167.72 5.95842Z" fill="white"/>
<path d="M160.004 342C159.85 342 159.698 341.963 159.555 341.893L47.4852 286.579C47.0549 286.369 46.8328 285.883 46.952 285.421C47.0736 284.954 47.4735 284.688 47.9809 284.66L235.96 293.388C236.405 293.412 236.786 293.72 236.896 294.15C237.008 294.579 236.823 295.032 236.444 295.266L160.535 341.851C160.373 341.949 160.189 342 160.004 342ZM52.7301 286.911L159.95 339.828L232.577 295.261L52.7301 286.911Z" fill="white"/>
<path d="M235.914 295.415C235.689 295.415 235.465 295.34 235.282 295.196C234.934 294.915 234.808 294.444 234.969 294.033L304.235 118.108C304.404 117.678 304.829 117.417 305.311 117.473C305.774 117.533 306.134 117.898 306.188 118.36L319.993 237.538C320.036 237.911 319.87 238.28 319.559 238.491L236.487 295.238C236.313 295.354 236.112 295.415 235.914 295.415ZM304.64 122.619L238.065 291.702L317.908 237.164L304.64 122.619Z" fill="white"/>
<path d="M235.914 295.415C235.577 295.415 235.261 295.247 235.071 294.967L136.826 148.725C136.634 148.44 136.599 148.081 136.735 147.763C136.868 147.45 137.153 147.221 137.49 147.161L305.002 117.477C305.355 117.416 305.734 117.552 305.965 117.837C306.197 118.117 306.258 118.505 306.124 118.846L236.858 294.771C236.72 295.121 236.397 295.368 236.023 295.41C235.986 295.415 235.949 295.415 235.914 295.415ZM139.377 148.884L235.677 292.23L303.573 119.789L139.377 148.884Z" fill="white"/>
<path d="M47.9334 286.687C47.8797 286.687 47.8239 286.682 47.7701 286.673C47.3726 286.607 47.0522 286.318 46.9517 285.925L0.0328109 104.602C-0.0607169 104.247 0.049186 103.864 0.318084 103.611C0.589329 103.364 0.972828 103.275 1.32592 103.383L137.979 147.193C138.278 147.292 138.519 147.525 138.624 147.819C138.729 148.118 138.69 148.45 138.519 148.711L48.785 286.224C48.5956 286.518 48.2725 286.687 47.9334 286.687ZM2.45768 105.876L48.3407 283.193L136.092 148.721L2.45768 105.876Z" fill="white"/>
<path d="M235.914 295.415L235.867 295.415L47.8874 286.687C47.5227 286.668 47.1976 286.458 47.0316 286.136C46.8656 285.813 46.8866 285.426 47.083 285.122L136.819 147.609C137.004 147.324 137.32 147.152 137.661 147.147H137.668C138.007 147.147 138.323 147.315 138.51 147.595L236.756 293.837C236.971 294.154 236.985 294.565 236.798 294.902C236.618 295.219 236.278 295.415 235.914 295.415ZM49.7511 284.744L233.95 293.295L137.68 149.996L49.7511 284.744Z" fill="white"/>
<path d="M137.667 149.174C137.406 149.174 137.151 149.071 136.959 148.884C136.725 148.66 136.615 148.333 136.664 148.006L159 0.863292C159.054 0.508353 159.297 0.204781 159.636 0.0740342C159.98 -0.0567124 160.363 0.00403082 160.642 0.228223L305.818 117.687C306.126 117.94 306.262 118.346 306.162 118.729C306.063 119.112 305.748 119.406 305.357 119.476L137.845 149.16C137.787 149.169 137.726 149.174 137.667 149.174ZM160.74 2.91816L138.883 146.918L302.813 117.865L160.74 2.91816Z" fill="white"/>
<path d="M137.667 149.174C137.562 149.174 137.459 149.16 137.356 149.127L0.703353 105.316C0.33154 105.195 0.0602931 104.872 0.00885995 104.485C-0.0425732 104.097 0.132798 103.714 0.46017 103.499L159.449 0.167401C159.786 -0.047418 160.216 -0.047418 160.553 0.167401C160.889 0.382219 161.067 0.774511 161.006 1.17149L138.67 148.314C138.626 148.604 138.455 148.865 138.203 149.02C138.039 149.122 137.855 149.174 137.667 149.174ZM3.35738 104.036L136.842 146.834L158.661 3.10026L3.35738 104.036Z" fill="white"/>
</svg>
