<svg width="320" height="309" viewBox="0 0 320 309" fill="none" xmlns="http://www.w3.org/2000/svg">
<path d="M318.992 139.326L319.074 134.173L320 135.166L319.087 133.359L319.088 133.312L319.096 132.768L318.882 132.952L318.806 132.803L317.222 129.668L317.909 130.017L316.97 129.011L317.066 128.922L316.77 128.773L316.635 128.507L316.563 128.574L245.991 52.9055L247.21 51.1041L247.227 51.0926L247.268 51.0194L248.109 49.7762L247.86 49.9443L253.953 38.8905L253.972 38.8769L253.995 38.8148L254.644 37.6375L254.359 37.8484L257.674 29.0331L257.709 29.005L257.717 28.919L258.086 27.9371L257.784 28.1792L258.159 24.0539L258.254 24.1561L258.166 23.9793L258.373 21.7046L258.457 21.632L258.391 21.4999L258.45 20.8496L258.182 21.0803L256.146 16.9914L256.341 16.8144L255.993 16.6841L255.869 16.4355L255.711 16.5787L253.13 15.612L240.999 2.51931L241.143 2.38844L240.79 2.26136L240.67 2.01107L240.592 2.08164L239.437 0.834346L239.987 1.97148L236.127 0.579754L236.414 0.303291L235.61 0.393333L235.501 0.353747L234.519 0L234.953 0.466969L228.723 1.16439L229.011 0.869046L228.012 1.20923L227.859 1.26111L227.303 1.32341L227.393 1.42001L218.868 4.32254L219.125 4.04079L217.933 4.61515L217.75 4.70315L217.331 4.84568L217.37 4.88655L206.792 9.98274L206.999 9.73803L205.719 10.4806L205.523 10.5944L205.168 10.7654L205.189 10.7881L194.843 16.7913L192.773 17.9921L192.928 17.7896L191.669 18.6173L191.465 18.7511L191.148 18.9351L191.162 18.9502L186.746 21.8526L177.153 28.1569L177.255 28.0053L175.913 28.9718L175.622 29.1628L175.633 29.1737L160.27 40.2417L160.327 40.1379L159.413 40.8477L159.205 41.0092L158.93 41.207L158.939 41.2159L142.515 53.9714L142.536 53.9112L141.907 54.4323L141.697 54.6061L141.655 54.6387L141.631 54.6577L141.439 54.8067L141.446 54.8142L124.287 69.0277L124.288 69L123.761 69.4632L123.681 69.5294L123.661 69.5456L123.516 69.666L123.523 69.6728L106.032 85.041L106.026 85.0325L105.766 85.2742L105.578 85.4399L105.537 85.4761L105.542 85.4822L88.3084 101.507L88.3025 101.5L88.0879 101.712L87.6888 102.083L87.7066 102.087L78.4118 111.241L71.3245 118.22L71.318 118.213L71.1042 118.437L70.4363 119.095L70.4827 119.087L58.4732 131.646L55.395 134.864L55.3876 134.857L55.1764 135.093L54.2724 136.038L54.3611 136.005L46.4627 144.839L40.8816 151.081L40.8726 151.072L40.6639 151.325L39.6033 152.511L39.7432 152.44L28.1239 166.51L28.1122 166.498L27.9075 166.772L27.7412 166.973L27.7424 166.974L26.7918 168.123L26.9863 168.005L17.4395 180.786L17.4227 180.769L17.2252 181.073L17.0777 181.271L17.0788 181.272L16.1636 182.494L16.4119 182.325L9.11867 193.555L9.09097 193.527L8.90776 193.88L8.78537 194.068L8.78675 194.07L8.00977 195.262L8.30311 195.044L6.40133 198.707L3.40581 204.476L3.34974 204.419L3.2253 204.8L3.20491 204.863L2.56553 206.094L2.88737 205.836L0.617667 212.797L0.481042 213.216L0.302211 213.035L0.31352 213.729L0.272624 213.855L0 214.691L0.324613 214.414L0.386304 218.209L0.415669 220.018L0.302833 220.12L0.419608 220.259L0.42858 220.813L0.687744 220.578L3.12045 223.469L3.01429 223.453L3.43095 223.874L3.21111 224.086L3.70048 224.158L3.83334 224.316L3.85118 224.299L14.3433 234.902L14.3848 236.141L14.2743 236.242L14.3929 236.383L14.4111 236.926L14.6601 236.699L17.5661 240.139L17.3415 240.357L17.8168 240.436L17.9525 240.596L18.074 240.479L23.6997 241.415L23.4274 241.697L24.3146 241.517L24.4156 241.534L24.4603 241.488L32.7762 239.805L32.522 240.087L33.6895 239.621L33.7598 239.606L33.7794 239.585L44.6852 235.223L44.4657 235.482L45.7925 234.78L45.8485 234.758L45.8592 234.745L54.6223 230.111L127.25 303.991L127.304 304.308L127.439 304.183L130.432 307.228L130.256 307.404L130.699 307.502L130.847 307.658L130.948 307.557L135.981 308.67L135.769 308.898L136.447 308.807L136.542 308.794L136.658 308.819L137.474 309L137.186 308.707L140.751 308.225L143.778 307.815L143.581 308.046L144.578 307.707L145.14 307.631L145.055 307.544L151.402 305.383L153.706 304.599L153.543 304.811L154.66 304.274L154.727 304.251L155.09 304.128L155.05 304.086L165.549 299.037L165.423 299.218L166.559 298.551L166.621 298.522L166.923 298.376L166.899 298.352L179.024 291.236L178.945 291.375L179.799 290.799L179.998 290.665L180.059 290.629L180.319 290.476L180.303 290.459L182.355 289.075L193.762 281.385L193.72 281.482L194.616 280.809L194.683 280.764L194.906 280.613L194.894 280.6L209.349 269.745L209.335 269.805L209.813 269.412L210.024 269.238L210.101 269.18L210.286 269.041L210.276 269.031L225.336 256.651L225.338 256.681L225.579 256.466L225.789 256.28L226.034 256.078L226.025 256.069L229.371 253.084L241.219 242.514L241.226 242.525L241.264 242.489L241.473 242.287L241.702 242.083L241.694 242.074L256.423 227.862L256.432 227.871L256.643 227.65L256.853 227.447L256.987 227.317L256.968 227.311L270.661 213.011L270.671 213.021L270.804 212.869L270.883 212.78L271.075 212.579L271.403 212.236L271.358 212.239L277.61 205.126L283.578 198.338L283.589 198.349L283.798 198.087L283.974 197.887L284.473 197.319L284.392 197.343L294.842 184.247L294.857 184.262L295.063 183.971L295.219 183.775L295.816 183.027L295.693 183.081L304.176 171.107L304.196 171.127L304.394 170.799L304.529 170.609L305.143 169.741L304.978 169.833L311.366 159.254L311.397 159.287L311.548 158.967L311.578 158.904L311.687 158.723L312.235 157.816L312.031 157.947L316.272 148.985L316.329 149.046L316.448 148.642L316.47 148.566L316.952 147.547L316.72 147.713L318.823 140.538L318.971 140.697L318.982 139.997L319.234 139.134L318.992 139.326ZM25.1919 240.731L25.4289 240.485L33.6713 238.812L33.4479 239.06L25.1919 240.731ZM18.607 239.962L19.0905 239.493L20.8293 239.78L24.668 240.413L24.2037 240.893L18.607 239.962ZM257.722 22.2646L257.137 28.6982L257.114 28.7162L256.76 29L257.352 22.5824L257.722 22.2646ZM253.475 38.5016L253.353 38.5917L256.649 29.8551L256.76 29.7662L253.475 38.5016ZM1.2264 212.858L3.7382 205.155L24.6445 188.421L22.8974 194.058L22.699 193.856L22.7294 194.492L1.2264 212.858ZM4.39783 203.862L9.4003 194.228L28.8738 179.744L25.1406 187.073L25.081 187.012L24.96 187.403L19.7573 191.567L4.39783 203.862ZM10.3236 192.797L17.6882 181.457L35.3416 169.448L29.6702 178.267L29.6415 178.238L29.4846 178.546L26.3435 180.882L10.3236 192.797ZM56.5208 134.552L71.4664 118.923L79.4642 117.589L67.2474 130.392L67.24 130.385L67.0749 130.57L56.5208 134.552ZM141.229 55.7701L138.091 64.4485L137.898 64.5976L137.905 64.605L123.916 76.189L124.132 72.027L124.245 69.8384L141.229 55.7701ZM240.006 2.61354L222.534 18.4671L218.846 21.8142L217.889 20.7858L218.27 21.6829L215.422 20.5239L235.648 1.04199L240.006 2.61354ZM254.53 18.0013L255.877 20.7137L251.636 16.1402L243.053 6.88253L243.121 6.26734L242.841 6.50651L241.711 4.16784L254.53 18.0013ZM316.05 147.873L267.628 96.0975L238.175 64.6044L238.554 64.1143L238.302 64.2652L242.211 58.4891L318.349 140.031L316.05 147.873ZM179.879 290.024L95.7217 203.587L109.277 193.21L193.981 280.517L179.879 290.024ZM144.591 307.072L63.9273 224.853L71.8146 219.933L143.201 292.84L154 303.868L144.591 307.072ZM4.69825 224.305L9.41416 225.001L9.12757 225.295L9.93954 225.118L23.9196 239.261L24.4192 239.766L19.1349 238.895L4.69825 224.305ZM294.791 183.321L212.639 96.1884L222.682 84.3913L303.759 170.662L294.791 183.321ZM256.011 227.429L241.28 241.642L173.868 171.295L156.539 153.212L171.62 138.976L256.011 227.429ZM209.386 268.97L194.475 280.168L109.755 192.845L114.223 189.425L114.2 189.491L115.014 188.819L115.08 188.768L115.082 188.762L124.421 181.052L209.386 268.97ZM136.663 308.175L58.1439 228.248L59.197 227.691L59.0336 227.906L63.408 225.177L143.879 307.199L136.663 308.175ZM4.5014 223.672L26.0907 202.877L30.5062 203.392L9.92926 224.474L8.37765 224.245L4.5014 223.672ZM23.2591 200.095L25.2083 202.172L25.1776 202.169L25.5604 202.558L9.9383 217.606L4.14374 223.188L1.14841 220.159L23.2591 200.095ZM240.479 2.99094L242.371 6.9078L220.56 25.5367L219.187 22.3113L240.479 2.99094ZM245.981 51.0258L231.708 35.7161L232.48 34.6005L232.222 34.776L238.195 24.2538L252.349 39.4788L245.981 51.0258ZM236.441 65.2246L222.016 49.804L222.865 48.7219L222.66 48.8458L231.363 36.2214L245.663 51.561L236.441 65.2246ZM310.942 158.801L304.091 170.144L263.821 127.294L223.071 83.9336L226.176 80.2863L225.972 80.3895L231.161 73.6777L310.942 158.801ZM294.428 183.808L283.55 197.439L228.993 139.786L200.437 109.61L210.347 98.8758L210.353 98.8738L210.397 98.8216L211.231 97.9184L211.137 97.9527L212.249 96.6462L294.428 183.808ZM225.156 256.026L209.859 268.6L124.883 180.671L134.66 172.599L134.659 172.63L135.174 172.174L135.273 172.093L135.273 172.087L140.189 167.74L225.156 256.026ZM216.027 21.4151L218.602 22.4629L219.942 25.6116L216.027 21.4151ZM32.2948 216.889L48.5857 197.575L59.007 191.914L45.2363 209.918L32.2948 216.889ZM203.315 27.2321L214.156 38.8248L204.743 43.2035L191.173 28.7215L200.538 24.2619L203.315 27.2321ZM242.36 7.70332L241.665 13.9475L232.005 21.679L220.035 31.2584L220.725 26.1815L242.36 7.70332ZM237.89 23.5632L217.065 39.0492L219.886 32.1432L241.257 15.039L237.89 23.5632ZM10.9459 224.288L31.2974 203.437L37.8013 201.931L19.0064 222.531L10.9459 224.288ZM154.999 153.431L150.055 148.274L140.011 137.798L159.107 119.844L174.015 135.482L154.999 153.431ZM223.812 81.6226L209.515 98.4097L194.827 82.8466L195.506 82.1183L195.41 82.1545L209.239 66.1062L223.812 81.6226ZM63.0904 198.565L73.6988 182.713L87.3221 173.092L79.9146 186.708L74.955 190.203L63.0904 198.565ZM108.585 118.546L112.346 122.462L104.965 129.795L104.958 129.788L104.813 129.941L104.744 130.014L104.102 130.653L104.148 130.645L99.2295 135.856L95.2712 131.749L108.585 118.546ZM177.415 100.658L167.673 102.282L180.69 88.3446L193.329 83.5778L177.415 100.658ZM117.604 110.106L122.912 105.147L126.599 109.001L126.263 109.297L126.257 109.288L126.213 109.33L126 109.529L125.77 109.731L125.777 109.738L121.632 113.615L115.359 119.482L115.353 119.475L115.259 119.569L115.14 119.687L114.749 120.052L114.767 120.057L112.77 122.041L109.016 118.131L117.604 110.106ZM209.61 50.8318L204.65 57.9707L204.148 57.7266L204.534 58.1374L204.312 58.4566L201.684 58.6016L201.96 58.3162L201.029 58.6018L200.885 58.6457L200.338 58.6759L193.069 50.9404L203.926 44.7676L209.61 50.8318ZM57.635 188.21L52.1561 182.602L60.2403 171.511L66.6479 178.088L64.6366 182.27L64.5694 182.201L64.458 182.612L64.4395 182.68L63.8838 183.835L64.1933 183.588L63.8025 185.03L63.1608 187.396L62.9255 187.155L63.0093 187.954L62.9793 188.065L62.7708 188.835L63.0745 188.575L63.0908 188.731L60.0356 190.667L57.635 188.21ZM147.712 91.7458L144.213 101.955L144.022 102.103L144.029 102.111L137.336 107.647L137.577 100.133L147.712 91.7458ZM119.787 146.507L119.75 146.539L109.184 135.56L115.264 129.101L126.39 140.683L119.787 146.507ZM88.0207 171.867L83.0155 175.402L78.6178 178.507L88.0624 169.915L89.157 170.844L88.407 171.57L88.0207 171.867ZM95.4521 140.731L107.78 136.241L104.341 140.167L102.912 141.8L102.902 141.789L102.73 142.003L87.7588 149.485L95.4521 140.731ZM158.183 83.6575L151.501 96.3271L151.279 96.4853L151.288 96.4949L150.963 96.7456L145.072 101.292L148.592 91.0211L158.221 83.5849L158.183 83.6575ZM137.379 122.627L129.983 114.898L136.998 108.713L148.351 120.602L141.552 126.988L137.379 122.627ZM88.0608 164.524L87.5523 166.536L87.2834 166.258L87.3916 167.008L63.8541 187.123L64.9838 182.957L88.0608 164.524ZM86.7184 150.673L101.835 143.118L97.8414 148.094L97.8284 148.08L97.6555 148.321L80.203 158.754L86.7184 150.673ZM88.4812 163.218L88.4096 163.144L88.3029 163.566L77.4719 172.218L65.5578 181.734L68.1021 176.444L89.8155 160.373L88.4812 163.218ZM90.5013 158.91L90.3493 159.234L70.4723 173.946L68.9396 175.081L72.8615 168.752L92.7422 155.338L90.5344 158.945L90.5013 158.91ZM93.6613 153.836L93.4939 154.11L73.873 167.348L79.1269 160.093L96.7799 149.541L93.6807 153.856L93.6613 153.836ZM115.267 128.241L115.26 128.234L115.115 128.388L105.818 129.79L115.437 120.234L121.663 121.877L118.614 124.911L115.267 128.241ZM136.721 108.155L136.578 108.274L136.585 108.281L133.865 110.678L129.613 114.427L126.593 109.803L136.962 100.67L136.721 108.155ZM129.161 114.826L129.121 114.861L129.128 114.867L122.255 121.302L122.248 121.295L122.154 121.389L118.611 120.454L115.947 119.75L126.146 110.211L129.161 114.826ZM105.106 130.501L114.452 129.092L113.637 129.958L108.769 135.129L108.761 135.121L108.597 135.308L96.3615 139.764L105.106 130.501ZM66.9235 177.515L66.8107 177.399L67.0724 177.206L66.9235 177.515ZM98.2601 148.527L102.943 142.693L112.461 152.564L106.732 157.3L98.2601 148.527ZM112.586 151.833L103.328 142.232L108.782 136.004L119.288 146.92L112.923 152.182L112.586 151.833ZM129.864 129.239L122.668 121.733L129.541 115.299L141.116 127.397L135.96 132.24L134.216 133.778L129.864 129.239ZM159.106 91.6659L164.99 87.885L172.704 96.0203L168.012 101.044L159.106 91.6659ZM165.517 87.573L170.703 84.6642L177.051 91.3659L173.112 95.5829L165.517 87.573ZM184.234 81.9951L184.261 82.0779L184.13 81.9387L184.234 81.9951ZM184.826 81.8804L187.978 79.0121L185.009 82.4438L184.826 81.8804ZM182.509 81.0937L184.424 83.1199L183.361 84.3492L180.348 81.1629L180.414 81.1609L182.509 81.0937ZM176.235 82.2131L179.584 81.2239L182.968 84.8032L180.922 87.1678L176.235 82.2131ZM192.349 73.9599L191.262 75.2158L184.497 81.3714L183.787 80.6188L183.967 81.1715L183.135 80.722L199.489 64.8926L192.349 73.9599ZM179.545 80.5909L179.002 80.6083L179.124 80.737L177.692 81.1599L176.616 81.4778L195.067 61.0538L199.916 59.5673L179.545 80.5909ZM186.232 65.2456L170.574 84.0461L170.255 84.1907L170.279 84.2169L166.129 86.5446L179.14 69.2499L186.232 65.2456ZM177.459 90.9283L171.266 84.389L175.612 82.4245L178.075 85.0284L180.529 87.6221L180.3 87.8864L178.206 90.1291L177.459 90.9283ZM180.403 80.5636L181.216 79.725L181.961 80.5136L180.403 80.5636ZM177.901 79.1639L175.517 81.8022L175.131 81.9162L175.178 81.9653L171.821 83.4822L187.691 64.4267L193.706 61.6685L177.901 79.1639ZM177.692 70.1808L164.835 87.2702L164.556 87.4271L164.571 87.4438L159.659 90.6006L169.619 75.3911L177.692 70.1808ZM168.282 76.3421L158.425 91.3935L158.175 91.554L158.187 91.5662L154.054 94.5093L152.583 95.5564L159.358 82.7098L168.282 76.3421ZM75.4451 164.158L72.6075 168.077L72.5886 168.057L72.393 168.373L72.2518 168.568L72.2538 168.57L71.4095 169.731L71.6533 169.567L67.8122 175.765L67.7808 175.733L67.6277 176.052L67.6022 176.104L67.4879 176.289L67.4902 176.291L66.8039 177.393L60.6067 171.031L70.3959 158.958L75.4451 164.158ZM63.6261 188.104L87.4925 167.708L87.7371 169.403L74.6498 181.31L73.3152 182.252L63.6544 188.374L63.6261 188.104ZM89.7205 170.538L88.3352 169.362L88.1383 167.998L90.237 170.162L89.7457 170.54L89.7205 170.538ZM88.0414 167.04L88.3831 165.688L88.7265 164.33L92.6104 168.337L90.7138 169.796L88.0414 167.04ZM88.9261 163.677L90.6746 159.949L96.1568 165.61L93.0871 167.971L88.9261 163.677ZM90.9637 159.388L93.7681 154.806L100.779 162.055L96.6336 165.243L90.9637 159.388ZM94.1029 154.293L97.8961 149.011L106.271 157.682L106.248 157.7L103.657 159.842L101.256 161.688L94.1029 154.293ZM126.838 140.287L115.681 128.672L122.238 122.148L133.768 134.174L133.722 134.215L126.838 140.287ZM151.724 117.435L148.786 120.193L137.453 108.325L144.442 102.544L155.261 113.896L152.57 116.588L151.724 117.435ZM155.684 113.474L144.912 102.17L151.701 96.9299L161.707 107.448L155.684 113.474ZM152.186 96.5723L158.602 92.0037L167.603 101.481L166.64 102.513L162.129 107.025L152.186 96.5723ZM202.482 61.0911L202.242 61.3955L201.276 62.3312L182.579 80.4284L181.241 79.699L201.072 59.2335L203.88 59.0787L202.482 61.0911ZM152.104 80.192L156.136 84.4405L154.902 85.3934L148.944 89.9946L148.965 89.9337L148.363 90.4319L148.151 90.6072L147.894 90.8056L147.901 90.8136L141.782 95.8779L137.979 91.8855L139.324 90.7719L152.104 80.192ZM86.3329 150.199L86.2995 150.241L86.1203 150.445L85.2941 151.385L85.4329 151.316L78.9 159.418L78.8874 159.405L78.6828 159.687L78.5221 159.887L78.524 159.889L77.6382 160.983L77.8258 160.871L75.8009 163.667L70.7828 158.499L82.0274 145.749L86.3329 150.199ZM194.241 82.5953L183.205 86.7575L181.516 87.3947L192.767 74.3899L208.01 66.6166L200.636 75.1743L194.241 82.5953ZM209.958 50.33L204.483 44.4884L213.793 40.1618L215.099 41.5582L210.458 49.6114L209.958 50.33ZM192.545 51.2548L199.802 58.9777L195.847 60.1899L196.094 59.9164L194.971 60.4316L194.794 60.5126L194.354 60.6475L194.398 60.6943L191.046 62.2314L188.576 63.3637L188.778 63.1214L187.367 63.9182L187.002 64.0855L187.026 64.1108L185.79 64.8089L180.423 59.114L189.684 53.1092L192.545 51.2548ZM179.921 59.4529L185.254 65.1115L180.037 68.0577L180.185 67.8607L178.986 68.635L178.781 68.767L178.46 68.9484L178.475 68.9646L171.327 73.5774L166.824 68.8149L179.921 59.4529ZM137.523 92.2737L141.321 96.2598L139.252 97.9716L137.603 99.3365L137.604 99.3083L137.301 99.5752L137.088 99.7625L136.989 99.8449L136.845 99.9633L136.852 99.9704L127.048 108.606L123.355 104.745L130.594 98.3735L137.523 92.2737ZM94.8536 132.177L98.8188 136.291L95.2757 140.044L95.2678 140.036L95.0585 140.274L94.1945 141.189L94.2823 141.157L86.7302 149.751L82.4306 145.307L86.0001 141.534L94.8536 132.177ZM45.6581 192.922L51.8172 183.11L59.4952 190.969L49.2143 196.553L45.6581 192.922ZM119.238 155.345L102.671 169.038L100.178 171.099L104.098 160.253L119.649 147.397L119.238 155.345ZM139.644 137.323L136.549 132.507L152.017 117.98L158.514 119.582L151.434 126.239L139.644 137.323ZM209.034 65.4238L193.655 73.2662L202.923 61.4973L220.383 50.9233L209.034 65.4238ZM215.411 41.0171L214.405 39.9414L216.3 39.3405L216.113 39.7984L215.411 41.0171ZM166.34 69.1729L170.817 73.9069L170.425 74.1597L170.525 74.0073L169.442 74.7804L169.237 74.9265L168.939 75.1187L168.951 75.1308L159.979 81.533L160.033 81.431L158.951 82.2663L158.674 82.4642L158.683 82.4736L156.611 84.0734L152.573 79.818L160.864 73.4074L166.34 69.1729ZM81.0801 185.816L88.4298 172.306L103.216 160.935L100.487 168.485L99.2732 171.842L87.98 180.516L81.0801 185.816ZM119.865 154.797L120.143 149.417L120.274 146.875L136.1 132.913L139.197 137.733L134.924 141.505L119.865 154.797ZM159.026 119.093L158.096 118.864L152.516 117.487L166.997 103.001L176.696 101.383L168.757 109.34L159.026 119.093ZM45.3616 193.473L48.6684 196.85L48.2641 197.07L42.3767 199.542L45.3616 193.473ZM46.6835 209.01L60.3002 191.207L72.446 183.51L61.734 199.517L46.6835 209.01ZM115.043 187.616L99.9641 172.05L119.507 155.898L134.553 171.506L115.043 187.616ZM221.414 49.6004L215.662 53.0841L203.768 60.2868L210.924 49.9868L230.175 36.891L221.414 49.6004ZM231.102 35.5379L219.953 43.1221L211.62 48.7908L216.611 40.1315L237.176 24.8383L236.582 25.8852L231.102 35.5379ZM77.4842 215.2L62.4061 199.778L80.1075 187.303L91.4016 198.904L95.1979 202.804L77.4842 215.2ZM95.6861 202.449L80.5921 186.944L99.4953 172.425L101.391 174.382L114.573 187.989L95.6861 202.449ZM135.008 171.117L119.962 155.509L139.57 138.201L154.557 153.834L135.008 171.117ZM174.442 135.065L159.536 119.428L177.56 101.364L192.369 116.983L174.442 135.065ZM192.782 116.551L177.982 100.941L178.433 100.488L178.382 100.496L194.419 83.2848L209.117 98.8595L192.782 116.551ZM224.19 81.1527L223.985 80.934L209.631 65.651L210.448 64.7029L210.297 64.7798L221.644 50.2816L236.087 65.7212L224.19 81.1527ZM151.851 79.2971L137.578 91.1118L124.02 76.8791L138.318 65.0394L151.851 79.2971ZM108.764 90.2868L122.361 104.504L108.322 117.623L94.6701 103.409L108.764 90.2868ZM94.0165 131.811L81.4593 145.08L67.6633 130.822L80.2998 117.579L94.0165 131.811ZM69.3004 158.866L59.4029 171.069L58.265 169.901L45.4261 156.723L55.4151 144.57L69.3004 158.866ZM59.0333 171.546L50.8584 182.758L36.778 168.35L45.0563 157.199L59.0333 171.546ZM50.5132 183.26L44.2806 193.184L30.0991 178.705L36.4345 168.853L50.5132 183.26ZM30.6601 202.809L26.9516 202.376L26.2714 202.297L23.569 199.548L23.3707 195.392L30.6601 202.809ZM214.765 20.9383L220.062 26.6169L219.348 31.8811L219.282 32.0403L209.385 21.4408L214.765 20.9383ZM179.155 35.634L192.702 50.055L180.445 58.0007L166.919 43.6456L179.155 35.634ZM166.42 43.9865L179.947 58.3427L166.711 67.8041L153.192 53.502L166.42 43.9865ZM123.564 77.2671L137.123 91.5005L122.847 104.064L122.842 104.055L122.798 104.096L109.207 89.8858L123.564 77.2671ZM81.055 145.521L69.6891 158.409L58.2053 146.585L55.8046 144.113L67.258 131.263L81.055 145.521ZM43.9706 193.722L40.7711 200.216L38.8352 201.029L25.5821 187.523L29.7965 179.25L43.9706 193.722ZM20.2841 222.017L38.8452 201.673L47.3652 198.095L30.8728 217.649L22.4655 221.117L20.2841 222.017ZM45.9074 210.206L60.9167 200.739L60.804 200.907L61.9113 200.127L63.4205 201.671L76.9742 215.534L60.9502 225.53L45.9074 210.206ZM83.0366 212.481L94.4524 204.492L94.3902 204.606L95.2437 203.953L179.359 290.347L166.469 297.911L83.0366 212.481ZM172.055 138.566L174.863 135.915L174.869 135.917L174.984 135.8L175.373 135.433L175.354 135.428L186.381 124.303L270.249 212.577L256.433 227.006L172.055 138.566ZM208.663 21.5437L219.034 32.6493L216.889 37.8989L214.745 38.58L201.144 24.0351L208.663 21.5437ZM190.619 29.0048L204.195 43.4931L193.221 49.7351L179.677 35.317L190.619 29.0048ZM152.709 53.8614L163.472 65.2478L166.229 68.1642L152.319 78.9218L138.786 64.6647L152.709 53.8614ZM94.2386 103.822L107.891 118.037L94.4344 131.384L80.7189 117.152L94.2386 103.822ZM25.3556 188.145L38.1921 201.227L31.4729 202.783L23.3731 194.542L24.4649 191.019L25.3556 188.145ZM10.6309 224.967L18.3108 223.294L18.0418 223.589L19.0912 223.156L27.9587 232.138L33.8993 238.156L25.3775 239.886L10.6309 224.967ZM272.533 90.0875L242.555 57.9816L244.843 54.6017L318.486 133.543L318.397 139.206L272.533 90.0875ZM241.005 26.3989L238.505 23.709L239.097 22.6656L238.8 22.8866L242.052 14.6543L256.053 29.7411L252.606 38.8775L241.005 26.3989ZM256.162 28.9797L242.295 14.0381L242.639 13.1678L242.325 13.419L242.965 7.6672L256.756 22.5402L256.162 28.9797ZM108.351 89.8547L94.2561 102.978L94.2503 102.972L94.1539 103.067L88.9045 101.768L105.909 85.957L108.385 89.8125L108.345 89.8485L108.351 89.8547ZM34.5729 237.988L19.6879 222.909L30.0371 218.64L29.8134 218.905L30.9983 218.266L45.9405 233.439L34.5729 237.988ZM46.5254 233.181L31.5463 217.971L44.354 211.072L44.1862 211.291L45.3902 210.532L59.3534 224.756L60.4112 225.834L46.5254 233.181ZM131.004 306.957L55.1737 229.819L57.5926 228.54L95.3994 267.024L135.636 307.982L131.004 306.957ZM154.608 303.636L72.3337 219.609L75.9352 217.363L75.8264 217.527L82.5404 212.828L115.335 246.408L165.914 298.198L154.608 303.636ZM225.611 255.638L208.495 237.853L140.637 167.344L155.097 154.557L155.103 154.567L155.361 154.323L155.549 154.157L155.544 154.15L156.104 153.622L240.842 242.049L225.611 255.638ZM186.802 123.879L193.432 117.191L193.438 117.19L193.508 117.114L194.139 116.477L194.089 116.485L200.03 110.05L283.165 197.902L270.653 212.135L186.802 123.879ZM231.531 73.199L237.805 65.0833L315.833 148.515L311.232 158.238L231.531 73.199ZM316.3 129.167L317.574 131.689L245.186 54.0942L245.647 53.4131L316.3 129.167ZM234.734 1.09248L217.396 17.7931L214.812 20.2818L213.741 19.8397L214.251 20.3866L209.532 20.8269L228.064 1.8393L234.734 1.09248ZM223.983 5.16564L208.614 20.9127L208.117 20.959L208.214 21.063L203.541 22.6114L201.598 23.2553L218.033 5.23763L226.839 2.2397L223.983 5.16564ZM200.439 23.6394L200.07 23.7616L200.11 23.8042L191.795 27.7637L205.85 11.0997L216.603 5.91884L200.439 23.6394ZM190.488 28.3859L190.178 28.5337L190.2 28.5572L186.377 30.7623L180.347 34.2414L191.824 19.2334L204.327 11.9789L190.488 28.3859ZM179 35.018L178.726 35.1764L178.74 35.1918L167.524 42.5359L176.298 29.4337L190.317 20.2206L179 35.018ZM174.912 30.4293L166.243 43.3748L165.996 43.5365L166.006 43.5477L153.628 52.4527L159.611 41.4526L174.912 30.4293ZM158.436 42.3624L152.51 53.2568L152.288 53.4163L152.297 53.4251L142.934 60.6899L138.974 63.7629L142.134 55.0234L158.436 42.3624ZM123.618 70.3841L123.291 76.7069L123.146 76.8273L123.152 76.8341L108.84 89.4133L106.358 85.5495L123.618 70.3841ZM88.3872 102.256L93.6548 103.559L92.1521 105.041L80.3042 116.722L80.2978 116.716L80.1515 116.869L72.2017 118.195L88.3872 102.256ZM55.5707 135.549L66.2174 131.532L62.6209 135.567L55.3871 143.683L55.378 143.674L55.2053 143.884L52.4109 145.309L42.1789 150.527L55.5707 135.549ZM41.082 151.757L54.2562 145.039L45.0066 156.292L44.9947 156.28L44.8206 156.515L29.4937 165.79L41.082 151.757ZM28.3473 167.181L43.8792 157.783L36.355 167.917L36.3377 167.899L36.1676 168.164L18.7771 179.994L28.3473 167.181ZM0.91423 213.91L22.7653 195.247L22.9706 199.55L11.9455 209.555L1.00471 219.483L0.91423 213.91ZM257.162 21.9578L255.627 18.868L255.146 17.8992L255.686 17.409L257.715 21.4822L257.162 21.9578ZM254.796 17.41L254.035 16.5886L255.214 17.0302L254.796 17.41ZM15.0075 235.573L14.9651 235.612L14.9622 235.528L15.0075 235.573ZM15.4281 235.998L18.3152 238.916L18.5659 239.169L17.996 239.722L15.1019 236.296L15.4281 235.998Z" fill="white"/>
</svg>
