<svg width="1920" height="100" viewBox="0 0 1920 100" fill="none" xmlns="http://www.w3.org/2000/svg">
<g clip-path="url(#clip0_555_366)">
<mask id="path-1-inside-1_555_366" fill="white">
<path d="M1671.26 7.04311L1652.09 86.8571C1652.09 86.8571 1653.42 65.1629 1647.69 50.9572C1637.19 24.906 1643.47 12.2323 1643.47 12.2323C1636.53 15.9874 1629.5 65.0254 1612.05 80.9953C1605.84 59.7539 1603.35 38.9306 1606.2 18.7136C1597.76 36.6445 1586.5 54.1503 1584.32 73.0241C1580.23 59.0338 1577.3 45.131 1566.7 30.6518C1567.12 46.9569 1576.21 61.8914 1559.67 70.0377L1559.43 69.6466C1551.51 57.0188 1543.59 44.3898 1542.24 28.7984C1530.45 44.2711 1532.07 62.7693 1528.41 80.0774C1523.74 63.0544 1519.94 15.5871 1502.41 0.497512C1504.13 31.7571 1504.55 56.5089 1487.22 69.0873C1470.1 59.4145 1468.62 40.4638 1468.22 22.4804C1456.13 37.9251 1448.02 55.5209 1447.24 77.091C1442.46 59.0939 1436.9 41.0966 1423.19 23.1007C1426.38 45.1835 1423.9 62.3566 1412.37 71.666C1404.74 57.772 1398.23 43.878 1396.23 29.9815C1386.02 50.6861 1390.52 66.1341 1388.46 85.9183C1388.46 85.9183 1389.29 65.1629 1383.57 50.9572C1373.07 24.906 1379.35 12.2323 1379.35 12.2323C1372.4 15.9874 1365.37 65.0254 1347.93 80.9953C1341.72 59.7539 1339.22 38.9306 1342.08 18.7136C1333.64 36.6445 1322.38 54.1503 1320.2 73.0241C1316.1 59.0338 1313.18 45.131 1302.58 30.6518C1303 46.9569 1312.09 61.8914 1295.55 70.0377L1295.3 69.6466C1287.39 57.0188 1279.47 44.3898 1278.11 28.7984C1266.32 44.2711 1267.95 62.7693 1264.28 80.0774C1259.62 63.0544 1255.82 15.5871 1238.29 0.497512C1240.01 31.7571 1240.43 56.5089 1223.1 69.0873C1205.98 59.4145 1204.5 40.4638 1204.1 22.4804C1192.01 37.9251 1183.89 55.5209 1183.12 77.091C1178.34 59.0939 1172.77 41.0966 1159.07 23.1007C1162.25 45.1835 1159.78 62.3566 1148.25 71.666C1140.62 57.772 1134.11 43.878 1132.11 29.9815C1121.91 50.6637 1124.89 69.856 1122.85 89.6176C1122.92 88.3215 1124.02 64.7688 1118.45 50.9572C1107.95 24.906 1114.23 12.2323 1114.23 12.2323C1107.29 15.9874 1100.26 65.0254 1082.81 80.9953C1076.6 59.7539 1074.11 38.9306 1076.96 18.7136C1068.52 36.6445 1057.26 54.1503 1055.08 73.0241C1050.98 59.0338 1048.06 45.131 1037.46 30.6518C1037.88 46.9569 1046.97 61.8914 1030.43 70.0377L1030.19 69.6468C1022.27 57.019 1014.35 44.3899 1013 28.7984C1001.21 44.2711 1002.83 62.7693 999.168 80.0774C994.503 63.0544 969.5 30.6518 973.17 0.497512C957.984 14.4279 975.31 56.5089 957.984 69.0873C940.859 59.4145 939.38 40.4638 938.984 22.4804C926.895 37.9251 918.778 55.5209 918.002 77.091C913.221 59.0939 907.655 41.0966 893.952 23.1007C897.138 45.1835 894.664 62.3566 883.13 71.666C875.503 57.772 868.995 43.878 866.99 29.9815C856.781 50.6861 859.785 69.8977 857.731 89.6819C857.731 89.6819 859.059 65.1629 853.334 50.9572C842.837 24.906 849.117 12.2323 849.117 12.2323C842.171 15.9874 835.139 65.0254 817.697 80.9953C811.486 59.7539 808.991 38.9306 811.843 18.7136C803.404 36.6445 792.143 54.1503 789.967 73.0241C785.868 59.0338 782.946 45.131 772.343 30.6518C772.764 46.9569 781.854 61.8914 765.316 70.0377L765.072 69.6474C757.153 57.0193 749.233 44.3901 747.88 28.7984C736.09 44.2711 737.713 62.7693 734.052 80.0774C729.387 63.0544 714 50.9572 708.053 0.497512C701 34.3284 710.194 56.5089 692.867 69.0873C675.742 59.4145 674.263 40.4638 673.867 22.4804C661.778 37.9251 653.661 55.5209 652.885 77.091C648.104 59.0939 642.538 41.0966 628.835 23.1007C632.021 45.1835 629.547 62.3566 618.013 71.666C610.387 57.772 603.878 43.878 601.873 29.9815C591.664 50.6861 594.668 69.8977 592.614 89.6819C592.614 89.6819 593.942 65.1629 588.217 50.9572C577.72 24.906 584 12.2323 584 12.2323C577.054 15.9874 570.023 65.0254 552.58 80.9953C546.37 59.7539 543.875 38.9306 546.726 18.7136C538.288 36.6445 527.026 54.1503 524.851 73.0241C520.752 59.0338 517.83 45.131 507.226 30.6518C507.647 46.9569 516.737 61.8914 500.2 70.0377L499.956 69.6486C492.037 57.0201 484.117 44.3906 482.763 28.7984C470.974 44.2711 472.597 62.7693 468.936 80.0774C464.27 63.0544 442 18.7136 449 0C427.751 18.7136 445.078 56.5089 427.751 69.0873C410.626 59.4145 409.147 40.4638 408.752 22.4804C396.662 37.9251 388.545 55.5209 387.769 77.091C382.988 59.0939 382.203 40.4763 368.5 22.4804C371.686 44.5632 364.431 62.3566 352.898 71.666C345.271 57.772 338.762 43.878 336.758 29.9815C326.548 50.6861 329.552 69.8977 327.498 89.6819C327.498 89.6819 328.826 65.1629 323.102 50.9572C312.604 24.906 318.885 12.2323 318.885 12.2323C311.939 15.9874 304.908 65.0254 287.465 80.9953C281.255 59.7539 278.76 38.9306 281.612 18.7136C273.173 36.6445 261.912 54.1503 259.736 73.0241C255.638 59.0338 252.716 45.131 242.112 30.6518C242.533 46.9569 251.623 61.8914 235.086 70.0377L234.841 69.6469C226.922 57.019 219.003 44.3899 217.649 28.7984C205.86 44.2711 207.483 62.7693 203.821 80.0774C199.156 63.0544 189.178 31.3433 159.5 27.3632C165.5 35.8209 170 36.3184 162.637 69.0873C145.512 59.4145 144.033 40.4638 143.637 22.4804C131.547 37.9251 123.43 55.5209 122.654 77.091C117.873 59.0939 112.308 41.0966 98.6047 23.1007C101.791 45.1835 99.3165 62.3566 87.7829 71.666C80.1562 57.772 73.647 43.878 71.6428 29.9815C62.9328 47.6453 63.8211 64.4529 63 81.2259C62.5318 73.4045 60.3734 61.6255 56.9223 53.061C46.4248 27.0098 53.949 12.2326 53.949 12.2326C47.003 15.9878 39.9712 65.0255 22.5286 80.9955C16.3181 59.7541 13.8229 38.9308 16.6745 18.7139C8.23592 36.6447 2.17547 44.5168 0 63.3906V100H1920V66.2067C1920 66.2067 1913.21 35.1516 1906.95 29.9815C1904.94 43.878 1898.43 57.772 1890.8 71.666C1879.26 62.3566 1876.78 45.1835 1879.97 23.1007C1866.26 41.0966 1860.69 59.0939 1855.9 77.091C1855.13 55.5209 1847 37.9251 1834.9 22.4804C1834.51 40.4638 1833.03 59.4145 1815.89 69.0873C1798.55 56.5089 1798.97 31.7571 1800.69 0.497512C1783.15 15.5871 1779.35 63.0545 1774.68 80.0774C1771.01 62.7693 1772.64 44.2711 1760.84 28.7984C1759.49 44.3893 1751.56 57.018 1743.64 69.6454L1743.64 69.6464L1743.39 70.0377C1726.84 61.8914 1735.94 46.9569 1736.36 30.6518C1725.75 45.131 1722.83 59.0338 1718.72 73.0241C1716.55 54.1503 1705.28 36.6445 1696.83 18.7136C1699.69 38.9306 1697.19 59.7539 1690.98 80.9953C1673.52 65.0254 1674.99 33.9607 1671.26 7.04311Z"/>
</mask>
<path d="M1122.85 89.6176L1123.35 89.6438L1122.36 89.5657L1122.85 89.6176ZM1123.35 89.6996L1123.35 89.6438L1122.35 89.5914L1122.35 89.6472L1123.35 89.6996ZM1122.36 89.5657L1122.35 89.63L1123.34 89.7338L1123.35 89.6695L1122.36 89.5657ZM1652.09 86.8571L1651.09 86.7962L1653.06 87.0905L1652.09 86.8571ZM1671.26 7.04311L1672.25 6.9058L1670.28 6.80964L1671.26 7.04311ZM1690.98 80.9953L1690.3 81.7331L1691.49 82.8165L1691.94 81.2762L1690.98 80.9953ZM1696.83 18.7136L1697.74 18.2876L1695.84 18.8534L1696.83 18.7136ZM1718.72 73.0241L1717.73 73.1387L1719.68 73.3054L1718.72 73.0241ZM1736.36 30.6518L1737.36 30.6776L1737.44 27.4832L1735.55 30.0607L1736.36 30.6518ZM1743.39 70.0377L1742.95 70.9349L1743.76 71.3332L1744.24 70.5695L1743.39 70.0377ZM1760.84 28.7984L1761.64 28.1921L1760.07 26.1361L1759.85 28.7119L1760.84 28.7984ZM1774.68 80.0774L1773.7 80.2845L1775.64 80.3419L1774.68 80.0774ZM1800.69 0.497512L1801.69 0.552611L1801.82 -1.79177L1800.04 -0.260591L1800.69 0.497512ZM1815.89 69.0873L1815.3 69.8967L1815.82 70.2737L1816.38 69.9581L1815.89 69.0873ZM1834.9 22.4804L1835.69 21.8638L1833.97 19.661L1833.91 22.4584L1834.9 22.4804ZM1855.9 77.091L1854.9 77.127L1856.87 77.3479L1855.9 77.091ZM1879.97 23.1007L1880.96 23.2436L1881.51 19.4291L1879.17 22.4947L1879.97 23.1007ZM1890.8 71.666L1890.17 72.4443L1891.1 73.194L1891.67 72.1474L1890.8 71.666ZM1906.95 29.9815L1907.59 29.2102L1906.21 28.0777L1905.96 29.8386L1906.95 29.9815ZM1643.47 12.2323L1644.37 12.6763L1645.77 9.8554L1643 11.3526L1643.47 12.2323ZM1612.05 80.9953L1611.09 81.2759L1611.54 82.8173L1612.73 81.7329L1612.05 80.9953ZM1606.2 18.7136L1607.19 18.8533L1605.29 18.2878L1606.2 18.7136ZM1584.32 73.0241L1583.36 73.3053L1585.32 73.1386L1584.32 73.0241ZM1566.7 30.6518L1567.51 30.0609L1565.62 27.4814L1565.7 30.6776L1566.7 30.6518ZM1559.67 70.0377L1558.83 70.5691L1559.31 71.3335L1560.12 70.9348L1559.67 70.0377ZM1542.24 28.7984L1543.23 28.7119L1543.01 26.1346L1541.44 28.1924L1542.24 28.7984ZM1528.41 80.0774L1527.44 80.3417L1529.39 80.2844L1528.41 80.0774ZM1502.41 0.497512L1503.06 -0.260371L1501.28 -1.79278L1501.41 0.552572L1502.41 0.497512ZM1487.22 69.0873L1486.73 69.958L1487.29 70.2739L1487.81 69.8965L1487.22 69.0873ZM1468.22 22.4804L1469.22 22.4584L1469.16 19.6595L1467.44 21.864L1468.22 22.4804ZM1447.24 77.091L1446.28 77.3478L1448.24 77.127L1447.24 77.091ZM1423.19 23.1007L1423.99 22.4949L1421.65 19.4272L1422.2 23.2435L1423.19 23.1007ZM1412.37 71.666L1411.49 72.1472L1412.07 73.1946L1413 72.4441L1412.37 71.666ZM1396.23 29.9815L1397.22 29.8387L1396.76 26.6467L1395.33 29.5392L1396.23 29.9815ZM1388.46 85.9183L1387.47 85.8785L1389.46 86.0216L1388.46 85.9183ZM1647.69 50.9572L1648.62 50.5834L1647.69 50.9572ZM1379.35 12.2323L1380.25 12.6763L1381.64 9.8554L1378.87 11.3526L1379.35 12.2323ZM1347.93 80.9953L1346.97 81.2759L1347.42 82.8173L1348.61 81.7329L1347.93 80.9953ZM1342.08 18.7136L1343.07 18.8533L1341.17 18.2878L1342.08 18.7136ZM1320.2 73.0241L1319.24 73.3053L1321.19 73.1386L1320.2 73.0241ZM1302.58 30.6518L1303.38 30.0609L1301.49 27.4814L1301.58 30.6776L1302.58 30.6518ZM1295.55 70.0377L1294.7 70.5691L1295.18 71.3335L1295.99 70.9348L1295.55 70.0377ZM1278.11 28.7984L1279.11 28.7119L1278.88 26.1346L1277.32 28.1924L1278.11 28.7984ZM1264.28 80.0774L1263.32 80.3417L1265.26 80.2844L1264.28 80.0774ZM1238.29 0.497512L1238.94 -0.260371L1237.16 -1.79278L1237.29 0.552572L1238.29 0.497512ZM1223.1 69.0873L1222.61 69.958L1223.17 70.2739L1223.69 69.8965L1223.1 69.0873ZM1204.1 22.4804L1205.1 22.4584L1205.04 19.6595L1203.31 21.864L1204.1 22.4804ZM1183.12 77.091L1182.15 77.3478L1184.12 77.127L1183.12 77.091ZM1159.07 23.1007L1159.86 22.4949L1157.53 19.4272L1158.08 23.2435L1159.07 23.1007ZM1148.25 71.666L1147.37 72.1472L1147.94 73.1946L1148.87 72.4441L1148.25 71.666ZM1132.11 29.9815L1133.1 29.8387L1132.64 26.6467L1131.21 29.5392L1132.11 29.9815ZM1383.57 50.9572L1384.49 50.5834L1383.57 50.9572ZM1114.23 12.2323L1115.13 12.6763L1116.53 9.8554L1113.76 11.3526L1114.23 12.2323ZM1082.81 80.9953L1081.85 81.2759L1082.3 82.8173L1083.49 81.7329L1082.81 80.9953ZM1076.96 18.7136L1077.95 18.8533L1076.05 18.2878L1076.96 18.7136ZM1055.08 73.0241L1054.12 73.3053L1056.08 73.1386L1055.08 73.0241ZM1037.46 30.6518L1038.27 30.0609L1036.38 27.4814L1036.46 30.6776L1037.46 30.6518ZM1030.43 70.0377L1029.59 70.5688L1030.06 71.3337L1030.87 70.9348L1030.43 70.0377ZM1013 28.7984L1013.99 28.7119L1013.77 26.1346L1012.2 28.1924L1013 28.7984ZM999.168 80.0774L998.204 80.3417L1000.15 80.2843L999.168 80.0774ZM973.17 0.497512L974.162 0.618322L974.49 -2.07029L972.494 -0.239395L973.17 0.497512ZM957.984 69.0873L957.492 69.958L958.052 70.2739L958.572 69.8965L957.984 69.0873ZM938.984 22.4804L939.984 22.4584L939.922 19.6595L938.197 21.864L938.984 22.4804ZM918.002 77.091L917.035 77.3478L919.001 77.127L918.002 77.091ZM893.952 23.1007L894.748 22.4949L892.412 19.4272L892.963 23.2435L893.952 23.1007ZM883.13 71.666L882.254 72.1472L882.828 73.1946L883.758 72.4441L883.13 71.666ZM866.99 29.9815L867.98 29.8387L867.52 26.6467L866.093 29.5392L866.99 29.9815ZM857.731 89.6819L856.732 89.6278L858.725 89.7852L857.731 89.6819ZM1118.45 50.9572L1119.38 50.5834L1118.45 50.9572ZM849.117 12.2323L850.013 12.6763L851.411 9.85539L848.642 11.3526L849.117 12.2323ZM817.697 80.9953L816.737 81.2759L817.188 82.8173L818.372 81.7329L817.697 80.9953ZM811.843 18.7136L812.833 18.8533L810.938 18.2878L811.843 18.7136ZM789.967 73.0241L789.008 73.3053L790.961 73.1386L789.967 73.0241ZM772.343 30.6518L773.15 30.0609L771.261 27.4815L771.343 30.6776L772.343 30.6518ZM765.316 70.0377L764.469 70.569L764.949 71.3335L765.758 70.9348L765.316 70.0377ZM747.88 28.7984L748.876 28.7119L748.652 26.1346L747.084 28.1924L747.88 28.7984ZM734.052 80.0774L733.087 80.3417L735.03 80.2843L734.052 80.0774ZM708.053 0.497512L709.046 0.380468L707.074 0.293419L708.053 0.497512ZM692.867 69.0873L692.376 69.958L692.935 70.2739L693.455 69.8965L692.867 69.0873ZM673.867 22.4804L674.867 22.4584L674.806 19.6595L673.08 21.864L673.867 22.4804ZM652.885 77.091L651.918 77.3478L653.884 77.127L652.885 77.091ZM628.835 23.1007L629.631 22.4949L627.295 19.4272L627.846 23.2435L628.835 23.1007ZM618.013 71.666L617.137 72.1472L617.712 73.1946L618.642 72.4441L618.013 71.666ZM601.873 29.9815L602.863 29.8387L602.403 26.6467L600.977 29.5392L601.873 29.9815ZM592.614 89.6819L591.615 89.6278L593.609 89.7852L592.614 89.6819ZM853.334 50.9572L854.262 50.5834L853.334 50.9572ZM584 12.2323L584.896 12.6763L586.294 9.85539L583.525 11.3526L584 12.2323ZM552.58 80.9953L551.62 81.2759L552.071 82.8173L553.256 81.7329L552.58 80.9953ZM546.726 18.7136L547.716 18.8533L545.821 18.2878L546.726 18.7136ZM524.851 73.0241L523.891 73.3053L525.844 73.1386L524.851 73.0241ZM507.226 30.6518L508.033 30.0609L506.144 27.4815L506.227 30.6776L507.226 30.6518ZM500.2 70.0377L499.353 70.5689L499.832 71.3336L500.642 70.9348L500.2 70.0377ZM482.763 28.7984L483.759 28.7119L483.536 26.1346L481.968 28.1924L482.763 28.7984ZM468.936 80.0774L467.971 80.3417L469.914 80.2843L468.936 80.0774ZM449 0L449.937 0.35035L448.339 -0.750452L449 0ZM427.751 69.0873L427.26 69.958L427.819 70.2739L428.339 69.8965L427.751 69.0873ZM408.752 22.4804L409.751 22.4584L409.69 19.6595L407.964 21.864L408.752 22.4804ZM387.769 77.091L386.802 77.3478L388.768 77.127L387.769 77.091ZM368.5 22.4804L369.296 21.8746L366.96 18.8068L367.51 22.6232L368.5 22.4804ZM352.898 71.666L352.021 72.1472L352.596 73.1946L353.526 72.4441L352.898 71.666ZM336.758 29.9815L337.748 29.8387L337.287 26.6467L335.861 29.5392L336.758 29.9815ZM327.498 89.6819L326.5 89.6278L328.493 89.7852L327.498 89.6819ZM588.217 50.9572L589.145 50.5834L588.217 50.9572ZM318.885 12.2323L319.781 12.6763L321.179 9.85536L318.409 11.3526L318.885 12.2323ZM287.465 80.9953L286.506 81.2759L286.956 82.8173L288.141 81.7329L287.465 80.9953ZM281.612 18.7136L282.602 18.8533L280.707 18.2878L281.612 18.7136ZM259.736 73.0241L258.777 73.3053L260.73 73.1386L259.736 73.0241ZM242.112 30.6518L242.919 30.0609L241.03 27.4815L241.112 30.6776L242.112 30.6518ZM235.086 70.0377L234.239 70.5689L234.718 71.3336L235.528 70.9348L235.086 70.0377ZM217.649 28.7984L218.645 28.7119L218.421 26.1346L216.853 28.1924L217.649 28.7984ZM203.821 80.0774L202.857 80.3417L204.799 80.2843L203.821 80.0774ZM159.5 27.3632L159.633 26.3721L157.354 26.0664L158.684 27.9418L159.5 27.3632ZM162.637 69.0873L162.145 69.958L163.317 70.6201L163.613 69.3065L162.637 69.0873ZM143.637 22.4804L144.637 22.4584L144.575 19.6595L142.849 21.864L143.637 22.4804ZM122.654 77.091L121.688 77.3478L123.653 77.127L122.654 77.091ZM98.6047 23.1007L99.4003 22.4949L97.0644 19.4272L97.615 23.2435L98.6047 23.1007ZM87.7829 71.666L86.9062 72.1472L87.4812 73.1946L88.4109 72.4441L87.7829 71.666ZM71.6428 29.9815L72.6326 29.8387L72.1722 26.6467L70.7459 29.5392L71.6428 29.9815ZM323.102 50.9572L322.174 51.3309L323.102 50.9572ZM53.949 12.2326L54.8401 12.6864L56.296 9.82698L53.4734 11.353L53.949 12.2326ZM22.5286 80.9955L21.5688 81.2761L22.0195 82.8175L23.2039 81.733L22.5286 80.9955ZM16.6745 18.7139L17.6647 18.8535L15.7697 18.2881L16.6745 18.7139ZM0 63.3906L-0.993423 63.2761L-1 63.3331V63.3906H0ZM56.9223 53.061L55.9947 53.4347L56.9223 53.061ZM0 100H-1V101H0V100ZM63 81.2259L62.0018 81.2857L63.9988 81.2748L63 81.2259ZM1920 100V101H1921V100H1920ZM1920 66.2067H1921V66.0987L1920.98 65.9932L1920 66.2067ZM1743.64 69.6464L1742.86 69.0217L1742.82 69.0663L1742.79 69.1146L1743.64 69.6464ZM1743.64 69.6454L1744.42 70.2701L1744.46 70.2254L1744.49 70.177L1743.64 69.6454ZM234.841 69.6469L235.688 69.1157V69.1156L234.841 69.6469ZM499.956 69.6486L500.803 69.1173L500.803 69.1173L499.956 69.6486ZM765.072 69.6474L764.224 70.1786L764.224 70.1787L765.072 69.6474ZM1030.19 69.6468L1031.04 69.1157L1031.03 69.1156L1030.19 69.6468ZM1122.85 89.6176L1121.86 89.5673L1123.85 89.7203L1122.85 89.6176ZM1295.3 69.6466L1294.46 70.1778L1294.46 70.178L1295.3 69.6466ZM1559.43 69.6466L1558.58 70.1778L1558.58 70.178L1559.43 69.6466ZM1653.06 87.0905L1672.23 7.27659L1670.28 6.80964L1651.12 86.6236L1653.06 87.0905ZM1670.27 7.18043C1671.19 13.8827 1671.8 20.8431 1672.46 27.8028C1673.12 34.7501 1673.84 41.6902 1674.98 48.2958C1677.28 61.4849 1681.32 73.5189 1690.3 81.7331L1691.65 80.2576C1683.17 72.5019 1679.23 61.0185 1676.96 47.9533C1675.82 41.4318 1675.11 34.5606 1674.45 27.6136C1673.79 20.6791 1673.18 13.6623 1672.25 6.9058L1670.27 7.18043ZM1691.94 81.2762C1698.18 59.9373 1700.7 38.9669 1697.82 18.5739L1695.84 18.8534C1698.67 38.8942 1696.2 59.5705 1690.02 80.7145L1691.94 81.2762ZM1695.93 19.1397C1698.05 23.64 1700.34 28.1118 1702.62 32.5652C1704.9 37.0242 1707.16 41.4665 1709.22 45.9345C1713.35 54.8734 1716.66 63.8562 1717.73 73.1387L1719.72 72.9095C1718.61 63.3182 1715.2 54.1112 1711.04 45.0961C1708.96 40.587 1706.68 36.1112 1704.4 31.655C1702.12 27.1932 1699.84 22.7527 1697.74 18.2876L1695.93 19.1397ZM1719.68 73.3054C1723.81 59.2423 1726.69 45.5469 1737.17 31.2429L1735.55 30.0607C1724.82 44.7152 1721.85 58.8254 1717.77 72.7428L1719.68 73.3054ZM1735.36 30.6259C1735.26 34.6219 1734.62 38.5476 1733.97 42.3704C1733.32 46.1651 1732.65 49.8903 1732.51 53.3663C1732.38 56.8565 1732.79 60.1913 1734.37 63.2041C1735.95 66.2302 1738.67 68.8256 1742.95 70.9349L1743.83 69.1405C1739.84 67.1767 1737.49 64.8505 1736.14 62.2756C1734.78 59.6875 1734.39 56.7422 1734.51 53.4423C1734.64 50.1283 1735.28 46.5535 1735.94 42.7076C1736.59 38.8898 1737.25 34.8343 1737.36 30.6776L1735.36 30.6259ZM1760.05 29.4047C1765.81 36.9611 1768.31 45.276 1769.82 53.9221C1770.58 58.2521 1771.09 62.6389 1771.64 67.0622C1772.18 71.4734 1772.77 75.912 1773.7 80.2845L1775.66 79.8703C1774.75 75.5888 1774.17 71.2246 1773.62 66.8159C1773.08 62.4194 1772.56 57.9693 1771.79 53.5772C1770.25 44.779 1767.67 36.1085 1761.64 28.1921L1760.05 29.4047ZM1775.64 80.3419C1776.82 76.0332 1777.95 69.8215 1779.23 62.7624C1780.52 55.6801 1781.98 47.7032 1783.83 39.791C1785.69 31.8763 1787.94 24.0578 1790.81 17.294C1793.68 10.5168 1797.13 4.88281 1801.35 1.25562L1800.04 -0.260591C1795.49 3.65698 1791.89 9.61503 1788.97 16.5139C1786.04 23.4261 1783.76 31.3677 1781.89 39.3339C1780.02 47.3026 1778.55 55.3274 1777.26 62.4046C1775.97 69.5048 1774.87 75.6102 1773.71 79.8129L1775.64 80.3419ZM1799.7 0.442414C1798.83 16.0553 1798.29 30.1643 1800.16 41.9543C1802.03 53.7727 1806.34 63.3959 1815.3 69.8967L1816.48 68.2779C1808.1 62.2003 1803.96 53.1584 1802.13 41.6415C1800.3 30.096 1800.83 16.1993 1801.69 0.552611L1799.7 0.442414ZM1816.38 69.9581C1834.07 59.9721 1835.51 40.4043 1835.9 22.5024L1833.91 22.4584C1833.51 40.5233 1831.98 58.8569 1815.4 68.2164L1816.38 69.9581ZM1834.12 23.0971C1846.11 38.4139 1854.14 55.8121 1854.9 77.127L1856.9 77.055C1856.12 55.2298 1847.89 37.4364 1835.69 21.8638L1834.12 23.0971ZM1856.87 77.3479C1861.65 59.378 1867.18 41.54 1880.76 23.7068L1879.17 22.4947C1865.34 40.6533 1859.73 58.8097 1854.94 76.8341L1856.87 77.3479ZM1878.98 22.9579C1875.78 45.0857 1878.18 62.7717 1890.17 72.4443L1891.43 70.8876C1880.33 61.9416 1877.78 45.2814 1880.96 23.2436L1878.98 22.9579ZM1891.67 72.1474C1899.31 58.2383 1905.91 44.2105 1907.94 30.1243L1905.96 29.8386C1903.98 43.5454 1897.54 57.3057 1889.92 71.1845L1891.67 72.1474ZM1643 11.3526C1642.39 11.6808 1641.86 12.2132 1641.38 12.8388C1640.89 13.4722 1640.42 14.2559 1639.96 15.1525C1639.03 16.9444 1638.1 19.2807 1637.15 21.9803C1635.23 27.3678 1633.14 34.402 1630.75 41.7229C1628.35 49.0757 1625.63 56.7735 1622.44 63.619C1619.24 70.4793 1615.59 76.3977 1611.38 80.2578L1612.73 81.7329C1617.23 77.608 1621.01 71.4079 1624.25 64.4647C1627.5 57.5067 1630.24 49.716 1632.65 42.3436C1635.07 34.9393 1637.13 28.0119 1639.03 22.6496C1639.98 19.9743 1640.87 17.7386 1641.73 16.0677C1642.16 15.2328 1642.57 14.5623 1642.96 14.0571C1643.36 13.544 1643.69 13.2532 1643.95 13.112L1643 11.3526ZM1613.01 80.7147C1606.83 59.5706 1604.36 38.8942 1607.19 18.8533L1605.21 18.574C1602.33 38.9669 1604.86 59.9372 1611.09 81.2759L1613.01 80.7147ZM1605.29 18.2878C1603.19 22.7529 1600.92 27.1935 1598.64 31.6553C1596.36 36.1114 1594.09 40.5872 1592.01 45.0963C1587.85 54.1114 1584.44 63.3184 1583.33 72.9096L1585.32 73.1386C1586.39 63.856 1589.7 54.8732 1593.82 45.9342C1595.88 41.4663 1598.14 37.024 1600.42 32.5649C1602.69 28.1115 1604.99 23.6398 1607.1 19.1395L1605.29 18.2878ZM1585.28 72.743C1581.21 58.8256 1578.24 44.7154 1567.51 30.0609L1565.89 31.2426C1576.37 45.5467 1579.24 59.2421 1583.36 73.3053L1585.28 72.743ZM1565.7 30.6776C1565.81 34.8342 1566.47 38.8896 1567.12 42.7075C1567.78 46.5534 1568.42 50.1282 1568.55 53.4423C1568.67 56.7422 1568.28 59.6877 1566.92 62.2758C1565.57 64.8507 1563.22 67.1769 1559.23 69.1406L1560.12 70.9348C1564.4 68.8253 1567.11 66.2299 1568.69 63.2038C1570.27 60.1911 1570.68 56.8564 1570.55 53.3663C1570.41 49.8904 1569.74 46.1652 1569.09 42.3705C1568.44 38.5477 1567.8 34.6219 1567.7 30.626L1565.7 30.6776ZM1541.44 28.1924C1535.41 36.1087 1532.83 44.7792 1531.29 53.5774C1530.52 57.9694 1530.01 62.4195 1529.46 66.816C1528.92 71.2247 1528.34 75.5889 1527.43 79.8704L1529.39 80.2844C1530.31 75.9119 1530.9 71.4733 1531.45 67.0621C1532 62.6388 1532.5 58.252 1533.26 53.9219C1534.77 45.2758 1537.27 36.9608 1543.03 29.4045L1541.44 28.1924ZM1529.37 79.8131C1528.22 75.6103 1527.12 69.5049 1525.83 62.4046C1524.54 55.3275 1523.08 47.3027 1521.21 39.334C1519.34 31.3678 1517.06 23.4263 1514.13 16.5141C1511.21 9.61531 1507.61 3.65725 1503.06 -0.260371L1501.76 1.2554C1505.97 4.88255 1509.42 10.5165 1512.29 17.2937C1515.15 24.0576 1517.4 31.8761 1519.26 39.7908C1521.12 47.703 1522.57 55.68 1523.86 62.7622C1525.14 69.8214 1526.26 76.033 1527.44 80.3417L1529.37 79.8131ZM1501.41 0.552572C1502.27 16.1993 1502.8 30.0961 1500.97 41.6416C1499.15 53.1587 1495.01 62.2005 1486.64 68.278L1487.81 69.8965C1496.77 63.3956 1501.08 53.7724 1502.95 41.9541C1504.81 30.1642 1504.27 16.0553 1503.41 0.442453L1501.41 0.552572ZM1487.72 68.2166C1471.15 58.8572 1469.62 40.5236 1469.22 22.4584L1467.22 22.5024C1467.62 40.4041 1469.05 59.9718 1486.73 69.958L1487.72 68.2166ZM1467.44 21.864C1455.25 37.4367 1447.03 55.2301 1446.24 77.0551L1448.24 77.127C1449.01 55.8118 1457.02 38.4136 1469.01 23.0968L1467.44 21.864ZM1448.21 76.8343C1443.42 58.8099 1437.82 40.6535 1423.99 22.4949L1422.4 23.7066C1435.98 41.5397 1441.5 59.3778 1446.28 77.3478L1448.21 76.8343ZM1422.2 23.2435C1425.38 45.2815 1422.83 61.9418 1411.74 70.8878L1413 72.4441C1424.98 62.7714 1427.37 45.0856 1424.18 22.9579L1422.2 23.2435ZM1413.25 71.1848C1405.63 57.306 1399.2 43.5456 1397.22 29.8387L1395.24 30.1242C1397.27 44.2103 1403.86 58.238 1411.49 72.1472L1413.25 71.1848ZM1395.33 29.5392C1390.15 40.0508 1388.7 49.2345 1388.29 58.2493C1388.08 62.7374 1388.14 67.2064 1388.11 71.7374C1388.08 76.2819 1387.98 80.9182 1387.47 85.815L1389.46 86.0216C1389.98 81.0263 1390.08 76.3125 1390.11 71.7492C1390.14 67.1723 1390.08 62.7758 1390.29 58.3408C1390.69 49.5094 1392.1 40.6167 1397.13 30.4237L1395.33 29.5392ZM1652.09 86.8571C1653.09 86.918 1653.09 86.9177 1653.09 86.9174C1653.09 86.9172 1653.09 86.9168 1653.09 86.9164C1653.09 86.9155 1653.09 86.9144 1653.09 86.9128C1653.09 86.9098 1653.09 86.9055 1653.09 86.8998C1653.09 86.8885 1653.09 86.8721 1653.09 86.8505C1653.1 86.8074 1653.1 86.7439 1653.1 86.661C1653.11 86.4952 1653.12 86.2516 1653.14 85.9374C1653.16 85.309 1653.19 84.3977 1653.21 83.2608C1653.24 80.9875 1653.23 77.8083 1653.04 74.1809C1652.65 66.9508 1651.54 57.8425 1648.62 50.5834L1646.76 51.3309C1649.56 58.2776 1650.66 67.1191 1651.04 74.2876C1651.23 77.8595 1651.24 80.9917 1651.21 83.23C1651.19 84.3488 1651.16 85.2434 1651.14 85.8569C1651.13 86.1636 1651.11 86.4 1651.11 86.5589C1651.1 86.6384 1651.1 86.6985 1651.1 86.7383C1651.1 86.7582 1651.09 86.7731 1651.09 86.7828C1651.09 86.7876 1651.09 86.7912 1651.09 86.7934C1651.09 86.7945 1651.09 86.7953 1651.09 86.7958C1651.09 86.796 1651.09 86.7961 1651.09 86.7962C1651.09 86.7962 1651.09 86.7962 1652.09 86.8571ZM1648.62 50.5834C1643.42 37.677 1642.39 28.1364 1642.65 21.8657C1642.77 18.7286 1643.22 16.4031 1643.62 14.8769C1643.83 14.1136 1644.02 13.5496 1644.16 13.1834C1644.23 13.0003 1644.29 12.8666 1644.32 12.7821C1644.34 12.7399 1644.35 12.71 1644.36 12.6924C1644.37 12.6836 1644.37 12.6778 1644.37 12.6751C1644.37 12.6738 1644.37 12.6732 1644.37 12.6734C1644.37 12.6735 1644.37 12.6738 1644.37 12.6743C1644.37 12.6745 1644.37 12.675 1644.37 12.6752C1644.37 12.6757 1644.37 12.6763 1643.47 12.2323C1642.58 11.7883 1642.58 11.789 1642.58 11.7897C1642.58 11.7901 1642.58 11.7908 1642.58 11.7915C1642.58 11.7927 1642.58 11.7942 1642.57 11.7958C1642.57 11.7991 1642.57 11.8032 1642.57 11.808C1642.56 11.8178 1642.56 11.8306 1642.55 11.8465C1642.54 11.8785 1642.52 11.9229 1642.49 11.9799C1642.44 12.0938 1642.37 12.2578 1642.29 12.4721C1642.13 12.9008 1641.91 13.5304 1641.69 14.3623C1641.25 16.0266 1640.78 18.4977 1640.65 21.7854C1640.38 28.3643 1641.47 38.1862 1646.76 51.3309L1648.62 50.5834ZM1378.87 11.3526C1378.27 11.6808 1377.73 12.2132 1377.25 12.8388C1376.76 13.4722 1376.29 14.2559 1375.83 15.1525C1374.91 16.9444 1373.98 19.2807 1373.02 21.9803C1371.11 27.3678 1369.02 34.402 1366.63 41.7229C1364.23 49.0757 1361.51 56.7735 1358.32 63.619C1355.11 70.4793 1351.47 76.3977 1347.25 80.2578L1348.61 81.7329C1353.11 77.608 1356.89 71.4079 1360.13 64.4647C1363.37 57.5067 1366.12 49.716 1368.53 42.3436C1370.94 34.9393 1373 28.0119 1374.91 22.6496C1375.86 19.9743 1376.75 17.7386 1377.61 16.0677C1378.04 15.2328 1378.45 14.5623 1378.84 14.0571C1379.23 13.544 1379.56 13.2532 1379.83 13.112L1378.87 11.3526ZM1348.89 80.7147C1342.71 59.5706 1340.24 38.8943 1343.07 18.8533L1341.09 18.574C1338.21 38.9669 1340.73 59.9372 1346.97 81.2759L1348.89 80.7147ZM1341.17 18.2878C1339.07 22.7529 1336.79 27.1935 1334.51 31.6553C1332.24 36.1114 1329.96 40.5872 1327.88 45.0963C1323.72 54.1114 1320.31 63.3184 1319.21 72.9096L1321.19 73.1386C1322.26 63.856 1325.57 54.8732 1329.7 45.9342C1331.76 41.4663 1334.02 37.024 1336.29 32.5649C1338.57 28.1115 1340.86 23.6398 1342.98 19.1395L1341.17 18.2878ZM1321.16 72.743C1317.08 58.8255 1314.11 44.7154 1303.38 30.0609L1301.77 31.2426C1312.24 45.5467 1315.12 59.2421 1319.24 73.3053L1321.16 72.743ZM1301.58 30.6776C1301.68 34.8342 1302.34 38.8896 1303 42.7075C1303.65 46.5534 1304.3 50.1282 1304.42 53.4423C1304.55 56.7422 1304.15 59.6877 1302.8 62.2758C1301.45 64.8507 1299.09 67.1769 1295.11 69.1406L1295.99 70.9348C1300.27 68.8253 1302.98 66.2299 1304.57 63.2038C1306.15 60.1911 1306.55 56.8564 1306.42 53.3663C1306.29 49.8904 1305.62 46.1652 1304.97 42.3705C1304.31 38.5477 1303.68 34.6219 1303.58 30.626L1301.58 30.6776ZM1277.32 28.1924C1271.29 36.1087 1268.7 44.7792 1267.17 53.5774C1266.4 57.9694 1265.89 62.4195 1265.34 66.816C1264.79 71.2247 1264.21 75.5889 1263.31 79.8704L1265.26 80.2844C1266.19 75.9118 1266.78 71.4733 1267.32 67.0621C1267.87 62.6388 1268.38 58.252 1269.14 53.9219C1270.65 45.2758 1273.15 36.9608 1278.91 29.4045L1277.32 28.1924ZM1265.25 79.8131C1264.1 75.6103 1262.99 69.5049 1261.7 62.4046C1260.42 55.3275 1258.95 47.3027 1257.08 39.334C1255.21 31.3678 1252.93 23.4263 1250.01 16.5141C1247.09 9.6153 1243.49 3.65725 1238.94 -0.260371L1237.63 1.2554C1241.85 4.88255 1245.3 10.5165 1248.17 17.2937C1251.03 24.0576 1253.28 31.8761 1255.14 39.7908C1256.99 47.703 1258.45 55.68 1259.74 62.7622C1261.02 69.8214 1262.14 76.033 1263.32 80.3417L1265.25 79.8131ZM1237.29 0.552572C1238.15 16.1993 1238.68 30.0961 1236.85 41.6416C1235.03 53.1587 1230.88 62.2005 1222.51 68.278L1223.69 69.8965C1232.64 63.3956 1236.95 53.7724 1238.82 41.9541C1240.69 30.1642 1240.15 16.0553 1239.28 0.442453L1237.29 0.552572ZM1223.59 68.2166C1207.02 58.8572 1205.5 40.5236 1205.1 22.4584L1203.1 22.5024C1203.49 40.404 1204.93 59.9718 1222.61 69.958L1223.59 68.2166ZM1203.31 21.864C1191.12 37.4367 1182.9 55.2301 1182.12 77.0551L1184.12 77.127C1184.88 55.8118 1192.9 38.4136 1204.89 23.0968L1203.31 21.864ZM1184.08 76.8343C1179.3 58.8099 1173.69 40.6536 1159.86 22.4949L1158.27 23.7066C1171.85 41.5397 1177.38 59.3778 1182.15 77.3478L1184.08 76.8343ZM1158.08 23.2435C1161.26 45.2815 1158.7 61.9418 1147.62 70.8878L1148.87 72.4441C1160.86 62.7714 1163.25 45.0856 1160.06 22.9579L1158.08 23.2435ZM1149.12 71.1848C1141.5 57.306 1135.07 43.5456 1133.1 29.8387L1131.12 30.1242C1133.15 44.2103 1139.74 58.238 1147.37 72.1472L1149.12 71.1848ZM1388.46 85.9183C1389.46 85.9581 1389.46 85.9579 1389.46 85.9576C1389.46 85.9574 1389.46 85.957 1389.46 85.9566C1389.46 85.9558 1389.46 85.9546 1389.46 85.9532C1389.46 85.9502 1389.46 85.9461 1389.46 85.9406C1389.46 85.9298 1389.47 85.914 1389.47 85.8933C1389.47 85.852 1389.47 85.7912 1389.47 85.7117C1389.48 85.5528 1389.48 85.3193 1389.49 85.0179C1389.5 84.4152 1389.51 83.5407 1389.5 82.4478C1389.49 80.2627 1389.42 77.2013 1389.16 73.692C1388.65 66.6944 1387.42 57.8311 1384.49 50.5834L1382.64 51.3309C1385.44 58.289 1386.66 66.9062 1387.17 73.8377C1387.42 77.293 1387.49 80.3083 1387.5 82.4588C1387.51 83.5337 1387.5 84.3917 1387.49 84.9795C1387.48 85.2734 1387.48 85.4997 1387.47 85.6518C1387.47 85.7278 1387.47 85.7853 1387.47 85.8233C1387.47 85.8423 1387.47 85.8565 1387.47 85.8658C1387.47 85.8704 1387.47 85.8737 1387.47 85.8759C1387.47 85.8769 1387.47 85.8777 1387.47 85.8781C1387.47 85.8783 1387.47 85.8784 1387.47 85.8785C1387.47 85.8785 1387.47 85.8785 1388.46 85.9183ZM1384.49 50.5834C1379.29 37.677 1378.27 28.1364 1378.52 21.8657C1378.65 18.7286 1379.09 16.4031 1379.5 14.8769C1379.7 14.1136 1379.9 13.5496 1380.04 13.1834C1380.11 13.0003 1380.16 12.8666 1380.2 12.7821C1380.22 12.7399 1380.23 12.71 1380.24 12.6924C1380.24 12.6836 1380.25 12.6778 1380.25 12.6751C1380.25 12.6738 1380.25 12.6732 1380.25 12.6734C1380.25 12.6735 1380.25 12.6738 1380.25 12.6743C1380.25 12.6745 1380.25 12.675 1380.25 12.6752C1380.25 12.6757 1380.25 12.6763 1379.35 12.2323C1378.45 11.7883 1378.45 11.789 1378.45 11.7897C1378.45 11.7901 1378.45 11.7908 1378.45 11.7915C1378.45 11.7927 1378.45 11.7942 1378.45 11.7958C1378.45 11.7991 1378.45 11.8032 1378.44 11.808C1378.44 11.8178 1378.43 11.8306 1378.43 11.8465C1378.41 11.8785 1378.39 11.9229 1378.37 11.9799C1378.32 12.0938 1378.25 12.2578 1378.17 12.4721C1378 12.9008 1377.79 13.5304 1377.57 14.3623C1377.12 16.0266 1376.66 18.4977 1376.52 21.7854C1376.26 28.3643 1377.34 38.1862 1382.64 51.3309L1384.49 50.5834ZM1113.76 11.3526C1113.15 11.6808 1112.61 12.2132 1112.13 12.8388C1111.65 13.4722 1111.18 14.2559 1110.72 15.1525C1109.79 16.9444 1108.86 19.2807 1107.9 21.9803C1105.99 27.3678 1103.9 34.402 1101.51 41.7229C1099.11 49.0757 1096.39 56.7735 1093.2 63.619C1090 70.4793 1086.35 76.3977 1082.14 80.2578L1083.49 81.7329C1087.99 77.608 1091.77 71.4079 1095.01 64.4647C1098.26 57.5067 1101 49.716 1103.41 42.3436C1105.83 34.9393 1107.88 28.0119 1109.79 22.6496C1110.74 19.9743 1111.63 17.7386 1112.49 16.0677C1112.92 15.2328 1113.33 14.5623 1113.72 14.0571C1114.11 13.544 1114.45 13.2532 1114.71 13.112L1113.76 11.3526ZM1083.77 80.7147C1077.59 59.5706 1075.12 38.8943 1077.95 18.8533L1075.97 18.574C1073.09 38.9669 1075.61 59.9372 1081.85 81.2759L1083.77 80.7147ZM1076.05 18.2878C1073.95 22.7529 1071.67 27.1935 1069.4 31.6553C1067.12 36.1114 1064.84 40.5872 1062.76 45.0963C1058.6 54.1114 1055.2 63.3184 1054.09 72.9096L1056.08 73.1386C1057.15 63.856 1060.46 54.8732 1064.58 45.9342C1066.64 41.4663 1068.9 37.024 1071.18 32.5649C1073.45 28.1115 1075.75 23.6398 1077.86 19.1395L1076.05 18.2878ZM1056.04 72.743C1051.97 58.8256 1049 44.7154 1038.27 30.0609L1036.65 31.2426C1047.13 45.5467 1050 59.2421 1054.12 73.3053L1056.04 72.743ZM1036.46 30.6776C1036.57 34.8342 1037.23 38.8896 1037.88 42.7075C1038.54 46.5534 1039.18 50.1282 1039.31 53.4423C1039.43 56.7422 1039.04 59.6877 1037.68 62.2758C1036.33 64.8507 1033.98 67.1769 1029.99 69.1406L1030.87 70.9348C1035.16 68.8253 1037.87 66.2299 1039.45 63.2038C1041.03 60.1911 1041.44 56.8564 1041.3 53.3663C1041.17 49.8904 1040.5 46.1652 1039.85 42.3705C1039.2 38.5477 1038.56 34.6219 1038.46 30.626L1036.46 30.6776ZM1012.2 28.1924C1006.17 36.1088 1003.59 44.7792 1002.05 53.5774C1001.28 57.9694 1000.77 62.4195 1000.22 66.816C999.677 71.2247 999.096 75.5889 998.19 79.8704L1000.15 80.2843C1001.07 75.9118 1001.66 71.4733 1002.21 67.0621C1002.76 62.6388 1003.26 58.252 1004.02 53.9219C1005.53 45.2758 1008.03 36.9608 1013.79 29.4045L1012.2 28.1924ZM1000.13 79.8131C998.937 75.4489 996.454 70.1479 993.517 64.2558C990.563 58.3302 987.131 51.7748 983.954 44.7972C977.592 30.8292 972.363 15.4056 974.162 0.618322L972.177 0.376703C970.307 15.7437 975.745 31.5985 982.133 45.6262C985.331 52.6464 988.796 59.2681 991.727 65.1481C994.675 71.0614 997.067 76.1944 998.204 80.3417L1000.13 79.8131ZM972.494 -0.239395C968.438 3.4813 966.628 9.01002 965.835 15.1956C965.042 21.3861 965.247 28.4312 965.38 35.3187C965.514 42.2519 965.576 49.0287 964.546 54.8483C963.518 60.662 961.428 65.3515 957.397 68.278L958.572 69.8965C963.204 66.5338 965.445 61.2463 966.516 55.1968C967.585 49.1533 967.513 42.1807 967.38 35.28C967.245 28.3337 967.049 21.4605 967.819 15.4498C968.59 9.43418 970.309 4.4789 973.846 1.23442L972.494 -0.239395ZM958.476 68.2166C941.906 58.8572 940.381 40.5236 939.984 22.4584L937.984 22.5024C938.378 40.4041 939.813 59.9718 957.492 69.958L958.476 68.2166ZM938.197 21.864C926.007 37.4367 917.787 55.2301 917.002 77.0551L919.001 77.127C919.768 55.8118 927.782 38.4136 939.772 23.0968L938.197 21.864ZM918.968 76.8343C914.18 58.8099 908.575 40.6536 894.748 22.4949L893.157 23.7066C906.736 41.5397 912.261 59.3778 917.035 77.3478L918.968 76.8343ZM892.963 23.2435C896.142 45.2815 893.586 61.9418 882.502 70.8878L883.758 72.4441C895.742 62.7714 898.134 45.0856 894.942 22.9579L892.963 23.2435ZM884.007 71.1848C876.388 57.306 869.957 43.5456 867.98 29.8387L866.001 30.1242C868.032 44.2103 874.619 58.238 882.254 72.1472L884.007 71.1848ZM866.093 29.5392C860.913 40.0456 859.093 50.1618 858.305 60.0978C857.912 65.0578 857.775 69.9882 857.609 74.8849C857.442 79.7911 857.246 84.6705 856.736 89.5786L858.725 89.7852C859.243 84.8011 859.441 79.86 859.608 74.9528C859.775 70.0359 859.91 65.1599 860.299 60.2559C861.075 50.4639 862.858 40.622 867.887 30.4237L866.093 29.5392ZM1119.38 50.5834C1114.18 37.677 1113.15 28.1364 1113.4 21.8657C1113.53 18.7286 1113.98 16.4031 1114.38 14.8769C1114.59 14.1136 1114.78 13.5496 1114.92 13.1834C1114.99 13.0003 1115.04 12.8666 1115.08 12.7821C1115.1 12.7399 1115.11 12.71 1115.12 12.6924C1115.13 12.6836 1115.13 12.6778 1115.13 12.6751C1115.13 12.6738 1115.13 12.6732 1115.13 12.6734C1115.13 12.6735 1115.13 12.6738 1115.13 12.6743C1115.13 12.6745 1115.13 12.675 1115.13 12.6752C1115.13 12.6757 1115.13 12.6763 1114.23 12.2323C1113.34 11.7883 1113.34 11.789 1113.34 11.7897C1113.34 11.7901 1113.34 11.7908 1113.34 11.7915C1113.34 11.7927 1113.33 11.7942 1113.33 11.7958C1113.33 11.7991 1113.33 11.8032 1113.33 11.808C1113.32 11.8178 1113.32 11.8306 1113.31 11.8465C1113.29 11.8785 1113.27 11.9229 1113.25 11.9799C1113.2 12.0938 1113.13 12.2578 1113.05 12.4721C1112.89 12.9008 1112.67 13.5304 1112.45 14.3623C1112.01 16.0266 1111.54 18.4977 1111.41 21.7854C1111.14 28.3643 1112.23 38.1862 1117.52 51.3309L1119.38 50.5834ZM848.642 11.3526C848.035 11.6808 847.499 12.2132 847.018 12.8388C846.532 13.4722 846.061 14.2559 845.599 15.1525C844.677 16.9444 843.747 19.2807 842.788 21.9803C840.875 27.3678 838.782 34.402 836.393 41.7229C833.993 49.0757 831.276 56.7735 828.082 63.619C824.881 70.4793 821.238 76.3977 817.022 80.2578L818.372 81.7329C822.877 77.608 826.654 71.4079 829.894 64.4647C833.141 57.5067 835.887 49.716 838.294 42.3436C840.711 34.9393 842.769 28.0119 844.673 22.6496C845.623 19.9743 846.517 17.7386 847.377 16.0677C847.807 15.2328 848.216 14.5623 848.604 14.0571C848.998 13.544 849.332 13.2532 849.593 13.112L848.642 11.3526ZM818.657 80.7147C812.475 59.5706 810.006 38.8943 812.833 18.8533L810.853 18.574C807.976 38.9669 810.498 59.9372 816.737 81.2759L818.657 80.7147ZM810.938 18.2878C808.837 22.7529 806.559 27.1935 804.28 31.6553C802.004 36.1114 799.729 40.5872 797.648 45.0963C793.489 54.1114 790.079 63.3184 788.974 72.9096L790.961 73.1386C792.031 63.856 795.34 54.8732 799.464 45.9342C801.526 41.4663 803.784 37.024 806.061 32.5649C808.335 28.1115 810.63 23.6398 812.747 19.1395L810.938 18.2878ZM790.927 72.743C786.849 58.8255 783.882 44.7154 773.15 30.0609L771.536 31.2426C782.011 45.5467 784.887 59.2421 789.008 73.3053L790.927 72.743ZM771.343 30.6776C771.451 34.8342 772.11 38.8896 772.763 42.7075C773.42 46.5534 774.064 50.1282 774.19 53.4423C774.315 56.7422 773.92 59.6877 772.565 62.2758C771.216 64.8507 768.861 67.1769 764.875 69.1406L765.758 70.9348C770.041 68.8253 772.751 66.2299 774.336 63.2038C775.914 60.1911 776.321 56.8564 776.188 53.3663C776.056 49.8904 775.383 46.1652 774.734 42.3705C774.081 38.5477 773.446 34.6219 773.343 30.626L771.343 30.6776ZM747.084 28.1924C741.052 36.1087 738.472 44.7792 736.933 53.5774C736.164 57.9694 735.652 62.4195 735.107 66.816C734.56 71.2247 733.979 75.5889 733.073 79.8704L735.03 80.2843C735.955 75.9118 736.544 71.4733 737.092 67.0621C737.64 62.6388 738.145 58.252 738.903 53.9219C740.415 45.2758 742.918 36.9608 748.675 29.4045L747.084 28.1924ZM735.016 79.8131C733.822 75.4549 731.947 71.4324 729.749 67.1047C727.543 62.7597 725.019 58.1168 722.445 52.4148C717.314 41.0493 712.008 25.5094 709.046 0.380468L707.06 0.614557C710.045 25.9453 715.406 41.6839 720.622 53.2377C723.221 58.9953 725.789 63.7222 727.966 68.0101C730.152 72.3151 731.949 76.1884 733.087 80.3417L735.016 79.8131ZM707.074 0.293419C703.529 17.2993 704.056 31.4677 703.315 42.6962C702.57 53.976 700.564 62.2642 692.28 68.278L693.455 69.8965C702.497 63.3319 704.557 54.2407 705.31 42.8279C706.067 31.3639 705.524 17.5265 709.032 0.701605L707.074 0.293419ZM693.359 68.2166C676.789 58.8572 675.265 40.5236 674.867 22.4584L672.868 22.5024C673.262 40.404 674.696 59.9718 692.376 69.958L693.359 68.2166ZM673.08 21.864C660.89 37.4367 652.671 55.2301 651.885 77.0551L653.884 77.127C654.651 55.8118 662.665 38.4136 674.655 23.0968L673.08 21.864ZM653.851 76.8343C649.063 58.8099 643.458 40.6535 629.631 22.4949L628.04 23.7066C641.619 41.5397 647.145 59.3778 651.918 77.3478L653.851 76.8343ZM627.846 23.2435C631.025 45.2815 628.469 61.9418 617.385 70.8878L618.642 72.4441C630.625 62.7714 633.018 45.0856 629.825 22.9579L627.846 23.2435ZM618.89 71.1848C611.272 57.306 604.84 43.5456 602.863 29.8387L600.884 30.1242C602.915 44.2103 609.502 58.238 617.137 72.1472L618.89 71.1848ZM600.977 29.5392C595.796 40.0456 593.976 50.1618 593.189 60.0978C592.795 65.0578 592.659 69.9882 592.492 74.8849C592.325 79.7911 592.129 84.6705 591.619 89.5786L593.609 89.7852C594.126 84.8011 594.324 79.86 594.491 74.9528C594.658 70.0359 594.794 65.1599 595.182 60.2559C595.959 50.4639 597.742 40.622 602.77 30.4237L600.977 29.5392ZM857.731 89.6819C858.729 89.736 858.729 89.7357 858.729 89.7354C858.729 89.7352 858.729 89.7348 858.729 89.7343C858.729 89.7334 858.73 89.7321 858.73 89.7305C858.73 89.7271 858.73 89.7223 858.73 89.7161C858.731 89.7035 858.732 89.6851 858.733 89.661C858.736 89.6127 858.739 89.5415 858.743 89.4485C858.752 89.2625 858.763 88.989 858.776 88.6366C858.801 87.9318 858.831 86.9111 858.849 85.6427C858.884 83.1066 858.871 79.5764 858.678 75.5982C858.293 67.6741 857.19 57.8507 854.262 50.5834L852.407 51.3309C855.203 58.2693 856.298 67.8083 856.68 75.6951C856.871 79.6224 856.884 83.1098 856.849 85.6149C856.832 86.8672 856.802 87.873 856.777 88.5646C856.765 88.9104 856.754 89.1776 856.745 89.3576C856.741 89.4476 856.738 89.5159 856.736 89.5613C856.735 89.584 856.734 89.601 856.733 89.6121C856.733 89.6177 856.733 89.6218 856.732 89.6244C856.732 89.6257 856.732 89.6267 856.732 89.6272C856.732 89.6275 856.732 89.6277 856.732 89.6278C856.732 89.6279 856.732 89.6278 857.731 89.6819ZM854.262 50.5834C849.061 37.677 848.037 28.1364 848.288 21.8657C848.414 18.7286 848.86 16.4031 849.266 14.8769C849.469 14.1136 849.663 13.5496 849.802 13.1834C849.872 13.0003 849.928 12.8666 849.965 12.7821C849.984 12.7399 849.997 12.71 850.006 12.6924C850.01 12.6836 850.013 12.6778 850.014 12.6751C850.014 12.6738 850.015 12.6732 850.015 12.6734C850.015 12.6735 850.014 12.6738 850.014 12.6743C850.014 12.6745 850.014 12.675 850.014 12.6752C850.013 12.6757 850.013 12.6763 849.117 12.2323C848.221 11.7883 848.221 11.789 848.22 11.7897C848.22 11.79 848.22 11.7908 848.22 11.7915C848.219 11.7927 848.218 11.7942 848.217 11.7958C848.216 11.7991 848.214 11.8032 848.212 11.808C848.207 11.8177 848.201 11.8306 848.193 11.8465C848.178 11.8785 848.158 11.9229 848.133 11.9799C848.083 12.0938 848.015 12.2578 847.933 12.4721C847.77 12.9008 847.555 13.5304 847.334 14.3623C846.89 16.0266 846.422 18.4977 846.29 21.7854C846.026 28.3643 847.11 38.1862 852.407 51.3309L854.262 50.5834ZM583.525 11.3526C582.918 11.6808 582.382 12.2132 581.901 12.8388C581.415 13.4722 580.944 14.2559 580.482 15.1525C579.56 16.9444 578.63 19.2807 577.671 21.9803C575.758 27.3678 573.666 34.4021 571.276 41.7229C568.876 49.0757 566.16 56.7735 562.965 63.619C559.764 70.4793 556.121 76.3977 551.905 80.2578L553.256 81.7329C557.761 77.608 561.538 71.4079 564.778 64.4647C568.025 57.5066 570.771 49.716 573.177 42.3435C575.594 34.9393 577.652 28.0119 579.556 22.6496C580.506 19.9743 581.401 17.7386 582.261 16.0677C582.69 15.2328 583.099 14.5623 583.487 14.0571C583.882 13.544 584.215 13.2532 584.476 13.112L583.525 11.3526ZM553.54 80.7147C547.358 59.5706 544.89 38.8943 547.716 18.8533L545.736 18.574C542.86 38.9669 545.381 59.9372 551.62 81.2759L553.54 80.7147ZM545.821 18.2878C543.72 22.7529 541.442 27.1935 539.164 31.6553C536.888 36.1114 534.612 40.5872 532.532 45.0963C528.372 54.1114 524.963 63.3184 523.857 72.9096L525.844 73.1386C526.914 63.856 530.223 54.8732 534.348 45.9342C536.409 41.4663 538.667 37.024 540.945 32.5649C543.219 28.1115 545.513 23.6398 547.631 19.1395L545.821 18.2878ZM525.81 72.743C521.733 58.8255 518.765 44.7154 508.033 30.0609L506.419 31.2426C516.895 45.5467 519.771 59.2421 523.891 73.3053L525.81 72.743ZM506.227 30.6776C506.334 34.8342 506.993 38.8896 507.646 42.7075C508.303 46.5534 508.947 50.1282 509.073 53.4423C509.199 56.7422 508.803 59.6877 507.448 62.2758C506.099 64.8507 503.744 67.1769 499.758 69.1406L500.642 70.9348C504.924 68.8253 507.635 66.2299 509.22 63.2038C510.798 60.1911 511.204 56.8564 511.072 53.3663C510.94 49.8904 510.266 46.1652 509.617 42.3705C508.964 38.5477 508.329 34.6219 508.226 30.626L506.227 30.6776ZM481.968 28.1924C475.936 36.1087 473.355 44.7792 471.816 53.5774C471.048 57.9694 470.536 62.4195 469.991 66.816C469.444 71.2247 468.863 75.5889 467.957 79.8704L469.914 80.2843C470.839 75.9118 471.428 71.4733 471.975 67.0621C472.524 62.6388 473.029 58.252 473.787 53.9219C475.299 45.2758 477.801 36.9608 483.559 29.4045L481.968 28.1924ZM469.9 79.8131C468.718 75.4982 466.429 69.4822 463.801 62.6561C461.165 55.8069 458.17 48.1044 455.54 40.3515C452.909 32.5956 450.656 24.8253 449.492 17.8486C448.324 10.8432 448.281 4.77726 449.937 0.35035L448.063 -0.35035C446.219 4.57956 446.335 11.0738 447.519 18.1775C448.709 25.3099 451.002 33.1976 453.646 40.9939C456.292 48.7933 459.303 56.5374 461.935 63.3746C464.576 70.2349 466.821 76.1451 467.971 80.3417L469.9 79.8131ZM448.339 -0.750452C437.348 8.9296 436.393 23.511 435.906 36.8077C435.659 43.5296 435.537 49.9145 434.413 55.4174C433.295 60.8966 431.212 65.339 427.164 68.278L428.339 69.8965C432.954 66.5463 435.203 61.5474 436.373 55.8175C437.538 50.1114 437.661 43.5194 437.904 36.881C438.397 23.4571 439.404 9.78403 449.661 0.750452L448.339 -0.750452ZM428.243 68.2166C411.673 58.8572 410.149 40.5236 409.751 22.4584L407.752 22.5024C408.146 40.404 409.58 59.9718 427.26 69.958L428.243 68.2166ZM407.964 21.864C395.774 37.4367 387.555 55.2301 386.769 77.0551L388.768 77.127C389.535 55.8118 397.55 38.4136 409.539 23.0968L407.964 21.864ZM388.735 76.8343C387.548 72.365 386.608 67.8539 385.647 63.2901C384.687 58.7351 383.707 54.1306 382.445 49.5211C379.916 40.2889 376.249 31.006 369.296 21.8746L367.704 23.0862C374.454 31.9507 378.031 40.9746 380.516 50.0494C381.76 54.5934 382.729 59.1425 383.69 63.7024C384.648 68.2534 385.599 72.8185 386.802 77.3478L388.735 76.8343ZM367.51 22.6232C370.656 44.4283 363.477 61.8421 352.27 70.8878L353.526 72.4441C365.386 62.8712 372.716 44.6981 369.49 22.3376L367.51 22.6232ZM353.774 71.1848C346.156 57.306 339.724 43.5456 337.748 29.8387L335.768 30.1242C337.8 44.2103 344.386 58.238 352.021 72.1472L353.774 71.1848ZM335.861 29.5392C330.68 40.0456 328.861 50.1618 328.073 60.0978C327.68 65.0578 327.543 69.9882 327.377 74.8849C327.21 79.7911 327.013 84.6705 326.504 89.5786L328.493 89.7852C329.01 84.8011 329.209 79.86 329.375 74.9528C329.542 70.0359 329.678 65.1599 330.067 60.2559C330.843 50.4639 332.626 40.622 337.655 30.4237L335.861 29.5392ZM592.614 89.6819C593.612 89.736 593.612 89.7357 593.613 89.7354C593.613 89.7352 593.613 89.7348 593.613 89.7343C593.613 89.7334 593.613 89.7321 593.613 89.7305C593.613 89.7271 593.613 89.7223 593.614 89.7161C593.614 89.7035 593.615 89.6851 593.616 89.661C593.619 89.6127 593.622 89.5415 593.626 89.4485C593.635 89.2625 593.646 88.989 593.659 88.6366C593.685 87.9318 593.714 86.9111 593.732 85.6427C593.767 83.1066 593.754 79.5764 593.561 75.5982C593.177 67.6741 592.073 57.8507 589.145 50.5834L587.29 51.3309C590.086 58.2693 591.181 67.8083 591.563 75.6951C591.754 79.6224 591.767 83.1098 591.732 85.6149C591.715 86.8672 591.685 87.873 591.66 88.5646C591.648 88.9104 591.637 89.1776 591.628 89.3576C591.624 89.4476 591.621 89.5159 591.619 89.5613C591.618 89.584 591.617 89.601 591.616 89.6121C591.616 89.6177 591.616 89.6218 591.616 89.6244C591.616 89.6257 591.615 89.6267 591.615 89.6272C591.615 89.6275 591.615 89.6277 591.615 89.6278C591.615 89.6279 591.615 89.6278 592.614 89.6819ZM589.145 50.5834C583.944 37.677 582.92 28.1364 583.172 21.8657C583.297 18.7286 583.743 16.4031 584.149 14.8769C584.353 14.1136 584.546 13.5496 584.686 13.1834C584.755 13.0003 584.811 12.8666 584.848 12.7821C584.867 12.7399 584.881 12.71 584.889 12.6924C584.893 12.6836 584.896 12.6778 584.897 12.6751C584.898 12.6738 584.898 12.6732 584.898 12.6734C584.898 12.6735 584.898 12.6738 584.897 12.6743C584.897 12.6745 584.897 12.675 584.897 12.6752C584.897 12.6757 584.896 12.6763 584 12.2323C583.104 11.7883 583.104 11.789 583.104 11.7897C583.103 11.79 583.103 11.7908 583.103 11.7915C583.102 11.7927 583.101 11.7942 583.101 11.7958C583.099 11.7991 583.097 11.8032 583.095 11.808C583.09 11.8177 583.084 11.8306 583.076 11.8465C583.062 11.8785 583.041 11.9229 583.016 11.9799C582.966 12.0938 582.898 12.2578 582.816 12.4721C582.653 12.9008 582.438 13.5304 582.217 14.3623C581.774 16.0266 581.305 18.4977 581.173 21.7854C580.909 28.3643 581.993 38.1862 587.29 51.3309L589.145 50.5834ZM318.409 11.3526C317.802 11.6808 317.266 12.2132 316.786 12.8388C316.299 13.4722 315.828 14.2559 315.367 15.1525C314.445 16.9445 313.514 19.2807 312.556 21.9803C310.643 27.3678 308.55 34.4021 306.161 41.723C303.761 49.0757 301.045 56.7735 297.85 63.619C294.649 70.4793 291.006 76.3977 286.79 80.2578L288.141 81.7329C292.646 77.608 296.423 71.4079 299.663 64.4647C302.91 57.5066 305.656 49.7159 308.062 42.3435C310.479 34.9393 312.536 28.0119 314.44 22.6495C315.39 19.9742 316.285 17.7386 317.145 16.0677C317.575 15.2328 317.984 14.5623 318.372 14.0571C318.766 13.544 319.099 13.2532 319.36 13.112L318.409 11.3526ZM288.425 80.7147C282.243 59.5706 279.775 38.8943 282.602 18.8533L280.622 18.574C277.745 38.9669 280.267 59.9372 286.506 81.2759L288.425 80.7147ZM280.707 18.2878C278.606 22.7529 276.328 27.1935 274.049 31.6553C271.773 36.1114 269.498 40.5872 267.417 45.0963C263.258 54.1114 259.848 63.3184 258.743 72.9096L260.73 73.1386C261.8 63.856 265.109 54.8732 269.233 45.9342C271.295 41.4663 273.553 37.024 275.83 32.5649C278.104 28.1115 280.399 23.6398 282.517 19.1395L280.707 18.2878ZM260.696 72.743C256.619 58.8256 253.651 44.7154 242.919 30.0609L241.305 31.2426C251.781 45.5467 254.657 59.2421 258.777 73.3053L260.696 72.743ZM241.112 30.6776C241.22 34.8342 241.879 38.8896 242.532 42.7075C243.189 46.5534 243.833 50.1282 243.959 53.4423C244.085 56.7422 243.689 59.6877 242.334 62.2758C240.985 64.8507 238.63 67.1769 234.644 69.1406L235.528 70.9348C239.81 68.8253 242.521 66.2299 244.105 63.2038C245.683 60.1911 246.09 56.8564 245.958 53.3663C245.826 49.8904 245.152 46.1652 244.503 42.3705C243.85 38.5477 243.215 34.6219 243.112 30.626L241.112 30.6776ZM216.853 28.1924C210.822 36.1087 208.241 44.7792 206.702 53.5774C205.934 57.9694 205.421 62.4195 204.876 66.816C204.329 71.2247 203.749 75.5889 202.843 79.8704L204.799 80.2843C205.724 75.9118 206.314 71.4733 206.861 67.0621C207.41 62.6388 207.915 58.252 208.672 53.9219C210.184 45.2758 212.687 36.9608 218.444 29.4045L216.853 28.1924ZM204.786 79.8131C202.451 71.2927 198.758 58.9799 191.881 48.2883C184.992 37.5762 174.852 28.4131 159.633 26.3721L159.367 28.3543C173.826 30.2934 183.514 38.9759 190.199 49.3702C196.898 59.7849 200.527 71.8391 202.857 80.3417L204.786 79.8131ZM158.684 27.9418C161.804 32.3397 164.193 34.2971 165.096 39.2865C166.01 44.3412 165.345 52.4738 161.661 68.868L163.613 69.3065C167.292 52.9319 168.059 44.4313 167.064 38.9306C166.057 33.3645 163.196 30.8444 160.316 26.7846L158.684 27.9418ZM163.129 68.2166C146.558 58.8572 145.034 40.5236 144.637 22.4584L142.637 22.5024C143.031 40.404 144.465 59.9718 162.145 69.958L163.129 68.2166ZM142.849 21.864C130.66 37.4367 122.44 55.2301 121.655 77.0551L123.653 77.127C124.42 55.8118 132.435 38.4136 144.424 23.0968L142.849 21.864ZM123.621 76.8343C118.832 58.8099 113.227 40.6535 99.4003 22.4949L97.8091 23.7066C111.388 41.5397 116.914 59.3778 121.688 77.3478L123.621 76.8343ZM97.615 23.2435C100.794 45.2815 98.2382 61.9418 87.1548 70.8878L88.4109 72.4441C100.395 62.7714 102.787 45.0856 99.5945 22.9579L97.615 23.2435ZM88.6595 71.1848C81.0412 57.306 74.6094 43.5456 72.6326 29.8387L70.6531 30.1242C72.6846 44.2103 79.2713 58.238 86.9062 72.1472L88.6595 71.1848ZM327.498 89.6819C328.497 89.736 328.497 89.7357 328.497 89.7354C328.497 89.7352 328.497 89.7348 328.497 89.7343C328.497 89.7334 328.497 89.7321 328.497 89.7305C328.497 89.7271 328.498 89.7223 328.498 89.7161C328.499 89.7035 328.499 89.6851 328.501 89.661C328.503 89.6127 328.507 89.5415 328.511 89.4485C328.519 89.2625 328.531 88.989 328.544 88.6366C328.569 87.9318 328.599 86.9111 328.616 85.6427C328.651 83.1066 328.638 79.5764 328.445 75.5982C328.061 67.6741 326.958 57.8507 324.029 50.5834L322.174 51.3309C324.97 58.2693 326.065 67.8083 326.448 75.6951C326.638 79.6224 326.651 83.1098 326.616 85.6149C326.599 86.8672 326.57 87.873 326.545 88.5646C326.532 88.9104 326.521 89.1776 326.513 89.3576C326.509 89.4476 326.505 89.5159 326.503 89.5613C326.502 89.584 326.501 89.6009 326.501 89.6121C326.5 89.6177 326.5 89.6218 326.5 89.6244C326.5 89.6257 326.5 89.6266 326.5 89.6272C326.5 89.6275 326.5 89.6277 326.5 89.6278C326.5 89.6279 326.5 89.6278 327.498 89.6819ZM324.029 50.5834C318.829 37.677 317.804 28.1364 318.056 21.8657C318.182 18.7286 318.627 16.4031 319.034 14.8769C319.237 14.1136 319.431 13.5496 319.57 13.1834C319.64 13.0003 319.696 12.8666 319.733 12.7822C319.751 12.7399 319.765 12.71 319.773 12.6924C319.777 12.6836 319.78 12.6778 319.781 12.6751C319.782 12.6738 319.782 12.6732 319.782 12.6734C319.782 12.6735 319.782 12.6738 319.782 12.6743C319.782 12.6745 319.781 12.6751 319.781 12.6752C319.781 12.6757 319.781 12.6763 318.885 12.2323C317.989 11.7883 317.988 11.789 317.988 11.7897C317.988 11.79 317.988 11.7908 317.987 11.7915C317.987 11.7927 317.986 11.7942 317.985 11.7958C317.983 11.7991 317.982 11.8032 317.979 11.808C317.974 11.8177 317.968 11.8306 317.961 11.8465C317.946 11.8785 317.926 11.9229 317.901 11.9798C317.851 12.0938 317.782 12.2578 317.701 12.4721C317.538 12.9008 317.323 13.5304 317.101 14.3623C316.658 16.0266 316.19 18.4977 316.058 21.7854C315.793 28.3643 316.878 38.1862 322.174 51.3309L324.029 50.5834ZM53.4734 11.353C52.8663 11.6812 52.3305 12.2135 51.85 12.8391C51.3635 13.4725 50.8923 14.2562 50.4309 15.1528C49.5086 16.9448 48.5783 19.281 47.6197 21.9806C45.7067 27.368 43.6141 34.4023 41.2244 41.7232C38.8244 49.0759 36.108 56.7737 32.9137 63.6191C29.7124 70.4795 26.0694 76.3979 21.8533 80.2579L23.2039 81.733C27.7092 77.6081 31.4861 71.4081 34.7261 64.4649C37.973 57.5068 40.7192 49.7162 43.1257 42.3438C45.5425 34.9396 47.6003 28.0122 49.5044 22.6499C50.4544 19.9746 51.3492 17.7389 52.2092 16.068C52.6389 15.2331 53.048 14.5627 53.4361 14.0574C53.8302 13.5443 54.1634 13.2535 54.4245 13.1123L53.4734 11.353ZM23.4884 80.7148C17.3064 59.5708 14.8379 38.8945 17.6647 18.8535L15.6843 18.5742C12.8078 38.9671 15.3299 59.9373 21.5688 81.2761L23.4884 80.7148ZM15.7697 18.2881C7.3901 36.0936 1.20661 44.1892 -0.993423 63.2761L0.993423 63.5051C3.14433 44.8444 9.08175 37.1959 17.5793 19.1397L15.7697 18.2881ZM57.8498 52.6872C52.6588 39.8049 51.9397 29.7537 52.4957 22.9592C52.774 19.5592 53.3722 16.9675 53.8946 15.2377C54.1559 14.3728 54.3983 13.7231 54.5723 13.2956C54.6594 13.0818 54.7293 12.9236 54.776 12.8218C54.7994 12.7709 54.8169 12.734 54.8278 12.7114C54.8333 12.7001 54.8371 12.6924 54.8392 12.6882C54.8402 12.6861 54.8408 12.6849 54.841 12.6846C54.8411 12.6845 54.841 12.6845 54.8409 12.6848C54.8408 12.685 54.8406 12.6854 54.8406 12.6854C54.8403 12.6859 54.8401 12.6864 53.949 12.2326C53.0578 11.7789 53.0575 11.7795 53.0572 11.7802C53.057 11.7805 53.0566 11.7812 53.0563 11.7818C53.0557 11.783 53.055 11.7844 53.0542 11.7861C53.0525 11.7894 53.0504 11.7936 53.0479 11.7987C53.0428 11.8089 53.036 11.8227 53.0276 11.8402C53.0107 11.8751 52.9872 11.9245 52.958 11.9881C52.8996 12.1155 52.8182 12.3002 52.72 12.5414C52.5236 13.0237 52.2601 13.7321 51.98 14.6595C51.4198 16.5145 50.793 19.2453 50.5024 22.796C49.9208 29.9029 50.6883 40.2658 55.9947 53.4347L57.8498 52.6872ZM-1 63.3906V100H1V63.3906H-1ZM63.9982 81.1662C63.5251 73.2627 61.3499 61.3733 57.8498 52.6872L55.9947 53.4347C59.3969 61.8777 61.5385 73.5463 62.0018 81.2857L63.9982 81.1662ZM70.7459 29.5392C61.9197 47.4387 62.8166 64.5213 62.0012 81.177L63.9988 81.2748C64.8257 64.3844 63.9459 47.8519 72.5397 30.4237L70.7459 29.5392ZM0 101H1920V99H0V101ZM1906.31 30.7527C1906.96 31.2879 1907.68 32.2199 1908.44 33.5268C1909.2 34.8188 1909.96 36.4121 1910.71 38.2077C1912.2 41.7982 1913.63 46.1258 1914.86 50.3157C1916.1 54.5014 1917.14 58.5291 1917.87 61.5119C1918.24 63.0027 1918.52 64.2313 1918.72 65.0866C1918.82 65.5142 1918.9 65.8484 1918.95 66.0753C1918.97 66.1888 1918.99 66.2754 1919 66.3335C1919.01 66.3625 1919.02 66.3844 1919.02 66.3989C1919.02 66.4062 1919.02 66.4116 1919.02 66.4152C1919.02 66.417 1919.02 66.4183 1919.02 66.4191C1919.02 66.4195 1919.02 66.4198 1919.02 66.42C1919.02 66.4202 1919.02 66.4202 1920 66.2067C1920.98 65.9932 1920.98 65.993 1920.98 65.9927C1920.98 65.9924 1920.98 65.992 1920.98 65.9915C1920.98 65.9904 1920.98 65.9889 1920.98 65.9869C1920.97 65.9829 1920.97 65.9771 1920.97 65.9694C1920.97 65.9541 1920.96 65.9313 1920.96 65.9015C1920.94 65.8417 1920.92 65.7533 1920.9 65.6381C1920.85 65.4075 1920.77 65.0695 1920.67 64.6378C1920.47 63.7746 1920.18 62.5366 1919.81 61.0353C1919.08 58.0336 1918.03 53.9744 1916.78 49.75C1915.54 45.5299 1914.09 41.1244 1912.55 37.4379C1911.78 35.595 1910.99 33.9139 1910.17 32.518C1909.36 31.137 1908.5 29.9676 1907.59 29.2102L1906.31 30.7527ZM1919 66.2067V100H1921V66.2067H1919ZM1744.24 70.5695L1744.48 70.1781L1742.79 69.1146L1742.55 69.506L1744.24 70.5695ZM1744.42 70.2711L1744.42 70.2701L1742.86 69.0208L1742.86 69.0217L1744.42 70.2711ZM1744.49 70.177C1752.39 57.5815 1760.46 44.7539 1761.84 28.885L1759.85 28.7119C1758.51 44.0248 1750.74 56.4546 1742.79 69.1139L1744.49 70.177ZM216.652 28.8849C218.031 44.7543 226.095 57.5822 233.994 70.1782L235.688 69.1156C227.749 56.4558 219.975 44.0256 218.645 28.7119L216.652 28.8849ZM233.994 70.1782L234.239 70.5689L235.933 69.5065L235.688 69.1157L233.994 70.1782ZM481.767 28.8849C483.145 44.7549 491.21 57.5833 499.109 70.1798L500.803 69.1173C492.864 56.4569 485.089 44.0263 483.759 28.7119L481.767 28.8849ZM499.109 70.1798L499.353 70.5689L501.047 69.5065L500.803 69.1173L499.109 70.1798ZM746.883 28.8849C748.261 44.7545 756.326 57.5825 764.224 70.1786L765.919 69.1161C757.98 56.4561 750.206 44.0258 748.876 28.7119L746.883 28.8849ZM764.224 70.1787L764.469 70.569L766.164 69.5063L765.919 69.116L764.224 70.1787ZM1012 28.8849C1013.38 44.7542 1021.44 57.5822 1029.34 70.1781L1031.03 69.1156C1023.1 56.4558 1015.32 44.0256 1013.99 28.7119L1012 28.8849ZM1029.34 70.1779L1029.59 70.5688L1031.28 69.5066L1031.04 69.1157L1029.34 70.1779ZM1117.52 51.3309C1120.24 58.0755 1121.35 67.2776 1121.77 75.0338C1122.18 82.7629 1121.89 88.9374 1121.86 89.5673L1123.85 89.6678C1123.89 89.0016 1124.18 82.7518 1123.76 74.9276C1123.35 67.1305 1122.23 57.6504 1119.38 50.5834L1117.52 51.3309ZM1123.85 89.7203C1124.36 84.7422 1124.56 79.8066 1124.73 74.9049C1124.89 69.9936 1125.03 65.1227 1125.42 60.224C1126.2 50.4425 1127.98 40.611 1133 30.4237L1131.21 29.5392C1126.03 40.0342 1124.21 50.1399 1123.42 60.0655C1123.03 65.0204 1122.89 69.9455 1122.73 74.837C1122.56 79.7381 1122.37 84.6122 1121.86 89.5148L1123.85 89.7203ZM1277.12 28.8849C1278.49 44.7541 1286.56 57.582 1294.46 70.1778L1296.15 69.1153C1288.21 56.4556 1280.44 44.0255 1279.11 28.7119L1277.12 28.8849ZM1294.46 70.178L1294.7 70.5691L1296.4 69.5063L1296.15 69.1152L1294.46 70.178ZM1541.24 28.8849C1542.62 44.7541 1550.68 57.582 1558.58 70.1778L1560.28 69.1153C1552.34 56.4556 1544.56 44.0255 1543.23 28.7119L1541.24 28.8849ZM1558.58 70.178L1558.83 70.5691L1560.52 69.5063L1560.28 69.1152L1558.58 70.178Z" fill="white" mask="url(#path-1-inside-1_555_366)"/>
</g>
<defs>
<clipPath id="clip0_555_366">
<rect width="1920" height="100" fill="white"/>
</clipPath>
</defs>
</svg>
