<svg width="155" height="55" viewBox="0 0 155 55" fill="none" xmlns="http://www.w3.org/2000/svg">
<path d="M0 5C0 2.23857 2.23858 0 5 0H150C152.761 0 155 2.23858 155 5V50C155 52.7614 152.761 55 150 55H5C2.23858 55 0 52.7614 0 50V5Z" fill="white"/>
<path d="M27.0614 44C27.0614 44.5523 26.6137 45 26.0614 45H21C20.4477 45 20 44.5523 20 44V11C20 10.4477 20.4477 10 21 10H26.0614C26.6137 10 27.0614 10.4477 27.0614 11V44Z" fill="black"/>
<path d="M56.3502 43.999C56.3508 44.5517 55.9029 45 55.3502 45H49.8127C49.4657 45 49.1435 44.8201 48.9614 44.5248L40.0091 30.003C39.4802 29.145 38.1579 29.5198 38.1579 30.5277V44C38.1579 44.5523 37.7102 45 37.1579 45H32.0965C31.5442 45 31.0965 44.5523 31.0965 44V11C31.0965 10.4477 31.5442 10 32.0965 10H37.5839C37.9394 10 38.2681 10.1887 38.4474 10.4957L47.3909 25.8092C47.9055 26.6904 49.2544 26.3253 49.2544 25.3049V11C49.2544 10.4477 49.7021 10 50.2544 10H55.3168C55.8687 10 56.3162 10.4471 56.3168 10.999L56.3502 43.999Z" fill="black"/>
<path d="M67.4123 44C67.4123 44.5523 66.9646 45 66.4123 45H61.3509C60.7986 45 60.3509 44.5523 60.3509 44V11C60.3509 10.4477 60.7986 10 61.3509 10H81.5439C82.0961 10 82.5439 10.4477 82.5439 11V15C82.5439 15.5523 82.0961 16 81.5439 16H68.4123C67.86 16 67.4123 16.4477 67.4123 17C67.4123 17.5523 67.86 18 68.4123 18H81.5439C82.0961 18 82.5439 18.4477 82.5439 19V23C82.5439 23.5523 82.0961 24 81.5439 24H68.4123C67.86 24 67.4123 24.4477 67.4123 25V44Z" fill="black"/>
<path d="M93.6404 44C93.6404 44.5523 93.1926 45 92.6404 45H87.5789C87.0267 45 86.5789 44.5523 86.5789 44V11C86.5789 10.4477 87.0267 10 87.5789 10H92.6404C93.1926 10 93.6404 10.4477 93.6404 11V44Z" fill="black"/>
<path d="M133.787 43.3966C134.285 44.0553 133.815 45 132.989 45H128.445C128.127 45 127.827 44.8483 127.639 44.5915L120.168 34.4085C119.98 34.1517 119.68 34 119.362 34H112.305C111.986 34 111.687 34.1517 111.499 34.4085L104.028 44.5915C103.839 44.8483 103.54 45 103.221 45H98.6772C97.8512 45 97.3814 44.0553 97.8797 43.3966L108.472 29.3967C108.661 29.1468 108.956 29 109.269 29H122.397C122.711 29 123.006 29.1468 123.195 29.3967L133.787 43.3966Z" fill="black"/>
<path d="M97.8797 11.6034C97.3814 10.9447 97.8512 10 98.6772 10H103.221C103.54 10 103.839 10.1517 104.028 10.4085L111.499 20.5915C111.687 20.8483 111.986 21 112.305 21H119.362C119.68 21 119.98 20.8483 120.168 20.5915L127.639 10.4085C127.827 10.1517 128.127 10 128.445 10H132.989C133.815 10 134.285 10.9447 133.787 11.6034L123.195 25.6034C123.006 25.8532 122.711 26 122.397 26H109.269C108.956 26 108.661 25.8532 108.472 25.6033L97.8797 11.6034Z" fill="black"/>
</svg>
