<svg width="160" height="160" viewBox="0 0 160 160" fill="none" xmlns="http://www.w3.org/2000/svg">
<path d="M100.118 138.425C101.859 139.793 101.328 142.513 99.209 143.181C92.7711 145.209 86.0553 146.242 79.2986 146.244C34.905 146.244 4.34092 103.31 17.6377 62.5205C18.3177 60.4348 21.066 59.9231 22.4457 61.6381C25.3128 65.1974 28.2412 68.7081 31.2294 72.1686C31.7547 72.7771 31.9925 73.5828 31.8603 74.372C26.4941 106.433 54.6173 134.439 87.2504 129.122C88.0474 128.992 88.8607 129.228 89.4752 129.746C92.9726 132.699 96.5208 135.592 100.118 138.425Z" fill="black"/>
<path d="M80.3944 121.887C81.34 122.726 80.7358 124.273 79.4652 124.274C55.8471 124.296 36.732 105.42 36.7611 82.0594C36.7625 80.8037 38.3274 80.2068 39.176 81.1411C51.5979 94.8214 65.9953 109.111 80.3944 121.887ZM53.491 48.6589C52.0324 49.764 51.7523 51.8757 52.8657 53.3659C68.5311 74.3333 87.2797 92.8675 108.49 108.354C110 109.458 112.14 109.182 113.257 107.741C126.202 91.0528 124.601 67.2361 109.533 52.3412C94.5481 37.5274 70.4595 35.7973 53.491 48.6589Z" fill="black"/>
<path d="M154.426 139.341C150.894 131.993 144.797 122.598 136.748 112.097C142.949 100.481 145.417 86.9896 143.71 73.8915C139.94 45.0358 116.973 22.2896 87.7327 18.5556C74.4792 16.8649 60.831 19.3085 49.0836 25.4383C38.4614 17.4809 28.9575 11.4538 21.5241 7.96283C12.2695 3.61963 6.14475 3.11652 2.79675 6.42611C-15.3288 24.3441 89.4548 133.86 137.253 156.317C142.932 158.982 151.552 162.232 155.981 157.853C159.329 154.544 158.82 148.49 154.426 139.341ZM117.654 111.073C114.715 114.862 109.129 115.629 105.198 112.758C83.5444 96.948 64.4035 78.0261 48.4105 56.62C45.514 52.744 46.2812 47.2235 50.1205 44.3133C69.1989 29.8527 96.4246 31.6389 113.451 48.4689C130.476 65.2993 132.283 92.2134 117.654 111.073ZM71.9174 5.81382C71.2274 5.81294 70.5625 5.55747 70.053 5.09743C69.5435 4.63739 69.2261 4.00592 69.1629 3.32666C69.1294 2.96864 69.1676 2.60761 69.2754 2.26419C69.3831 1.92077 69.5582 1.60169 69.7907 1.32519C70.0232 1.04868 70.3085 0.820152 70.6303 0.652665C70.9522 0.485178 71.3043 0.38201 71.6664 0.349054C76.4173 -0.0811162 81.1963 -0.113746 85.9527 0.251511C86.3154 0.279499 86.6689 0.377826 86.9931 0.540878C87.3173 0.703929 87.6058 0.928512 87.8422 1.2018C88.0786 1.47509 88.2583 1.79173 88.3709 2.13365C88.4835 2.47557 88.5268 2.83607 88.4985 3.19455C88.3794 4.70184 87.0454 5.82683 85.5213 5.71115C77.9667 5.12829 72.4572 5.81382 71.9174 5.81382ZM55.4261 9.069C54.7636 9.0693 54.1229 8.83485 53.6203 8.40818C53.1176 7.98151 52.7864 7.39088 52.6866 6.74344C52.5868 6.096 52.725 5.43465 53.0763 4.87935C53.4275 4.32406 53.9685 3.91161 54.601 3.71683C56.0578 3.26698 57.5271 2.85748 59.0071 2.48882C60.4896 2.11748 61.9964 3.00802 62.37 4.47424C62.5495 5.17835 62.4388 5.92415 62.0622 6.54757C61.6855 7.171 61.0738 7.62099 60.3615 7.79855C56.4007 8.7863 56.2598 9.069 55.4261 9.069ZM7.09652 119.527C6.57629 119.527 6.06649 119.383 5.6255 119.11C5.18451 118.837 4.83015 118.447 4.60301 117.984C2.83456 114.383 1.33554 110.659 0.118008 106.841C-0.0924587 106.151 -0.0194249 105.407 0.321279 104.77C0.661982 104.133 1.2429 103.654 1.93811 103.438C2.63332 103.222 3.3868 103.285 4.03522 103.614C4.68364 103.943 5.17475 104.511 5.40209 105.196C6.53787 108.758 7.93633 112.232 9.58622 115.592C10.4847 117.421 9.12055 119.527 7.09652 119.527ZM29.1486 146.837C28.0372 146.837 27.4743 146.288 26.6658 145.632C26.0984 145.171 25.7393 144.506 25.6677 143.783C25.5961 143.06 25.8178 142.339 26.284 141.778C26.7506 141.217 27.4233 140.862 28.1543 140.791C28.8854 140.72 29.615 140.939 30.1828 141.4C30.4151 141.589 30.6492 141.777 30.8836 141.963C32.927 143.584 31.7491 146.837 29.1486 146.837ZM46.7556 157.703C43.3057 156.244 39.9597 154.556 36.7406 152.65C36.4286 152.465 36.1565 152.222 35.9398 151.933C35.723 151.644 35.566 151.316 35.4776 150.967C35.3891 150.618 35.3711 150.256 35.4245 149.9C35.4778 149.544 35.6015 149.203 35.7885 148.894C35.9755 148.586 36.2221 148.317 36.5143 148.102C36.8064 147.888 37.1384 147.733 37.4912 147.645C37.8441 147.558 38.2109 147.54 38.5707 147.593C38.9305 147.646 39.2763 147.768 39.5883 147.953C42.5918 149.731 45.7138 151.307 48.933 152.667C49.2675 152.809 49.5705 153.014 49.8248 153.271C50.0791 153.528 50.2797 153.832 50.4151 154.166C50.5506 154.5 50.6181 154.856 50.6141 155.216C50.61 155.576 50.5343 155.931 50.3913 156.261C49.7916 157.648 48.1657 158.3 46.7556 157.703ZM157.227 65.2079C156.611 65.2073 156.014 65.0042 155.528 64.6308C155.043 64.2574 154.697 63.7348 154.545 63.1455C153.356 58.5402 151.734 54.0547 149.701 49.7476C149.546 49.4216 149.458 49.0686 149.441 48.7087C149.424 48.3489 149.479 47.9893 149.603 47.6505C149.727 47.3118 149.918 47.0006 150.164 46.7347C150.409 46.4688 150.706 46.2535 151.036 46.1012C151.366 45.9488 151.724 45.8623 152.088 45.8467C152.452 45.8311 152.815 45.8867 153.158 46.0102C153.5 46.1338 153.814 46.3229 154.083 46.5667C154.351 46.8106 154.568 47.1043 154.721 47.4312C156.9 52.0482 158.638 56.8565 159.913 61.7932C160.361 63.5295 159.029 65.2079 157.227 65.2079ZM145.663 39.9978C145.213 39.9984 144.769 39.8904 144.371 39.6832C143.972 39.4761 143.631 39.1759 143.377 38.8088C143.038 38.3214 142.694 37.8379 142.344 37.3583C141.924 36.7689 141.756 36.0397 141.877 35.3287C141.998 34.6178 142.397 33.9826 142.988 33.5608C143.58 33.1391 144.316 32.9649 145.036 33.0761C145.757 33.1872 146.404 33.5747 146.837 34.1545C147.212 34.6688 147.581 35.1873 147.944 35.71C149.214 37.539 147.863 39.9978 145.663 39.9978ZM12.9134 129.713C10.6782 129.713 9.39511 127.236 10.611 125.456C11.9541 123.444 15.1563 124.055 15.6278 126.441C15.9813 128.059 14.7031 129.713 12.9134 129.713Z" fill="black"/>
</svg>
