<svg width="320" height="285" viewBox="0 0 320 285" fill="none" xmlns="http://www.w3.org/2000/svg">
<path d="M319.95 128.192L319.912 127.022L320 126.222L319.888 126.308L319.701 120.636L319.391 111.234L319.643 111.605L319.381 110.175L319.351 110.008L319.348 109.933L319.326 109.261L319.23 109.35L316.651 95.2931L317.203 96.1035L316.407 93.8086L316.347 93.6364L316.223 92.9572L316.143 93.0463L311.048 78.3642L311.071 78.335L310.977 78.1597L310.77 77.5608L310.705 77.6466L303.468 64.0148L303.488 63.9829L303.36 63.8109L303.086 63.296L303.049 63.3556L301.456 61.0121L301.454 61.0097L299.552 58.2101L298.004 55.9339L298.038 55.9328L297.651 55.4133L297.559 55.2414L297.523 55.2426L288.911 43.7102L288.311 42.9065L288.437 42.8937L287.921 42.3845L287.818 42.2462L287.784 42.2495L276.787 31.386L276.928 31.362L276.278 30.8834L276.168 30.7748L276.137 30.7801L263.56 21.5267L263.717 21.489L262.982 21.091L262.928 21.0619L262.816 20.9791L262.813 20.9797L261.271 19.8423L261.621 20.3543L248.851 13.4414L249.022 13.3876L248.097 13.0334L246.818 12.3408L247.009 12.6165L232.902 7.21384L233.085 7.14147L232.141 6.90791L232.034 6.88152L231.925 6.83986L230.98 6.47805L231.101 6.65071L222.183 4.44586L215.954 2.90581L216.144 2.81352L214.985 2.66638L214.881 2.64059L214.086 2.44394L214.169 2.56279L198.262 0.543285L198.453 0.430901L197.217 0.410722L197.115 0.397786L196.433 0.311276L196.496 0.398902L187.603 0.253657L180.069 0.130492L180.252 0L178.979 0.112729L178.293 0.101517L178.342 0.169133L161.62 1.64984L161.78 1.50796L160.734 1.7078L160.533 1.7461L159.926 1.79983L159.966 1.85442L151.745 3.42457L143.159 5.06424L143.284 4.92236L142.352 5.19603L142.132 5.26046L142.031 5.27987L141.596 5.363L141.63 5.40803L124.916 10.3154L124.994 10.1884L124.251 10.4855L124.016 10.5796L123.543 10.7186L123.572 10.7573L118.54 12.7702L107.13 17.3346L107.16 17.2394L106.666 17.4925L106.42 17.6186L106.28 17.6744L106.002 17.7862L106.027 17.8198L90.0536 26.0102L90.0493 25.9529L89.8217 26.0978L89.5679 26.2592L89.1993 26.4482L89.2232 26.4787L73.955 36.199L73.936 36.1726L73.6602 36.3867L73.3429 36.5887L73.3647 36.6161L67.3646 41.2749L59.184 47.6263L59.1624 47.5995L58.8987 47.8479L58.6264 48.0594L58.4376 48.2063L58.493 48.2301L45.7473 60.2354L45.7226 60.2055L45.4611 60.5049L45.2322 60.7206L44.8561 61.0749L44.9601 61.0785L33.7954 73.8619L33.7668 73.8276L33.5824 74.0873L33.5128 74.1854L33.3251 74.4002L32.8349 74.9619L32.9836 74.9314L23.4751 88.3342L23.441 88.2939L23.2548 88.6253L23.2015 88.7197L22.5347 89.6597L22.7118 89.5915L14.9143 103.471L14.8725 103.423L14.6581 103.927L14.0715 104.972L14.2571 104.872L9.15301 116.888L8.22159 119.081L8.16887 119.02L7.99297 119.619L7.53049 120.708L7.7088 120.586L3.77657 133.968L3.48499 134.961L3.41591 134.882L3.31676 135.485L3.29868 135.595L2.98013 136.679L3.14225 136.545L1.83595 144.484L0.779035 150.907L0.684972 150.802L0.655427 151.658L0.631823 151.802L0.484526 152.698L0.624414 152.561L0.32517 161.244L0.137044 166.703L0 166.552L0.106038 167.6L0.0727876 168.566L0.190278 168.431L1.57556 182.116L1.35848 181.877L1.6517 183.068L1.6859 183.207L1.77453 184.082L1.87015 183.954L5.06305 196.913L4.66793 196.478L5.39907 198.277L5.58996 199.051L5.66567 198.933L8.46897 205.831L10.4771 210.773L9.5396 209.752L11.1314 212.45L11.2194 212.599L11.4918 213.27L11.5505 213.161L15.6038 220.03L18.9987 225.784L18.9849 225.815L19.1048 225.963L19.4388 226.53L19.4828 226.431L22.9612 230.736L28.8291 237.998L28.8173 238.031L28.9697 238.172L29.348 238.64L29.3635 238.597L29.9398 239.22L31.2137 240.6L32.1612 241.627L33.4503 243.026L34.4164 244.072L35.2507 244.977L35.1888 244.989L35.6795 245.443L35.798 245.589L35.8309 245.583L40.0581 249.493L46.9305 255.851L46.8152 255.883L47.414 256.298L47.5404 256.415L47.5704 256.407L60.2978 265.236L60.1755 265.281L60.8789 265.639L61.0086 265.729L61.01 265.728L63.4674 267.435L62.645 266.539L75.2417 272.959L75.116 273.017L75.9101 273.3L76.0433 273.368L76.0458 273.366L77.624 274.173L77.2674 273.783L91.5703 278.874L91.4455 278.946L92.3135 279.139L92.4462 279.186L93.6182 279.603L93.42 279.385L99.2696 280.684L109.077 282.864L108.959 282.948L109.757 283.029L109.871 283.04L110.928 283.275L110.801 283.135L127.511 284.828L127.406 284.922L128.328 284.911L129.207 285L129.12 284.902L146.614 284.695L146.53 284.793L147.414 284.686L147.556 284.684L148.163 284.677L148.099 284.603L162.436 282.874L166.095 282.433L166.037 282.527L166.653 282.386L166.842 282.343L167.482 282.266L167.432 282.208L185.652 278.032L185.621 278.115L186.303 277.882L186.852 277.757L186.812 277.709L204.957 271.53L204.951 271.595L205.258 271.455L205.488 271.349L205.688 271.281L205.956 271.19L205.923 271.15L223.679 263.013L223.69 263.058L223.834 262.974L224.08 262.83L224.479 262.647L224.45 262.612L238.262 254.496L241.473 252.61L241.493 252.637L241.502 252.63L241.763 252.439L242.085 252.25L242.097 252.243L242.072 252.212L252.357 244.658L257.944 240.555L257.967 240.584L258.051 240.508L258.235 240.341L258.642 240.042L258.595 240.014L272.917 226.997L272.944 227.032L273.214 226.728L273.689 226.296L273.614 226.277L280.103 218.966L286.152 212.151L286.184 212.193L286.356 211.948L286.451 211.814L286.954 211.248L286.851 211.247L297.422 196.264L297.461 196.317L297.715 195.849L298.197 195.165L298.075 195.187L303.345 185.489L306.538 179.613L306.587 179.681L306.763 179.236L306.816 179.102L307.233 178.334L307.101 178.378L313.364 162.482L313.43 162.575L313.611 161.856L313.932 161.042L313.8 161.105L317.803 145.171L317.897 145.304L317.981 144.547L317.997 144.402L318.031 144.267L318.204 143.577L318.079 143.654L319.806 127.984L319.95 128.192ZM313.118 160.921L311.85 159.142L311.748 158.998L311.731 158.975L313.905 150.339L315.889 142.451L317.267 144.409L313.118 160.921ZM241.631 251.66L240.033 249.66L255.928 237.98L257.508 239.999L241.631 251.66ZM241.036 252.047L223.998 262.058L222.388 260.083L239.443 250.053L239.464 250.078L241.036 252.047ZM204.758 270.852L186.322 277.13L184.709 275.222L203.161 268.928L204.758 270.852ZM91.2044 277.994L76.2517 272.672L75.057 271.364L90.015 276.683L91.2044 277.994ZM74.4776 271.777L61.2763 265.049L60.4257 264.122L73.6234 270.842L73.6399 270.86L74.4776 271.777ZM58.6519 263.235L47.8684 255.754L47.8436 255.727L58.6088 263.188L58.6519 263.235ZM46.5734 60.4277L59.2006 48.5334L60.177 48.9519L64.4456 50.782L57.131 57.666L54.0292 60.5851L54.0049 60.5678L53.9052 60.682L46.5734 60.4277ZM90.1101 26.7753L105.972 18.6421L103.732 25.6726L103.565 25.7389L103.576 25.7679L92.4036 31.4818L90.5291 32.4404L90.1101 26.7753ZM123.271 11.6388L121.786 14.0466L118.174 19.9057L117.99 19.9596L117.996 19.9891L104.58 25.3345L106.852 18.2071L123.271 11.6388ZM141.148 6.28581L133.004 15.5636L132.817 15.599L132.819 15.6281L129.579 16.5745L119.186 19.6102L124.361 11.2144L141.148 6.28581ZM275.169 30.9445L241.688 36.6361L241.588 36.5355L241.554 36.5643L236.336 32.654L231.717 29.192L262.662 21.7429L275.169 30.9445ZM318.355 108.491L318.042 108.038L317.434 107.156L314.757 92.5279L315.672 93.8651L318.355 108.491ZM319.166 125.825L318.022 124.177L318.006 124.154L317.986 123.539L317.493 108.485L318.65 110.163L319.166 125.825ZM11.9418 212.435L26.286 185.812L26.4706 186.119L32.2771 195.768L32.233 195.798L32.3393 195.927L19.3518 224.994L11.9418 212.435ZM197.265 1.12928L213.696 3.21493L192.309 13.5753L192.155 13.5362L192.141 13.5657L181.497 12.1673L179.034 11.8436L197.265 1.12928ZM144.477 281.536L126.336 281.761L124.784 280.014L142.936 279.779L142.952 279.797L143.252 280.139L144.477 281.536ZM19.806 225.708L32.841 196.534L40.343 205.622L40.3008 205.657L40.4257 205.77L34.4978 222.245L29.1088 237.221L19.806 225.708ZM304.143 176.305L295.415 192.354L293.933 190.344L293.915 190.319L302.654 174.254L302.704 174.322L304.143 176.305ZM284.192 208.366L282.656 206.323L293.504 190.951L295.025 193.015L284.192 208.366ZM238.998 249.495L221.937 259.529L220.323 257.547L221.13 257.072L237.4 247.493L237.986 248.227L238.998 249.495ZM89.0123 275.577L74.0418 270.253L72.8419 268.94L87.8124 274.253L87.8284 274.271L89.0123 275.577ZM240.999 37.031L240.759 37.2325L216.185 57.8837L208.808 52.223L230.941 29.4928L240.999 37.031ZM56.4264 260.816L45.6431 253.343L45.6029 253.299L56.3834 260.769L56.4235 260.813L56.4264 260.816ZM65.6209 50.6972L77.1223 41.776L91.0922 59.7439L91.867 60.7405L91.8652 60.7417L91.887 60.7695L83.221 67.459L83.199 67.4356L83.185 67.4486L65.6209 50.6972ZM148.514 13.3845L162.737 12.1632L161.67 17.2796L157.249 38.4667L157.131 38.4633L157.136 38.5049L146.6 39.3348L148.514 13.3845ZM142.325 279.08L124.163 279.315L122.607 277.561L125.397 277.522L140.653 277.312L140.661 277.345L140.792 277.329L141.104 277.685L142.325 279.08ZM59.0292 178.278L64.6181 184.899L64.5035 184.92L64.7374 185.127L55.3382 193.024L40.8835 205.167L33.2691 195.943L59.0292 178.278ZM92.9043 60.9211L102.184 55.0656L116.925 77.7126L124.442 89.2611L124.407 89.2784L124.432 89.3097L118.238 93.1727L92.9043 60.9211ZM104.469 26.1391L118.145 20.69L123.266 44.7379L123.2 44.7567L123.214 44.7902L116.028 47.614L112.971 48.8155L104.469 26.1391ZM124.159 45.2169L134.646 42.2176L146.839 80.5516L146.659 80.5825L146.696 80.6306L139.831 82.5255L124.159 45.2169ZM135.336 42.0592L145.947 40.1276L151.377 64.5823L154.617 79.173L154.368 79.1898L154.413 79.249L147.541 80.4308L135.336 42.0592ZM309.261 155.517L307.879 153.579L307.935 153.437L307.897 153.421L312.044 136.985L313.432 138.959L309.261 155.517ZM293.062 190.353L282.21 205.73L280.67 203.68L291.534 188.284L293.062 190.353ZM161.826 276.78L143.237 279.05L141.639 277.225L150.192 276.174L160.137 274.953L160.147 274.985L160.256 274.959L161.826 276.78ZM146.65 40.0393L157.228 39.2065L159.163 54.0252L162.378 78.6492L155.329 79.1249L146.65 40.0393ZM212.642 66.3276L202.378 92.1745L197.61 88.4229L208.467 52.8513L215.768 58.4544L212.642 66.3276ZM314.552 102.973L313.635 101.641L313.629 101.458L313.589 101.451L311.829 91.8091L310.944 86.9554L311.875 88.3156L314.552 102.973ZM292.401 188.27L291.962 187.677L292.03 187.581L291.996 187.559L300.703 171.561L302.195 173.62L293.452 189.693L292.401 188.27ZM268.99 220.713L267.419 218.667L274.988 210.133L280.211 204.244L281.763 206.311L268.99 220.713ZM268.492 221.225L254.015 234.393L252.424 232.357L257.677 227.577L266.915 219.17L267.891 220.441L268.492 221.225ZM83.7065 67.9765L92.3233 61.3248L109.594 83.3105L117.636 93.5485L117.633 93.5498L117.656 93.5781L111.877 97.9988L83.7065 67.9765ZM179.105 40.9614L177.372 79.9919L170.706 78.9717L169.043 39.5491L179.105 40.9614ZM188.111 84.146L191.005 85.3554L191.922 86.5771L191.917 86.5741L192.187 86.934L186.953 84.7429L185.762 83.1647L188.111 84.146ZM180.072 269.616L163.616 230.548L178.45 225.327L198.586 263.28L180.072 269.616ZM54.2108 258.405L54.0735 258.31L54.1674 258.357L54.1892 258.381L54.2108 258.405ZM59.7879 178.082L95.6291 173.988L99.397 178.356L91.0354 179.929L65.4152 184.748L59.7879 178.082ZM88.7315 157.349L89.8017 158.618L91.0782 163.285L90.0077 162.017L88.7315 157.349ZM88.6783 135.723L90.3623 129.755L91.9534 131.677L90.2754 137.637L89.9991 137.306L88.6783 135.723ZM96.6555 116.474L98.3008 118.484L95.0668 124.294L94.1289 123.157L93.4154 122.292L94.0109 121.223L96.6555 116.474ZM300.476 170.406L260.861 149.764L266.166 136.482L307.026 153.818L300.476 170.406ZM89.3584 156.998L88.3059 155.75L87.6548 150.479L88.9702 152.046L89.6246 157.313L89.3915 157.037L89.3584 156.998ZM132.589 86.9554L133.682 88.348L127.145 91.6003L125.501 89.523L132.047 86.265L132.589 86.9554ZM144.584 85.1797L149.23 83.9003L150.823 85.9548L143.902 87.855L142.306 85.8072L144.584 85.1797ZM184.485 82.644L185.819 84.4123L179.955 82.7812L178.619 81.0202L184.485 82.644ZM199.92 91.1392L202.276 92.9936L202.658 93.5035L199.48 90.999L199.102 90.4961L199.92 91.1392ZM312.847 101.319L271.273 93.9069L269.119 81.395L310 85.7136L312.847 101.319ZM291.397 187.182L253.489 163.328L260.559 150.402L300.178 171.047L291.397 187.182ZM101.782 234.99L111.273 207.347L121.837 208.178L117.963 226.747L115.984 236.23L101.782 234.99ZM172.346 82.4636L173.711 84.256L167.053 83.9849L165.564 82.0409L172.228 82.3086L172.346 82.4636ZM268.414 81.4554L269.277 86.4737L270.562 93.9366L238.147 100.881L238.028 100.907L236.524 91.6896L268.414 81.4554ZM178.163 224.68L163.407 229.873L157.715 203.153L168.628 199.249L177.164 222.016L178.163 224.68ZM90.6659 139.207L92.1987 141.045L91.3226 146.904L89.7867 145.071L90.6659 139.207ZM148.062 87.4453L151.291 86.5589L152.877 88.6089L145.963 90.5022L144.372 88.4585L148.062 87.4453ZM204.296 95.6943L204.666 96.188L201.496 93.6878L201.128 93.1969L204.296 95.6943ZM200.955 179.768L209.444 171.971L232.656 188.474L221.137 199.017L200.955 179.768ZM147.067 193.887L154.084 192.88L149.284 199.839L145.38 205.498L134.783 206.987L147.067 193.887ZM155.048 192.726L162.136 190.952L157.052 202.623L146.402 205.26L155.048 192.726ZM177.757 184.579L179.579 193.309L175.201 195.387L169.284 198.196L170.834 187.878L177.757 184.579ZM170.076 188.173L168.518 198.538L163.382 200.375L157.956 202.317L163.009 190.716L170.076 188.173ZM117.236 190.036L123.21 191.959L111.121 198.55L100.258 204.472L91.2054 201.494L117.236 190.036ZM101.32 204.698L124.16 192.246L130.507 193.462L110.953 206.598L102.37 204.905L101.32 204.698ZM112.067 206.7L131.512 193.638L138.155 194.129L130.654 200.392L122.149 207.493L116.014 207.011L112.067 206.7ZM236.102 143.971L230.154 142.601L234.068 132.881L265.472 136.317L260.2 149.517L236.102 143.971ZM220.585 199.467L207.923 208.872L191.075 187.201L200.411 180.225L204.629 184.248L220.585 199.467ZM185.621 179.843L191.777 175.237L199.795 179.803L190.648 186.638L185.621 179.843ZM197.884 169.655L208.661 171.732L200.39 179.329L192.346 174.748L197.884 169.655ZM223.919 152.604L221.046 153.277L208.362 156.252L211.634 150.303L228.894 143.537L225.667 149.418L223.919 152.604ZM214.477 143.309L233.149 133.274L231.417 137.575L229.401 142.579L221.26 145.771L212.02 149.393L214.477 143.309ZM216.376 136.223L236.017 122.842L233.539 132.262L214.748 142.362L216.376 136.223ZM207.881 157.091L223.327 153.468L217.173 162.173L203.82 162.84L207.881 157.091ZM203.279 163.575L216.543 162.912L209.285 171.132L198.45 169.044L203.279 163.575ZM246.964 133.581L234.286 132.194L236.871 122.372L269.153 122.297L265.707 135.632L246.964 133.581ZM236.268 121.817L216.519 135.271L217.303 129.141L237.439 112.417L237.051 115.536L236.268 121.817ZM237.544 111.411L230.079 117.612L217.315 128.213L217.249 122.184L237.4 102.165L237.456 105.786L237.544 111.411ZM233.163 187.968L209.94 171.457L217.444 162.958L243.339 176.463L242.834 177.034L233.163 187.968ZM243.792 175.902L217.884 162.391L224.285 153.336L252.465 163.624L250.434 166.5L243.792 175.902ZM252.856 163.015L224.66 152.721L229.853 143.257L259.882 150.169L256.424 156.491L252.856 163.015ZM270.919 107.614L250.086 109.889L238.246 111.182L238.097 101.614L270.624 94.6459L270.881 105.933L270.919 107.614ZM237.362 101.207L217.136 121.301L216.215 115.451L235.902 92.2568L237.362 101.207ZM215.496 115.427L216.542 122.068L216.604 127.748L216.618 128.937L215.999 133.767L215.722 135.936L215.032 138.536L213.862 142.946L211.207 149.523L211.067 149.869L207.37 156.591L205.441 159.321L202.836 163.009L201.461 164.567L197.523 169.027L192.783 173.387L191.525 174.543L184.931 179.477L179.031 183.038L177.842 183.756L177.153 184.085L170.376 187.314L165.93 188.914L162.645 190.096L157.256 191.445L154.765 192.069L146.863 193.202L139.056 193.487L131.465 192.926L124.188 191.532L121.102 190.538L117.346 189.329L111.033 186.363L105.324 182.678L101.422 179.299L99.0602 175.562L98.4762 174.24L96.465 169.688L95.0464 164.522L94.7555 163.462L93.9439 156.973L94.0154 152.299L94.0459 150.313L95.047 143.572L96.937 136.846L97.998 134.294L99.6911 130.224L103.263 123.803L107.607 117.668L112.667 111.905L118.364 106.594L122.914 103.12L124.632 101.808L128.391 99.4708L131.381 97.612L138.517 94.074L145.938 91.2418L153.557 89.1556L157.229 88.5308L161.246 87.8477L168.917 87.3474L176.443 87.6656L178.041 87.9131L183.73 88.7945L187.016 89.7142L190.656 90.733L194.781 92.4628L197.136 93.4505L203.054 96.9143L208.333 101.077L210.887 103.777L213.507 109.109L215.496 115.427ZM113.908 101.615L114.458 102.3L115.565 103.679L110.345 108.545L108.683 106.487L113.908 101.615ZM143.65 88.6813L144.589 89.8862L145.258 90.7454L138.491 93.3277L136.878 91.2733L143.503 88.7377L143.65 88.6813ZM130.685 97.2126L124.513 101.051L122.868 98.99L129.049 95.1461L130.185 96.5809L130.685 97.2126ZM123.932 101.455L118.197 105.833L116.547 103.775L122.284 99.3902L123.932 101.455ZM120.192 96.7628L121.844 98.8379L116.105 103.224L114.447 101.158L120.192 96.7628ZM112.449 111.143L110.791 109.095L111.744 108.207L116.008 104.232L117.657 106.288L112.449 111.143ZM131.307 96.8604L129.678 94.8022L130.134 94.5755L136.205 91.5587L137.828 93.6268L131.307 96.8604ZM129.23 94.236L127.593 92.1664L134.128 88.9154L135.759 90.9914L129.23 94.236ZM110.298 109.609L111.951 111.65L107.341 116.901L105.685 114.867L109.006 111.081L110.298 109.609ZM106.887 117.463L102.943 123.033L101.292 121.017L105.242 115.441L105.863 116.204L106.887 117.463ZM98.9651 130.131L96.5023 136.053L95.7292 135.121L94.8846 134.103L97.3505 128.176L98.9651 130.131ZM94.3295 143.602L93.4597 149.455L92.7127 148.563L91.9279 147.627L92.6425 142.85L92.8038 141.771L94.3295 143.602ZM93.3385 150.41L93.2524 156.041L91.8076 154.324L91.8938 148.685L93.3385 150.41ZM93.9109 162.394L92.6042 160.846L92.5821 160.668L91.9502 155.59L93.2537 157.139L93.9109 162.394ZM95.3676 168.357L94.3098 167.106L93.0315 162.447L94.0886 163.699L95.3676 168.357ZM95.8296 169.997L97.4399 173.641L96.9055 173.011L95.9825 170.918L95.3001 169.37L95.8296 169.997ZM182.875 86.4474L188.543 88.0258L189.532 89.3378L189.863 89.7773L184.013 88.14L182.691 86.396L182.875 86.4474ZM190.997 90.1096L189.821 88.548L195.053 90.741L196.227 92.3034L190.997 90.1096ZM197.532 92.8643L196.613 91.6417L201.002 94.206L201.921 95.4332L197.532 92.8643ZM206.671 98.8672L203.508 96.3729L203.144 95.8872L206.308 98.3832L206.671 98.8672ZM198.986 91.5172L199.91 92.7501L195.516 90.1823L194.59 88.9518L198.986 91.5172ZM175.742 86.9287L169.091 86.6476L167.611 84.715L174.266 84.9861L175.742 86.9287ZM176.673 86.986L175.257 85.1227L179.212 85.7352L181.582 86.1021L182.995 87.9654L176.673 86.986ZM166.708 84.6963L166.993 85.0679L168.23 86.6841L161.37 87.1316L159.845 85.1471L162.964 84.9421L166.708 84.6963ZM159.012 85.2218L159.373 85.6904L160.568 87.2462L153.629 88.4267L152.065 86.405L155.117 85.8852L159.012 85.2218ZM100.904 121.658L102.539 123.653L99.3155 129.447L97.6755 127.46L100.175 122.969L100.904 121.658ZM94.6346 134.908L96.2139 136.811L94.5435 142.756L92.9613 140.857L93.3035 139.64L94.6346 134.908ZM89.8048 153.039L91.1155 154.598L91.7698 159.857L90.4588 158.302L89.8048 153.039ZM187.844 87.0974L181.986 85.4663L180.657 83.71L186.52 85.3404L187.844 87.0974ZM179.551 83.4171L180.238 84.3262L180.864 85.1539L180.863 85.1534L180.968 85.2918L174.641 84.3123L173.218 82.4442L177.621 83.1206L179.551 83.4171ZM164.661 82.0227L166.135 83.9476L166.192 84.0222L159.327 84.4728L157.792 82.4802L164.661 82.0227ZM126.965 92.5106L127.865 93.6491L128.608 94.5886L122.425 98.4339L120.775 96.3622L121.338 96.0121L126.965 92.5106ZM108.19 107.001L108.922 107.906L109.847 109.052L105.233 114.312L103.57 112.27L108.19 107.001ZM91.2006 147.858L91.1145 153.499L89.6625 151.772L89.7209 148.078L89.7518 146.129L91.2006 147.858ZM91.9472 161.162L93.2266 165.826L92.8261 165.352L92.6804 165.179L92.6812 165.181L92.1607 164.566L90.885 159.903L91.9472 161.162ZM81.8685 197.149L110.841 187.053L116.364 189.648L98.9882 197.296L90.2265 201.153L87.9886 200.081L81.8685 197.149ZM90.3719 201.963L99.8 205.065L95.902 213.15L86.8582 231.908L74.2292 227.613L90.3719 201.963ZM123.279 207.47L139.185 194.189L146.05 193.939L138.625 201.857L133.682 207.127L129.106 207.278L123.279 207.47ZM180.225 192.95L178.407 184.24L185.035 180.239L189.251 185.937L190.06 187.031L187.329 188.675L180.225 192.95ZM269.296 121.59L236.999 121.665L238.215 111.896L270.876 108.33L269.537 119.566L269.296 121.59ZM235.731 91.3676L221.927 107.63L215.986 114.63L214.226 109.04L232.975 82.8434L235.731 91.3676ZM196.963 88.8207L197.14 89.0567L197.894 90.0627L193.492 87.4935L192.561 86.2523L196.963 88.8207ZM193.748 89.007L194.21 89.6217L188.978 87.4283L187.797 85.8617L193.029 88.0521L193.748 89.007ZM158.524 84.588L151.574 85.7719L150.004 83.746L156.959 82.5558L158.524 84.588ZM143.165 88.0576L143.196 88.0986L136.422 90.6916L134.801 88.6297L141.585 86.0305L143.048 87.9079L143.165 88.0576ZM98.7822 119.071L100.423 121.071L97.1934 126.875L96.0094 125.438L95.5492 124.879L97.5101 121.356L98.7822 119.071ZM95.224 125.595L96.8427 127.56L94.3757 133.49L93.2853 132.176L92.751 131.533L93.991 128.555L95.224 125.595ZM92.5006 132.336L94.0869 134.248L92.4131 140.2L90.8236 138.294L90.8424 138.227L92.5006 132.336ZM88.9699 150.947L87.5132 149.213L87.6026 143.565L89.0592 145.302L88.9699 150.947ZM93.1473 166.825L93.6879 167.464L95.2994 171.118L94.7566 170.479L94.1009 168.99L93.1473 166.825ZM100.492 205.255L110.563 207.241L101.07 234.89L101.069 234.894L87.5549 232.089L100.492 205.255ZM132.105 235.817L134.171 207.786L145.255 206.229L147.054 233.823L139.529 234.826L132.105 235.817ZM147.752 233.688L145.954 206.098L157.037 203.355L162.728 230.077L147.752 233.688ZM169.28 198.979L179.834 193.97L182.162 198.13L193.114 217.707L178.816 224.411L169.28 198.979ZM208.358 209.429L221.09 199.971L223.454 202.489L251.414 232.268L235.501 243.979L208.358 209.429ZM266.933 218.151L233.714 188.411L243.951 176.836L266.15 193.535L279.715 203.738L266.933 218.151ZM244.389 176.282L253.115 163.928L291.024 187.782L280.155 203.185L244.389 176.282ZM171.175 79.7585L177.512 80.7285L178.937 82.608L172.602 81.6348L171.175 79.7585ZM118.096 94.1308L119.752 96.2102L114.005 100.607L112.34 98.534L114.294 97.0392L118.096 94.1308ZM111.801 98.9909L112.238 99.5352L113.465 101.063L108.238 105.936L106.572 103.873L111.801 98.9909ZM107.74 106.443L103.118 111.714L101.448 109.664L106.079 104.387L107.74 106.443ZM103.128 112.844L104.78 114.873L100.828 120.451L99.1698 118.431L101.149 115.637L103.128 112.844ZM99.963 178.969L104.377 182.793L72.6851 191.207L66.0533 185.347L99.963 178.969ZM73.4464 191.736L105.052 183.344L110.061 186.577L97.6932 190.887L80.9912 196.706L76.4284 193.701L73.4464 191.736ZM81.0445 197.538L89.7104 201.689L78.3535 219.734L73.5631 227.346L61.9841 221.646L81.0445 197.538ZM61.6946 222.291L73.1848 227.947L73.1556 227.994L73.3096 228.046L69.1118 265.159L54.7812 257.877L61.6946 222.291ZM69.7875 265.465L73.9935 228.279L86.5491 232.549L86.526 232.597L86.6784 232.629L85.7436 262.248L85.4669 271.018L69.7875 265.465ZM116.702 236.245L122.553 208.201L133.459 207.842L131.393 235.879L126.423 236.003L116.702 236.245ZM193.738 217.377L180.456 193.635L190.489 187.597L207.333 209.263L201.411 212.797L193.738 217.377ZM251.963 231.821L221.634 199.519L233.22 188.916L266.435 218.653L251.963 231.821ZM307.239 153.142L293.698 147.396L266.39 135.81L269.856 122.399L311.467 136.384L307.239 153.142ZM311.587 135.679L291.017 128.765L269.993 121.699L271.582 108.372L313.441 119.033L311.587 135.679ZM313.458 118.308L301.841 115.349L271.626 107.654L271.33 94.6345L312.942 102.054L313.458 118.308ZM309.784 84.9803L282.077 82.0536L268.995 80.6716L268.971 80.5342L268.916 80.5518L265.012 68.8617L304.693 70.2745L309.784 84.9803ZM164.089 81.2743L164.145 81.3489L157.273 81.8066L155.733 79.806L162.611 79.3417L162.902 79.7214L164.089 81.2743ZM139.509 83.3719L139.829 83.7826L141.13 85.448L134.345 88.0482L132.72 85.9791L137.192 84.2617L139.509 83.3719ZM93.0902 123.008L94.7161 124.978L92.2422 130.918L90.6129 128.951L93.0902 123.008ZM90.9952 164.28L91.5386 164.923L93.1482 168.579L93.0469 168.459L92.6033 167.935L92.5238 167.754L90.9952 164.28ZM87.3797 232.774L91.3019 233.588L100.837 235.567L100.821 235.615L100.965 235.628L101.187 239.95L102.987 274.937L86.166 271.231L87.3797 232.774ZM141.208 276.566L132.151 236.523L147.1 234.529L147.102 234.571L147.191 234.55L159.917 274.268L141.208 276.566ZM264.303 68.9673L268.244 80.7674L236.355 91.002L233.53 82.2658L264.303 68.9673ZM232.684 82.0368L213.893 108.292L211.316 103.049L228.682 74.0746L230.056 76.8079L232.684 82.0368ZM170.185 79.6235L170.973 80.6594L171.597 81.4803L171.672 81.5793L165.006 81.3112L163.513 79.359L168.429 79.5539L170.185 79.6235ZM151.085 80.5381L154.9 79.8822L156.425 81.8631L156.471 81.9222L149.513 83.1131L147.937 81.0795L151.085 80.5381ZM147.164 81.2343L148.724 83.2479L148.762 83.2966L141.836 85.2041L140.23 83.1483L143.503 82.2448L147.164 81.2343ZM124.873 89.8675L126.524 91.9529L120.333 95.8061L118.68 93.7299L122.056 91.6241L124.873 89.8675ZM101.005 110.239L102.665 112.276L98.7057 117.864L97.3438 116.201L97.0432 115.833L100.411 111.078L101.005 110.239ZM88.5202 136.636L90.0611 138.482L89.1812 144.349L87.6373 142.508L88.0033 140.073L88.5202 136.636ZM92.1123 168.485L95.1749 173.329L59.2754 177.429L54.7271 170.059L92.1123 168.485ZM72.6425 192.053L80.4271 197.18L70.4248 209.832L61.3623 221.294L50.9869 214.291L72.6425 192.053ZM53.9933 258.23L53.9894 258.251L43.4102 250.921L43.3681 250.875L46.0791 252.752L53.9933 258.23ZM56.833 260.215L55.9658 259.271L57.4112 260.006L69.0273 265.908L69.0233 265.944L69.2043 266.008L70.0559 266.939L56.833 260.215ZM75.1969 268.13L85.4434 271.76L85.4424 271.794L85.6183 271.833L86.8103 273.148L71.8277 267.83L70.6193 266.509L75.1969 268.13ZM103.7 275.06L101.674 235.69L115.839 236.926L115.829 236.973L115.959 236.97L119.454 262.472L121.42 276.822L103.7 275.06ZM122.138 276.861L116.669 236.952L131.341 236.587L131.337 236.632L131.448 236.617L140.494 276.608L122.138 276.861ZM147.879 234.384L162.876 230.768L162.884 230.806L162.949 230.783L165.763 237.465L179.386 269.808L160.62 274.15L147.879 234.384ZM217.828 254.431L194.103 217.981L207.771 209.824L225.347 232.197L234.908 244.367L217.828 254.431ZM237.549 246.548L235.94 244.533L251.877 232.804L253.469 234.841L237.549 246.548ZM301.077 170.873L301.143 170.753L301.106 170.734L307.57 154.362L309.018 156.392L302.52 172.864L301.077 170.873ZM314.191 118.673L314.21 118.499L314.17 118.489L313.676 102.946L314.846 104.644L315.352 120.343L314.191 118.673ZM196.995 88.0213L191.629 84.8905L199.67 47.793L207.858 52.4294L196.995 88.0213ZM184.397 81.8866L178.071 80.1351L179.805 41.1091L189.382 43.6307L184.397 81.8866ZM132.145 66.0519L139.144 82.7148L139.022 82.7487L139.054 82.7899L132.312 85.3787L113.263 49.4597L123.488 45.4417L132.145 66.0519ZM108.246 95.1611L111.338 98.4567L106.086 103.361L75.3256 75.7861L83.1673 68.4333L108.246 95.1611ZM105.595 103.869L100.937 109.176L67.8745 84.2474L74.8335 76.2932L105.595 103.869ZM89.781 129.215L88.1301 135.067L88.0557 134.978L88.0017 135.337L85.6724 134.552L49.1298 122.234L51.7822 113.032L89.781 129.215ZM86.9074 142.886L86.8203 148.388L86.6618 148.199L86.7495 148.908L47.2503 141.929L47.4754 132.846L86.9074 142.886ZM86.8402 149.642L87.4735 154.767L87.2057 154.446L87.4923 155.494L69.3296 153.638L48.2966 151.488L47.294 142.654L86.8402 149.642ZM89.455 162.532L91.7698 167.793L54.3388 169.368L50.9349 161.394L89.455 162.532ZM50.6486 214.914L60.9232 221.85L60.8883 221.894L61.0382 221.968L54.1405 257.473L41.3439 248.615L50.6486 214.914ZM99.388 274.868L103.025 275.669L103.026 275.703L103.192 275.72L104.561 277.245L88.1998 273.629L86.8096 272.096L99.388 274.868ZM191.032 266.612L198.921 263.911L198.937 263.94L198.994 263.914L199.295 264.276L200.589 265.833L182.107 272.148L180.478 270.224L191.032 266.612ZM199.247 263.02L179.105 225.056L193.479 218.316L198.969 226.751L217.197 254.756L199.247 263.02ZM313.566 137.923L312.704 136.697L312.271 136.082L312.312 135.922L312.272 135.909L314.072 119.739L315.378 121.616L313.566 137.923ZM310.633 85.2527L310.599 85.0664L310.559 85.0622L306.146 72.3142L306.539 72.8902L311.015 85.8106L310.633 85.2527ZM304.349 69.5555L264.773 68.1462L264.729 68.0137L264.678 68.0356L259.091 57.22L297.143 55.9624L304.349 69.5555ZM264.028 68.3164L252.278 73.3944L233.261 81.6123L229.177 73.4881L258.374 57.3698L264.028 68.3164ZM228.288 73.3599L210.892 102.383L207.535 97.5666L223.097 66.0794L223.361 66.4495L228.288 73.3599ZM222.615 65.4612L207.034 96.9867L202.942 92.6653L216.321 58.9739L217.011 59.6855L222.615 65.4612ZM190.974 84.5771L185.079 82.1133L190.063 43.8659L199.019 47.4659L190.974 84.5771ZM168.334 39.4842L169.108 57.8403L169.996 78.909L163.087 78.6351L157.938 39.1926L160.163 39.255L168.334 39.4842ZM112.617 49.747L131.648 85.6337L131.574 85.6623L131.602 85.6974L125.078 88.9442L102.801 54.7184L112.617 49.747ZM67.4362 84.8018L80.8357 94.9049L100.499 109.731L96.5796 115.267L96.5438 115.223L96.4728 115.351L61.4528 93.2431L67.4362 84.8018ZM96.1287 115.969L92.933 121.708L92.8895 121.655L92.8125 121.84L56.1397 102.659L61.0755 93.84L96.1287 115.969ZM48.9805 122.929L87.8953 136.047L87.0322 141.786L86.927 141.66L86.9191 142.16L47.5322 132.131L48.9805 122.929ZM48.4485 152.214L87.6923 156.224L88.9274 160.742L88.3807 160.092L89.1396 161.816L79.0271 161.517L50.6678 160.679L48.4485 152.214ZM41.3753 205.676L65.2724 185.6L71.8649 191.425L71.7401 191.458L72.0421 191.657L68.16 195.643L50.4233 213.857L41.3753 205.676ZM105.729 277.489L104.234 275.824L111.589 276.555L121.519 277.542L121.524 277.575L121.674 277.573L123.143 279.229L105.729 277.489ZM162.653 276.658L161.033 274.78L163.617 274.182L179.665 270.469L179.678 270.498L179.761 270.47L179.981 270.729L181.35 272.346L162.653 276.658ZM219.871 256.992L218.25 255.002L222.246 252.647L235.348 244.928L235.368 244.954L235.37 244.952L236.955 246.936L219.871 256.992ZM191.818 14.2359L179.28 40.2404L179.139 40.2031L179.136 40.2522L169.145 38.8498L178.209 12.4477L191.818 14.2359ZM74.2804 75.8535L67.3093 83.8212L67.2813 83.7999L67.2491 83.8452L44.8227 72.152L54.116 61.5138L74.2804 75.8535ZM92.5394 122.494L90.1042 128.336L90.0481 128.269L89.9744 128.529L53.2294 112.88L52.0154 112.363L55.8307 103.294L92.5394 122.494ZM58.2036 261.705L71.4097 268.42L72.2687 269.36L59.0585 262.634L58.2036 261.705ZM201.286 265.567L199.658 263.608L206.521 260.449L217.587 255.355L217.605 255.382L217.634 255.365L219.087 257.147L219.228 257.32L201.286 265.567ZM237.99 247.1L253.904 235.398L253.928 235.427L255.492 237.424L239.592 249.108L237.99 247.1ZM269.448 221.31L269.427 221.284L276.619 213.175L282.196 206.887L282.228 206.929L282.671 207.518L283.745 208.946L270.991 223.322L269.448 221.31ZM316.952 122.641L316.092 121.407L315.587 105.719L316.752 107.41L317.264 123.09L316.952 122.641ZM316.457 105.738L316.305 105.517L315.529 104.391L313.893 95.4369L312.854 89.7462L313.777 91.0963L316.457 105.738ZM312.527 88.0179L310.587 82.42L308.057 75.1147L308.441 75.6781L312.914 88.584L312.527 88.0179ZM257.999 56.7698L257.198 57.212L228.814 72.8815L223.538 65.4822L250.742 46.8315L257.309 55.8238L257.999 56.7698ZM250.277 46.2946L227.791 61.7099L223.087 64.9347L216.712 58.3626L241.545 37.4946L250.277 46.2946ZM230.328 29.1099L208.215 51.8198L199.959 47.1451L219.108 22.9232L230.328 29.1099ZM205.541 17.6499L189.631 42.9303L189.482 42.8703L189.475 42.9245L179.976 40.4236L192.54 14.3622L205.541 17.6499ZM177.478 12.4036L168.433 38.7498L168.302 38.7314L168.304 38.7764L157.966 38.4868L163.465 12.1293L177.478 12.4036ZM44.3711 72.7129L66.8366 84.4271L60.9337 92.7545L60.8549 92.8657L60.8233 92.8457L60.7885 92.9079L38.5011 84.7738L36.3651 83.9942L44.3711 72.7129ZM23.6338 109.852L51.0984 112.856L49.644 117.902L48.4601 122.008L48.4136 121.992L48.3954 122.108L20.034 122.175L23.6338 109.852ZM46.5835 142.651L47.5779 151.415L47.5075 151.408L47.5519 151.577L18.6812 160.841L17.4175 148.898L46.5835 142.651ZM18.7992 161.545L47.7313 152.261L49.0784 157.4L49.9324 160.657L49.8523 160.655L49.931 160.839L21.7013 173.036L18.7992 161.545ZM21.9204 173.711L50.2082 161.489L53.5845 169.4L53.4932 169.403L53.6151 169.601L44.2245 174.785L26.4435 184.599L21.9204 173.711ZM26.7606 185.231L53.9863 170.203L58.5003 177.518L58.3979 177.529L58.5714 177.735L32.8603 195.368L26.7606 185.231ZM40.9917 206.282L43.7034 208.733L49.9304 214.363L49.8913 214.403L50.0313 214.498L40.7511 248.11L29.6396 237.83L40.9917 206.282ZM107.916 279.923L106.43 278.27L110.656 278.692L123.834 280.008L123.85 280.026L125.152 281.491L125.314 281.674L107.916 279.923ZM143.8 279.693L162.381 277.424L163.956 279.255L145.39 281.507L143.8 279.693ZM184.219 274.643L182.597 272.727L201.072 266.414L202.677 268.346L184.219 274.643ZM256.038 236.976L254.452 234.951L268.924 221.787L270.493 223.833L256.038 236.976ZM304.467 175.55L303.142 173.724L303.011 173.543L309.507 157.077L310.951 159.097L304.467 175.55ZM314.18 138.794L315.99 122.495L317.291 124.363L315.487 140.653L314.18 138.794ZM218.444 22.625L214.638 27.4393L199.314 46.8232L190.297 43.1981L206.242 17.8617L218.444 22.625ZM147.799 13.4904L146.312 33.6491L145.888 39.3908L145.785 39.3989L145.794 39.4371L135.205 41.3651L133.562 16.1771L147.799 13.4904ZM132.866 16.3506L134.506 41.4924L134.42 41.5079L134.432 41.5437L123.946 44.5432L118.817 20.4543L132.866 16.3506ZM103.826 26.4338L105.011 29.5961L112.314 49.0736L112.269 49.0912L112.286 49.1229L104.741 52.944L102.433 54.1129L90.7034 33.1446L103.826 26.4338ZM90.0908 33.4951L101.803 54.4323L101.78 54.4438L101.799 54.4734L92.4668 60.3618L77.7013 41.3706L90.0908 33.4951ZM65.0785 51.156L82.6693 67.9322L74.7978 75.3131L74.7729 75.2907L74.7478 75.3194L54.6161 61.0024L65.0785 51.156ZM35.97 84.6021L60.4387 93.5325L57.6923 98.4396L55.5139 102.332L55.4779 102.313L55.4443 102.393L29.3562 96.3874L35.97 84.6021ZM29.0271 97.0363L55.166 103.054L53.8457 106.192L51.366 112.086L51.3253 112.069L51.297 112.167L47.4992 111.751L23.8882 109.169L29.0271 97.0363ZM48.2841 122.815L47.505 127.765L46.8452 131.956L46.7917 131.942L46.7884 132.076L17.859 135.234L19.8631 122.882L48.2841 122.815ZM17.7796 135.953L46.7708 132.789L46.5475 141.805L46.4864 141.794L46.5035 141.946L17.3997 148.179L17.7796 135.953ZM90.4022 276.06L89.0199 274.534L105.371 278.148L105.387 278.165L106.162 279.027L106.746 279.678L90.4022 276.06ZM164.784 279.134L163.174 277.263L181.863 272.953L181.88 272.972L183.254 274.595L183.461 274.84L164.784 279.134ZM203.375 268.081L201.754 266.13L214.077 260.465L219.688 257.886L221.293 259.856L203.375 268.081ZM311.193 158.222L310.16 156.776L309.799 156.271L313.968 139.721L315.353 141.689L311.193 158.222ZM287.492 42.9893L296.664 55.271L258.731 56.5248L258.668 56.4009L258.622 56.4259L251.474 46.6359L287.492 42.9893ZM314.807 91.3515L314.429 90.7988L311.367 81.9661L309.963 77.9154L310.335 78.4618L314.807 91.3515ZM286.873 42.3418L250.991 45.9746L250.909 45.8614L250.869 45.8886L242.297 37.2493L275.93 31.5318L286.873 42.3418ZM255.348 22.7769L230.983 28.6421L230.868 28.5558L230.839 28.5852L219.91 22.5584L247.913 13.737L261.761 21.233L255.348 22.7769ZM246.877 13.3226L230.952 18.3392L219.055 22.087L218.926 22.0158L218.902 22.0454L215.843 20.8513L207.065 17.4247L231.929 7.59815L246.877 13.3226ZM218.92 11.9796L206.098 17.0473L205.956 16.9917L205.937 17.0212L193.374 13.8443L214.959 3.38793L230.77 7.29662L218.92 11.9796ZM195.927 1.09606L186.6 6.57757L177.895 11.694L177.729 11.6723L177.719 11.7019L164.252 11.4383L179.103 0.821099L195.927 1.09606ZM174.427 3.29539L163.069 11.4152L162.894 11.4117L162.888 11.4409L149.219 12.6146L160.728 2.43808L177.733 0.932267L174.427 3.29539ZM157.45 4.39376L148.038 12.7159L147.855 12.7317L147.852 12.7612L146.031 13.1048L134.131 15.3508L142.401 5.92846L159.383 2.6851L157.45 4.39376ZM89.8447 32.7514L89.8474 32.789L89.7297 32.8492L89.7456 32.8778L79.1908 39.5874L77.2761 40.8045L74.3688 36.7729L89.4327 27.1824L89.8447 32.7514ZM73.7913 37.1793L75.247 39.1981L76.6791 41.1839L76.6676 41.1912L76.6887 41.2184L65.104 50.2042L65.082 50.1831L65.0067 50.2539L59.8172 48.029L73.7913 37.1793ZM45.8699 61.1101L53.3056 61.3682L44.1784 71.8159L44.152 71.8021L44.0547 71.9393L34.7441 73.8489L45.8699 61.1101ZM33.9965 74.7236L38.0895 73.8841L43.4555 72.7836L35.6773 83.7432L35.6486 83.7327L35.564 83.8832L24.465 88.159L33.9965 74.7236ZM23.7452 89.1932L35.022 84.8491L32.0361 90.1697L28.6394 96.2224L28.6085 96.2152L28.5414 96.3735L15.8791 103.196L23.7452 89.1932ZM15.2515 104.336L28.1011 97.413L26.7932 100.501L23.1556 109.089L23.1225 109.086L23.0749 109.248L9.12157 118.767L15.2515 104.336ZM8.62894 119.958L22.763 110.316L21.8821 113.331L19.2981 122.177L19.2625 122.177L19.2358 122.341L4.3072 134.667L8.62894 119.958ZM3.97005 135.862L19.0642 123.399L18.3163 128.009L17.1312 135.313L17.0933 135.317L17.0881 135.482L16.4523 136.103L1.53026 150.688L3.97005 135.862ZM1.35506 151.847L17.0565 136.5L16.7356 146.834L16.6891 148.331L16.6487 148.34L16.6659 148.503L10.3817 155.695L0.846234 166.608L1.35506 151.847ZM0.825904 167.704L16.7672 149.46L17.995 161.061L17.9527 161.075L17.9927 161.233L2.29413 182.209L0.825904 167.704ZM2.41697 183.224L18.2151 162.114L21.0451 173.32L21.0016 173.339L21.0644 173.49L9.89888 190.987L5.88112 197.283L2.41697 183.224ZM6.1311 198.204L21.3946 174.285L24.6274 182.067L25.8219 184.943L25.7776 184.967L25.8629 185.109L11.5814 211.615L6.1311 198.204ZM92.5971 278.478L91.224 276.965L98.7015 278.621L107.558 280.582L108.275 281.379L108.929 282.107L92.5971 278.478ZM110.1 282.353L108.617 280.704L126.006 282.454L127.181 283.779L127.479 284.115L110.1 282.353ZM128.5 284.202L126.955 282.46L134.76 282.363L145.09 282.235L146.623 283.988L128.5 284.202ZM147.536 283.96L145.953 282.15L164.511 279.9L164.527 279.918L164.929 280.384L166.082 281.723L147.536 283.96ZM166.91 281.602L165.305 279.739L174.941 277.524L183.974 275.447L185.204 276.901L185.564 277.327L166.91 281.602ZM203.842 268.644L210.979 265.368L221.754 260.422L221.772 260.445L223.354 262.385L205.456 270.587L203.842 268.644ZM256.475 237.533L270.924 224.396L271.185 224.737L272.486 226.435L258.055 239.551L256.475 237.533ZM272.984 225.923L271.448 223.919L271.428 223.893L284.178 209.522L284.553 210.021L285.719 211.574L272.984 225.923ZM286.166 210.993L284.656 208.984L284.637 208.958L295.467 193.614L296.98 195.665L286.166 210.993ZM297.37 195.005L296.785 194.212L295.878 192.982L304.602 176.939L306.079 178.979L297.37 195.005ZM304.976 176.251L304.959 176.228L311.439 159.782L312.876 161.797L306.403 178.223L304.976 176.251ZM317.4 143.372L316.974 142.766L316.101 141.525L317.903 125.244L319.193 127.101L317.4 143.372Z" fill="white"/>
</svg>
