<svg width="126" height="30" viewBox="0 0 126 30" fill="none" xmlns="http://www.w3.org/2000/svg">
<path d="M52.6144 22.3364L41.762 22.3226L55.6391 2.29493C55.9432 1.85714 55.8587 1.21198 55.4532 0.88479C55.3011 0.755758 55.0983 0.682031 54.8998 0.682031H34.8256C33.0598 0.682031 31.6193 2.25806 31.6193 4.17972C31.6193 6.10138 33.0641 7.67742 34.8256 7.67742H43.8446L29.9211 27.7235C29.6001 28.1613 29.6846 28.788 30.0901 29.1336C30.2591 29.2811 30.4576 29.3548 30.6604 29.3364H52.6144C54.3802 29.2442 55.7404 27.5945 55.656 25.6544C55.5715 23.8571 54.2619 22.4286 52.6144 22.3364ZM122.777 0.682031C121.011 0.682031 119.571 2.25806 119.571 4.17972V15.9263L102.234 0.917048C101.849 0.566818 101.258 0.622124 100.941 1.06452C100.806 1.24885 100.738 1.46544 100.738 1.70507V25.8387C100.738 27.765 102.183 29.3364 103.945 29.3364C105.706 29.3364 107.151 27.7788 107.151 25.8387V14.0922L124.488 29.1198C124.889 29.47 125.48 29.3963 125.797 28.9539C125.932 28.7696 126 28.553 126 28.3318V4.17972C125.987 2.23963 124.559 0.682031 122.777 0.682031ZM76.9045 22.9816C69.5626 22.9816 64.0878 18.765 64.0878 14.9908C64.0878 11.2166 69.5795 7 76.9045 7C84.2464 7 89.7212 11.2166 89.7212 14.9908C89.7212 18.765 84.2591 22.9816 76.9045 22.9816ZM76.9045 0C66.2887 0 57.671 6.70507 57.671 14.9908C57.671 23.2765 66.2887 29.9816 76.9045 29.9816C87.5203 29.9816 96.138 23.2765 96.138 14.9908C96.138 6.70507 87.5203 0 76.9045 0ZM13.7587 23C9.71181 23 6.4168 19.4286 6.4168 15.0092C6.4168 10.5899 9.69068 7 13.7418 7C17.793 7 21.0838 10.5714 21.0838 14.9908C21.0838 19.3917 17.8099 22.9816 13.7587 23ZM13.7587 0C6.16757 0 0.0168974 6.70507 0 14.9908C0 23.2719 6.14645 29.9816 13.7418 30C21.333 30 27.4837 23.2949 27.5006 15.0092C27.4837 6.72811 21.3372 0 13.7587 0Z" fill="white"/>
</svg>
